<?xml version="1.0" encoding="UTF-8"?>
<!-- Generator: visioncortex VTracer 0.6.4 -->
<svg version="1.1" xmlns="http://www.w3.org/2000/svg" width="220" height="242">
<path d="M0 0 C0.99 0 1.98 0 3 0 C8 17.86 8 17.86 8 26 C8.68 26.56 9.36 27.11 10.06 27.69 C12 30 12 30 11.97 31.96 C11.65 33.98 11.32 35.99 11 38 C11.66 38.66 12.32 39.32 13 40 C12.62 42.63 12.62 42.63 12 45 C13.98 45.49 13.98 45.49 16 46 C16.5 48.47 16.5 48.47 17 51 C18.58 51.09 18.58 51.09 20.19 51.19 C36.8 53.33 50.52 63.53 62 75 C62.74 75.73 63.49 76.46 64.25 77.21 C82.18 96.02 84.83 119.23 84.29 144.02 C84.02 152.14 82.51 158.68 79 166 C78.47 167.15 77.94 168.29 77.39 169.48 C73.76 176.72 69.26 182.88 64 189 C62.82 190.48 62.82 190.48 61.62 191.98 C55.09 199.51 46.7 204.96 37.88 209.44 C36.95 209.91 36.95 209.91 36 210.4 C25.4 215.52 15.21 216.53 3.61 216.5 C1.27 216.5 -1.08 216.54 -3.42 216.59 C-23.15 216.74 -40.28 209.12 -55 196 C-55.76 195.33 -56.52 194.67 -57.3 193.98 C-66.66 185.26 -73.44 173.9 -78 162 C-78.39 161.08 -78.78 160.17 -79.19 159.23 C-86.15 140.04 -83.66 116.2 -75.37 97.95 C-65.35 77.02 -48.36 61.01 -26.5 53.06 C-23.06 51.92 -19.67 50.92 -16.16 50.06 C-15.11 49.71 -14.07 49.36 -13 49 C-12.67 48.01 -12.34 47.02 -12 46 C-9.94 45.31 -9.94 45.31 -8 45 C-8.19 44.2 -8.37 43.39 -8.56 42.56 C-8.78 41.29 -8.78 41.29 -9 40 C-8.67 39.67 -8.34 39.34 -8 39 C-7.84 35.94 -8.02 33.94 -9 31 C-8.06 28.81 -8.06 28.81 -7 27 C-6.01 27 -5.02 27 -4 27 C-4.04 25.71 -4.08 24.42 -4.12 23.1 C-4.12 18 -3.2 13.37 -2 8.44 C-1.71 7.21 -1.71 7.21 -1.42 5.96 C-0.96 3.97 -0.48 1.98 0 0 Z " fill="#FAFAFA" transform="translate(110,9)"/>
<path d="M0 0 C0 0.66 0 1.32 0 2 C13.86 2.49 13.86 2.49 28 3 C28 3.66 28 4.32 28 5 C29.65 5 31.3 5 33 5 C33 5.33 33 5.66 33 6 C20.13 6 7.26 6 -6 6 C-6.33 6.99 -6.66 7.98 -7 9 C-7.66 8.67 -8.32 8.34 -9 8 C-9.1 8.78 -9.21 9.57 -9.31 10.38 C-10 13 -10 13 -13 15 C-15.66 22.98 -13.24 29.28 -9.81 36.5 C-9.54 37 -9.28 37.49 -9 38 C-8.34 38 -7.68 38 -7 38 C-5.37 40 -5.37 40 -4 42 C-3.01 41.01 -3.01 41.01 -2 40 C-2 41.65 -2 43.3 -2 45 C-1.46 44.69 -0.93 44.38 -0.38 44.06 C4.91 41.7 10.33 41.9 16 42 C16 39.03 16 36.06 16 33 C15.2 32.73 14.39 32.46 13.56 32.19 C12.72 31.8 11.87 31.4 11 31 C10.5 29.52 10.5 29.52 10 28 C10.99 26.52 10.99 26.52 12 25 C14.38 24.56 14.38 24.56 17 25 C19.16 26.57 19.16 26.57 21 29 C21.28 32.82 20.99 36.46 20.75 40.27 C21.05 44.69 22.51 46.43 25 50 C25.43 53.04 25.43 53.04 25.31 56.06 C25.28 57.56 25.28 57.56 25.24 59.1 C25 62 25 62 24.42 64.73 C23.78 67.04 23.78 67.04 24.94 69.25 C26.98 74.55 26.4 80.56 25 86 C23.02 85.5 23.02 85.5 21 85 C20.5 78.56 20.5 78.56 20 72 C14.98 78.27 13.78 81.25 13 89 C13.95 88.98 14.9 88.96 15.88 88.94 C19 89 19 89 21 90 C20.5 91.49 20.5 91.49 20 93 C17.3 94.35 14.98 94 12 94 C11.67 94.33 11.34 94.66 11 95 C9.01 95.38 7.01 95.7 5 96 C3.21 96.37 3.21 96.37 1.38 96.75 C-2 97 -2 97 -3.66 95.62 C-7.1 93.23 -10.67 92.93 -14.75 92.31 C-15.94 92.12 -15.94 92.12 -17.15 91.92 C-19.1 91.6 -21.05 91.3 -23 91 C-20.78 93.91 -19.07 95.95 -16 98 C-16 98.66 -16 99.32 -16 100 C-15.34 100 -14.68 100 -14 100 C-12.85 101.61 -12.85 101.61 -11.62 103.75 C-9.72 106.94 -7.8 109.51 -5 112 C-5.8 112.31 -6.61 112.62 -7.44 112.94 C-9.89 113.76 -9.89 113.76 -11 115 C-11.42 117.37 -11.42 117.37 -11 120 C-7.99 123.8 -5.19 124.82 -0.56 126 C0.67 126.33 1.9 126.66 3.17 127 C4.43 127.33 5.7 127.66 7 128 C9.42 128.65 11.84 129.31 14.25 130 C15.84 130.43 15.84 130.43 17.45 130.88 C20 132 20 132 21.36 134.12 C21.57 134.74 21.78 135.36 22 136 C21.01 136.33 20.02 136.66 19 137 C19 137.99 19 138.98 19 140 C19.66 140 20.32 140 21 140 C21 140.66 21 141.32 21 142 C19.02 141.34 17.04 140.68 15 140 C15 137.36 15 134.72 15 132 C14.34 132 13.68 132 13 132 C13.5 135.47 13.5 135.47 14 139 C9.25 138.25 9.25 138.25 7 136 C7 135.01 7 134.02 7 133 C7.66 133 8.32 133 9 133 C9 132.01 9 131.02 9 130 C7.02 130 5.04 130 3 130 C2.83 132.92 2.83 132.92 3 136 C6.09 139.09 10.03 139.67 14.15 140.9 C16.88 141.95 18.18 142.77 20 145 C19.34 145.99 18.68 146.98 18 148 C15.36 147.67 12.72 147.34 10 147 C9 144 9 144 10 141 C9.01 141.33 8.02 141.66 7 142 C6.32 147.27 8.75 151.39 11 156 C11.66 156 12.32 156 13 156 C13 158.31 13 160.62 13 163 C13.66 163 14.32 163 15 163 C15 160.69 15 158.38 15 156 C16.32 156.33 17.64 156.66 19 157 C19 156.34 19 155.68 19 155 C17.87 154.73 16.73 154.46 15.56 154.19 C14.39 153.8 13.21 153.4 12 153 C11.67 152.01 11.34 151.02 11 150 C13.31 150 15.62 150 18 150 C18.33 150.66 18.66 151.32 19 152 C19 150.68 19 149.36 19 148 C19.66 148 20.32 148 21 148 C20.97 149.5 20.9 151 20.81 152.5 C20.76 153.75 20.76 153.75 20.71 155.03 C19.68 159.33 18.15 162.83 15 166 C12 167.11 9.28 167 6.12 166.81 C5.28 166.78 4.44 166.76 3.58 166.73 C-13.61 165.79 -29.33 157.29 -42 146 C-42.76 145.33 -43.52 144.67 -44.3 143.98 C-53.66 135.26 -60.44 123.9 -65 112 C-65.39 111.08 -65.78 110.17 -66.19 109.23 C-73.15 90.04 -70.66 66.2 -62.37 47.95 C-52.31 26.95 -35.28 11 -13.38 3 C-4.44 0 -4.44 0 0 0 Z " fill="#F7F7F6" transform="translate(97,59)"/>
<path d="M0 0 C0 0.99 0 1.98 0 3 C-1.13 4.13 -2.27 5.25 -3.44 6.33 C-6.13 9.21 -8.13 12.58 -10.25 15.89 C-12.16 18.19 -13.08 18.67 -16 19 C-16 19.66 -16 20.32 -16 21 C-15.2 21.41 -14.39 21.82 -13.56 22.25 C-11 24 -11 24 -10 26.88 C-10 30.65 -10.73 32.01 -13 35 C-15.7 36.36 -15.7 36.36 -18.69 37.31 C-20.18 37.8 -20.18 37.8 -21.7 38.3 C-22.46 38.53 -23.22 38.76 -24 39 C-23.67 39.66 -23.34 40.32 -23 41 C-22.96 43.33 -22.96 45.67 -23 48 C-26.37 49.5 -28.2 50 -32 50 C-32 49.01 -32 48.02 -32 47 C-31.34 46.67 -30.68 46.34 -30 46 C-30.33 45.01 -30.66 44.02 -31 43 C-33.54 41.88 -33.54 41.88 -36.69 41.06 C-37.86 40.72 -39.03 40.38 -40.23 40.03 C-42.75 39.34 -45.27 38.68 -47.8 38.03 C-49.02 37.71 -50.24 37.39 -51.5 37.06 C-52.62 36.79 -53.75 36.51 -54.91 36.22 C-58.58 34.77 -60.48 33.01 -63 30 C-63.5 27.38 -63.5 27.38 -63 25 C-61.12 22.5 -60.04 22.01 -57 21 C-57.76 20.26 -58.53 19.51 -59.31 18.75 C-65 12.93 -65 12.93 -65 10 C-65.66 10 -66.32 10 -67 10 C-69.12 8.12 -69.12 8.12 -71 6 C-71 5.34 -71 4.68 -71 4 C-71.99 3.67 -72.98 3.34 -74 3 C-74 2.34 -74 1.68 -74 1 C-60.28 1.6 -60.28 1.6 -54 5 C-53.05 5.37 -52.1 5.74 -51.12 6.12 C-48.58 8.37 -48.6 9.16 -48.25 12.44 C-48.2 13.58 -48.2 13.58 -48.14 14.75 C-48.07 17.02 -48.07 17.02 -47.42 19.22 C-47.28 19.81 -47.14 20.4 -47 21 C-48 22 -48 22 -50.56 22.06 C-51.37 22.04 -52.17 22.02 -53 22 C-53 22.66 -53 23.32 -53 24 C-52.01 24.33 -51.02 24.66 -50 25 C-53 27 -53 27 -56 27 C-53.76 30.36 -53.07 30.58 -49.38 31.69 C-48.15 32.06 -48.15 32.06 -46.9 32.45 C-46.27 32.63 -45.65 32.81 -45 33 C-45.33 32.09 -45.66 31.19 -46 30.25 C-47 27 -47 27 -47 23 C-44.36 23 -41.72 23 -39 23 C-39 24.32 -39 25.64 -39 27 C-38.34 27 -37.68 27 -37 27 C-36.5 25.51 -36.5 25.51 -36 24 C-36 24.99 -36 25.98 -36 27 C-35.34 27 -34.68 27 -34 27 C-34 25.68 -34 24.36 -34 23 C-31.36 23 -28.72 23 -26 23 C-26.33 24.32 -26.66 25.64 -27 27 C-27.66 27 -28.32 27 -29 27 C-29 27.66 -29 28.32 -29 29 C-28.34 29 -27.68 29 -27 29 C-27.66 30.32 -28.32 31.64 -29 33 C-26.71 33 -25.15 32.46 -23 31.69 C-21.95 31.32 -21.95 31.32 -20.88 30.95 C-18.66 30.02 -18.66 30.02 -17 27 C-19.31 26.34 -21.62 25.68 -24 25 C-24 24.34 -24 23.68 -24 23 C-24.66 22.67 -25.32 22.34 -26 22 C-25.91 20.06 -25.8 18.12 -25.69 16.19 C-25.6 14.57 -25.6 14.57 -25.51 12.92 C-24.96 9.77 -24.5 8.88 -22 7 C-16.1 3.12 -11.19 1.76 -4.21 1.25 C-1.96 1.12 -1.96 1.12 0 0 Z " fill="#F3D468" transform="translate(148,149)"/>
<path d="M0 0 C1.26 -0 2.52 -0 3.81 -0 C5.13 -0 6.45 0 7.8 0.01 C9.1 0 10.39 0 11.73 -0 C30 0.01 30 0.01 34.68 3.13 C35.99 6.57 35.99 6.57 36.68 10.13 C36.02 11.12 35.36 12.11 34.68 13.13 C35.34 12.8 36 12.47 36.68 12.13 C37.01 11.14 37.34 10.15 37.68 9.13 C38.34 9.13 39 9.13 39.68 9.13 C42.18 12.88 42.11 16.79 41.68 21.13 C40.8 23.88 40.8 23.88 39.68 26.13 C39.31 26.9 38.94 27.66 38.55 28.45 C38.27 29 37.98 29.56 37.68 30.13 C37.02 30.13 36.36 30.13 35.68 30.13 C35.68 31.12 35.68 32.11 35.68 33.13 C33.8 35.2 33.8 35.2 31.68 37.13 C31.02 37.79 30.36 38.45 29.68 39.13 C29.18 33.02 30.43 30.11 33.68 25.13 C32.36 24.8 31.04 24.47 29.68 24.13 C28.55 19.38 28.55 19.38 29.68 17.13 C17.8 17.13 5.92 17.13 -6.32 17.13 C-5.99 19.11 -5.66 21.09 -5.32 23.13 C-7.26 25.51 -7.26 25.51 -9.32 27.13 C-8.83 28.02 -8.33 28.91 -7.82 29.82 C-6.38 33.01 -6.02 34.71 -6.32 38.13 C-8.32 36.76 -8.32 36.76 -10.32 35.13 C-10.32 34.47 -10.32 33.81 -10.32 33.13 C-10.98 33.13 -11.64 33.13 -12.32 33.13 C-16.85 28.46 -18.36 23.41 -18.63 17.01 C-18.31 13.06 -17.74 11.21 -15.32 8.13 C-14.66 7.8 -14 7.47 -13.32 7.13 C-12.67 5.11 -12.67 5.11 -12.32 3.13 C-11.66 3.13 -11 3.13 -10.32 3.13 C-9.99 2.47 -9.66 1.81 -9.32 1.13 C-6 0.03 -3.5 0 0 0 Z " fill="#F2C731" transform="translate(100.3203125,63.8671875)"/>
<path d="M0 0 C1.18 -0 2.37 -0 3.58 -0 C5.43 0 5.43 0 7.32 0.01 C8.54 0 9.77 0 11.04 -0 C12.81 -0 12.81 -0 14.62 0 C15.7 0 16.78 0 17.9 0 C20.67 0.12 23.18 0.5 25.88 1.13 C25.88 3.11 25.88 5.09 25.88 7.13 C27.2 7.79 28.52 8.45 29.88 9.13 C29.27 12.09 28.63 13.51 26.88 16.13 C26.19 23.02 28.43 28.71 31.07 34.95 C33.14 43.07 32.36 50.58 28.88 58.13 C27.89 58.13 26.9 58.13 25.88 58.13 C26.04 57.25 26.21 56.36 26.38 55.45 C27.51 47.02 28.58 38.67 23.31 31.5 C21.34 29.62 19.52 29.54 16.88 29.13 C12.62 24.21 12.36 20.44 12.63 14.26 C12.66 13.08 12.66 13.08 12.68 11.88 C12.73 9.97 12.8 8.05 12.88 6.13 C10.24 5.8 7.6 5.47 4.88 5.13 C4.55 6.45 4.22 7.77 3.88 9.13 C5.86 10.12 7.84 11.11 9.88 12.13 C10 18.88 10 18.88 8.88 21.13 C6.62 21.58 4.35 21.92 2.07 22.2 C-3.58 22.88 -3.58 22.88 -9.12 24.13 C-9.41 23.25 -9.41 23.25 -9.71 22.34 C-11.07 18.22 -12.44 14.14 -14.12 10.13 C-13.46 10.13 -12.8 10.13 -12.12 10.13 C-11.79 9.14 -11.46 8.15 -11.12 7.13 C-10.46 7.13 -9.8 7.13 -9.12 7.13 C-9.45 5.15 -9.78 3.17 -10.12 1.13 C-6.7 0.09 -3.56 0 0 0 Z " fill="#F4F7F8" transform="translate(104.12109375,79.8671875)"/>
<path d="M0 0 C0.99 0 1.98 0 3 0 C8 17.86 8 17.86 8 26 C8.68 26.56 9.36 27.11 10.06 27.69 C12 30 12 30 11.97 31.96 C11.65 33.98 11.32 35.99 11 38 C11.66 38.66 12.32 39.32 13 40 C12.62 42.62 12.62 42.62 12 45 C13.32 45.33 14.64 45.66 16 46 C16.62 48.37 16.62 48.37 17 51 C15 53 15 53 12.42 53.24 C11.35 53.24 10.29 53.23 9.19 53.23 C8.03 53.23 6.87 53.23 5.68 53.22 C4.47 53.21 3.25 53.2 2 53.19 C0.79 53.19 -0.43 53.19 -1.68 53.19 C-10.72 53.14 -10.72 53.14 -13 52 C-12.5 49.03 -12.5 49.03 -12 46 C-10.02 45.51 -10.02 45.51 -8 45 C-8.28 43.79 -8.28 43.79 -8.56 42.56 C-8.71 41.72 -8.85 40.87 -9 40 C-8.5 39.51 -8.5 39.51 -8 39 C-7.84 35.94 -8.02 33.94 -9 31 C-8.06 28.81 -8.06 28.81 -7 27 C-6.01 27 -5.02 27 -4 27 C-4.04 25.71 -4.08 24.42 -4.12 23.1 C-4.12 18 -3.2 13.37 -2 8.44 C-1.81 7.62 -1.62 6.8 -1.42 5.96 C-0.96 3.97 -0.48 1.98 0 0 Z " fill="#B0B0AA" transform="translate(110,9)"/>
<path d="M0 0 C0.33 0.99 0.66 1.98 1 3 C-0.32 3.99 -1.64 4.98 -3 6 C1.42 7.16 1.42 7.16 5.56 5.56 C6.37 5.05 7.17 4.53 8 4 C10.81 3.81 10.81 3.81 13 4 C11.39 7.22 8.21 7.65 5 9 C4.34 9.66 3.68 10.32 3 11 C2.5 10.5 2.5 10.5 2 10 C1.87 10.68 1.73 11.35 1.6 12.05 C1.42 12.94 1.24 13.83 1.06 14.75 C0.8 16.07 0.8 16.07 0.54 17.42 C0.08 19.63 -0.43 21.82 -1 24 C0.65 24 2.3 24 4 24 C3.01 24.33 2.02 24.66 1 25 C1.89 27.36 1.89 27.36 5.06 28.12 C6.03 28.41 7 28.7 8 29 C7.5 30.81 7.5 30.81 6 33 C2.2 34.92 -1.87 36.01 -6 37 C-6 35 -6 35 -4 32.88 C-3.34 32.26 -2.68 31.64 -2 31 C-2.66 31 -3.32 31 -4 31 C-4 30.34 -4 29.68 -4 29 C-3.34 28.67 -2.68 28.34 -2 28 C-1.67 27.01 -1.34 26.02 -1 25 C-3.64 25 -6.28 25 -9 25 C-9 26.32 -9 27.64 -9 29 C-10.65 29 -12.3 29 -14 29 C-14 27.68 -14 26.36 -14 25 C-16.64 25 -19.28 25 -22 25 C-21.67 26.11 -21.34 27.23 -21 28.38 C-20 32 -20 32 -20 34 C-19.01 34.66 -18.02 35.32 -17 36 C-22.93 35.59 -26.38 34.81 -31 31 C-31 30.34 -31 29.68 -31 29 C-29.35 28.34 -27.7 27.68 -26 27 C-26.66 26.67 -27.32 26.34 -28 26 C-28 25.34 -28 24.68 -28 24 C-26.35 23.67 -24.7 23.34 -23 23 C-23.14 22.1 -23.29 21.19 -23.44 20.26 C-23.72 18.49 -23.72 18.49 -24 16.69 C-24.28 14.93 -24.28 14.93 -24.56 13.14 C-25 10 -25 10 -25 7 C-23.89 7.02 -22.77 7.04 -21.62 7.06 C-18.17 7.26 -18.17 7.26 -16 6 C-15.67 5.34 -15.34 4.68 -15 4 C-14.67 4.33 -14.34 4.66 -14 5 C-11.08 5.33 -11.08 5.33 -8 5 C-6.98 4.02 -5.98 3.02 -5 2 C-2.31 1.81 -2.31 1.81 0 2 C0 1.34 0 0.68 0 0 Z " fill="#E8E9E5" transform="translate(123,147)"/>
<path d="M0 0 C2.38 -0.44 2.38 -0.44 5 0 C7.16 1.57 7.16 1.57 9 4 C9.28 7.82 8.99 11.46 8.75 15.27 C9.05 19.69 10.51 21.43 13 25 C13.43 28.04 13.43 28.04 13.31 31.06 C13.29 32.06 13.26 33.07 13.24 34.1 C13 37 13 37 12.42 39.73 C11.78 42.04 11.78 42.04 12.94 44.25 C14.98 49.55 14.4 55.56 13 61 C11.68 60.67 10.36 60.34 9 60 C8.5 53.56 8.5 53.56 8 47 C2.98 53.27 1.78 56.25 1 64 C2.42 63.97 2.42 63.97 3.88 63.94 C7 64 7 64 9 65 C8.67 65.99 8.34 66.98 8 68 C5.17 69.41 3.13 69.32 0 69 C-2.86 66.08 -3.45 63.84 -3.5 59.81 C-3.35 53.78 -1.23 49.95 2 45 C3.79 41.78 4.21 39.71 4 36 C5.32 36 6.64 36 8 36 C7.91 34.39 7.8 32.79 7.69 31.19 C7.63 30.29 7.57 29.4 7.51 28.48 C6.94 25.69 6.18 24.76 4 23 C3.73 23.59 3.47 24.19 3.2 24.8 C1.23 28.42 -1.47 30.88 -5 33 C-8.03 33.68 -9.84 33.48 -13 33 C-15 30 -15 30 -14.75 27.88 C-14 26 -14 26 -12 25 C-12 26.32 -12 27.64 -12 29 C-5.85 27.79 -3.65 26.08 0 21 C-2.64 21 -5.28 21 -8 21 C-8 20.01 -8 19.02 -8 18 C-4.02 16.67 -0.15 16.93 4 17 C4 14.03 4 11.06 4 8 C3.2 7.73 2.39 7.46 1.56 7.19 C0.72 6.8 -0.13 6.4 -1 6 C-1.33 5.01 -1.66 4.02 -2 3 C-1.34 2.01 -0.68 1.02 0 0 Z " fill="#0B94F0" transform="translate(109,84)"/>
<path d="M0 0 C13.72 0.6 13.72 0.6 20 4 C20.95 4.37 21.9 4.74 22.88 5.12 C25.42 7.37 25.4 8.16 25.75 11.44 C25.8 12.58 25.8 12.58 25.86 13.75 C25.93 16.02 25.93 16.02 26.58 18.22 C26.72 18.81 26.86 19.4 27 20 C26 21 26 21 23.44 21.06 C22.63 21.04 21.83 21.02 21 21 C21 21.66 21 22.32 21 23 C21.99 23.33 22.98 23.66 24 24 C21 26 21 26 18 26 C20.43 29.64 22.89 30.45 26.81 31.94 C27.81 32.33 27.81 32.33 28.82 32.72 C34.29 34.82 39.85 36.56 45.49 38.14 C48 39 48 39 50 41 C50.38 43.44 50.38 43.44 50 46 C48.25 47.81 48.25 47.81 46 49 C44.68 49 43.36 49 42 49 C42 48.01 42 47.02 42 46 C42.66 45.67 43.32 45.34 44 45 C43.67 44.01 43.34 43.02 43 42 C40.46 40.88 40.46 40.88 37.31 40.06 C36.14 39.72 34.97 39.38 33.77 39.03 C31.25 38.34 28.73 37.68 26.2 37.03 C24.98 36.71 23.76 36.39 22.5 36.06 C21.38 35.79 20.25 35.51 19.09 35.22 C15.42 33.77 13.52 32.01 11 29 C10.5 26.38 10.5 26.38 11 24 C12.88 21.5 13.96 21.01 17 20 C16.24 19.26 15.47 18.51 14.69 17.75 C9 11.93 9 11.93 9 9 C8.34 9 7.68 9 7 9 C4.88 7.12 4.88 7.12 3 5 C3 4.34 3 3.68 3 3 C2.01 2.67 1.02 2.34 0 2 C0 1.34 0 0.68 0 0 Z " fill="#F5CB44" transform="translate(74,150)"/>
<path d="M0 0 C2.41 0.53 4.65 1.22 7 2 C6.67 3.65 6.34 5.3 6 7 C8.97 7.49 8.97 7.49 12 8 C12.62 10.38 12.62 10.38 13 13 C11 15 11 15 8.42 15.24 C7.35 15.24 6.29 15.23 5.19 15.23 C4.03 15.23 2.87 15.23 1.68 15.22 C0.47 15.21 -0.75 15.2 -2 15.19 C-3.21 15.19 -4.43 15.19 -5.68 15.19 C-14.72 15.14 -14.72 15.14 -17 14 C-16.67 12.02 -16.34 10.04 -16 8 C-14.68 7.67 -13.36 7.34 -12 7 C-11.85 5.82 -11.85 5.82 -11.69 4.62 C-10.17 -1.16 -4.97 -0.47 0 0 Z " fill="#F4CA34" transform="translate(114,47)"/>
<path d="M0 0 C0.99 0 1.98 0 3 0 C3 0.66 3 1.32 3 2 C3.7 1.65 4.4 1.3 5.12 0.94 C8.54 -0.18 10.52 0.26 14 1 C15.32 1 16.64 1 18 1 C18.33 1.33 18.66 1.66 19 2 C19.33 1.34 19.66 0.68 20 0 C20.99 0 21.98 0 23 0 C22.89 1.79 22.76 3.58 22.62 5.38 C22.56 6.37 22.49 7.37 22.41 8.4 C22 11 22 11 20 13 C17.38 13.12 17.38 13.12 15 13 C14.67 13.99 14.34 14.98 14 16 C11.69 16 9.38 16 7 16 C7 15.01 7 14.02 7 13 C6.2 12.86 5.39 12.71 4.56 12.56 C2 12 2 12 1 11 C0.77 9.15 0.59 7.3 0.44 5.44 C0.35 4.43 0.27 3.41 0.18 2.37 C0.12 1.59 0.06 0.81 0 0 Z " fill="#F3CF55" transform="translate(100,155)"/>
<path d="M0 0 C2.64 0 5.28 0 8 0 C8 1.32 8 2.64 8 4 C8.66 4 9.32 4 10 4 C10.33 3.01 10.66 2.02 11 1 C11 1.99 11 2.98 11 4 C11.66 4 12.32 4 13 4 C13 2.68 13 1.36 13 0 C15.64 0 18.28 0 21 0 C20.67 1.32 20.34 2.64 20 4 C19.34 4 18.68 4 18 4 C18 4.66 18 5.32 18 6 C18.66 6 19.32 6 20 6 C19.34 7.32 18.68 8.64 18 10 C17.34 10 16.68 10 16 10 C16.33 11.65 16.66 13.3 17 15 C18.34 14.58 18.34 14.58 19.7 14.16 C20.87 13.8 22.04 13.44 23.25 13.06 C24.41 12.7 25.57 12.34 26.77 11.97 C29.17 11.25 31.56 10.57 34 10 C34 10.66 34 11.32 34 12 C30.37 13.32 26.74 14.64 23 16 C23.33 16.66 23.66 17.32 24 18 C24.04 20.33 24.04 22.67 24 25 C23.01 25 22.02 25 21 25 C21.33 24.67 21.66 24.34 22 24 C22.04 22.33 22.04 20.67 22 19 C15.43 16.25 8.86 13.93 2 12 C1.86 10.95 1.71 9.9 1.56 8.81 C1.12 5.85 0.62 2.93 0 0 Z " fill="#EED67E" transform="translate(101,172)"/>
<path d="M0 0 C1.97 0.27 1.97 0.27 4.97 2.27 C1.97 4.27 1.97 4.27 -1.03 4.27 C1.4 7.9 3.86 8.72 7.79 10.2 C8.45 10.46 9.11 10.72 9.8 10.99 C15.27 13.09 20.82 14.82 26.46 16.41 C28.97 17.27 28.97 17.27 30.97 19.27 C31.35 21.7 31.35 21.7 30.97 24.27 C29.22 26.08 29.22 26.08 26.97 27.27 C25.65 27.27 24.33 27.27 22.97 27.27 C22.97 26.28 22.97 25.29 22.97 24.27 C23.63 23.94 24.29 23.61 24.97 23.27 C24.48 21.78 24.48 21.78 23.97 20.27 C21.43 19.14 21.43 19.14 18.29 18.33 C17.12 17.99 15.95 17.65 14.74 17.3 C12.22 16.61 9.7 15.94 7.17 15.3 C5.34 14.82 5.34 14.82 3.47 14.33 C2.35 14.05 1.22 13.77 0.07 13.49 C-3.6 12.04 -5.51 10.28 -8.03 7.27 C-8.46 4.58 -8.46 4.58 -8.03 2.27 C-5.42 -0.34 -3.55 0.03 0 0 Z " fill="#F4B911" transform="translate(93.02734375,171.734375)"/>
<path d="M0 0 C0.93 -0.01 1.87 -0.02 2.83 -0.03 C8.45 -0 13.42 0.41 18.75 2.25 C19.25 3.73 19.25 3.73 19.75 5.25 C19.09 5.58 18.43 5.91 17.75 6.25 C17.02 8.23 16.35 10.23 15.75 12.25 C14.62 8.5 14.62 8.5 15.75 6.25 C3.87 6.25 -8.01 6.25 -20.25 6.25 C-19.92 8.23 -19.59 10.21 -19.25 12.25 C-21.25 10.25 -21.25 10.25 -21.75 8.19 C-21.92 7.55 -22.08 6.91 -22.25 6.25 C-22.91 5.92 -23.57 5.59 -24.25 5.25 C-23.92 4.26 -23.59 3.27 -23.25 2.25 C-15.49 0.42 -7.94 0.03 0 0 Z " fill="#E4D793" transform="translate(114.25,74.75)"/>
<path d="M0 0 C1.98 0 3.96 0 6 0 C6 0.99 6 1.98 6 3 C5.34 3 4.68 3 4 3 C4.72 5.02 4.72 5.02 6 7 C8.05 7.81 8.05 7.81 10 8 C10 6.02 10 4.04 10 2 C10.66 2 11.32 2 12 2 C12 4.64 12 7.28 12 10 C14.31 10.66 16.62 11.32 19 12 C19.69 13.81 19.69 13.81 20 16 C18.62 17.5 18.62 17.5 17 19 C16.29 21.1 16.29 21.1 16 23 C15.34 22.67 14.68 22.34 14 22 C14.33 21.34 14.66 20.68 15 20 C12.69 20 10.38 20 8 20 C8.99 20.99 9.98 21.98 11 23 C11.33 22.34 11.66 21.68 12 21 C12 21.99 12 22.98 12 24 C13.32 24.33 14.64 24.66 16 25 C16 25.66 16 26.32 16 27 C14.68 26.67 13.36 26.34 12 26 C12 28.31 12 30.62 12 33 C11.34 33 10.68 33 10 33 C10 30.69 10 28.38 10 26 C9.01 26.33 8.02 26.66 7 27 C6.32 25.44 5.66 23.88 5 22.31 C4.63 21.44 4.26 20.57 3.88 19.68 C2.98 16.94 2.84 14.85 3 12 C4.32 11.67 5.64 11.34 7 11 C7 12.65 7 14.3 7 16 C8.32 16.33 9.64 16.66 11 17 C11.33 15.68 11.66 14.36 12 13 C12 14.65 12 16.3 12 18 C12.99 18 13.98 18 15 18 C15.33 16.68 15.66 15.36 16 14 C15.34 13.73 14.67 13.47 13.99 13.2 C11.33 12.13 8.66 11.07 6 10 C5.11 9.67 4.21 9.33 3.29 8.99 C1 8 1 8 -1 6 C-0.62 2.88 -0.62 2.88 0 0 Z " fill="#F5C436" transform="translate(100,189)"/>
<path d="M0 0 C0.66 0 1.32 0 2 0 C1.38 5.54 1.38 5.54 -0.56 7.88 C-1.27 8.43 -1.27 8.43 -2 9 C0.55 7.87 2.31 6.73 4.44 4.88 C7.3 2.78 8.54 2.52 12 3 C13 4 13 4 13.25 6.44 C13.17 7.28 13.09 8.13 13 9 C12.01 9.66 11.02 10.32 10 11 C9.67 9.68 9.34 8.36 9 7 C4.56 7.51 2.38 9.17 -1 12 C-1.66 12 -2.32 12 -3 12 C-2.51 12.99 -2.03 13.98 -1.52 15 C0.17 18.97 0.45 22.71 0.38 27 C0.39 27.67 0.4 28.35 0.41 29.04 C0.38 34.12 -0.68 37.58 -3 42 C-5.12 43 -5.12 43 -7 43 C-8 42 -8 42 -8.07 39.95 C-8.04 39.06 -8.02 38.18 -7.99 37.27 C-7.98 36.3 -7.96 35.33 -7.94 34.34 C-7.9 32.29 -7.85 30.25 -7.79 28.21 C-7.55 21.06 -7.55 21.06 -11 15 C-11.99 14.67 -12.98 14.34 -14 14 C-13.99 14.81 -13.98 15.62 -13.96 16.45 C-13.96 17.52 -13.95 18.59 -13.94 19.69 C-13.93 20.74 -13.91 21.8 -13.9 22.89 C-13.99 25.72 -14.35 28.24 -15 31 C-16.06 29.19 -16.06 29.19 -17 27 C-16.67 26.01 -16.34 25.02 -16 24 C-15.78 21.94 -15.59 19.88 -15.44 17.81 C-15.35 16.73 -15.27 15.64 -15.18 14.52 C-15.09 13.27 -15.09 13.27 -15 12 C-10.48 12.58 -10.48 12.58 -8.42 14.39 C-3.9 21.21 -3.93 28.49 -5.46 36.39 C-6 38.31 -6 38.31 -7 41 C-6.01 41 -5.02 41 -4 41 C-1.03 31.35 -0.64 22.47 -5.12 13.25 C-6.12 10.7 -6.15 8.72 -6 6 C-4.68 6 -3.36 6 -2 6 C-1.67 5.34 -1.34 4.68 -1 4 C-1.66 3.67 -2.32 3.34 -3 3 C-2.01 2.67 -1.02 2.34 0 2 C0 1.34 0 0.68 0 0 Z " fill="#DFE1E2" transform="translate(137,97)"/>
<path d="M0 0 C1.26 -0 2.52 -0 3.81 -0 C5.13 -0 6.45 0 7.8 0.01 C9.1 0 10.39 0 11.73 -0 C25.58 0.01 25.58 0.01 31.68 1.13 C32.34 2.12 33 3.11 33.68 4.13 C33.02 4.13 32.36 4.13 31.68 4.13 C31.35 4.79 31.02 5.45 30.68 6.13 C29.92 6.06 29.15 5.99 28.36 5.91 C16.27 4.87 4.54 4.24 -7.32 7.13 C-9.32 7.48 -11.32 7.82 -13.32 8.13 C-12.99 6.48 -12.66 4.83 -12.32 3.13 C-11.66 3.13 -11 3.13 -10.32 3.13 C-9.99 2.47 -9.66 1.81 -9.32 1.13 C-6 0.03 -3.5 0 0 0 Z " fill="#E8D379" transform="translate(100.3203125,63.8671875)"/>
<path d="M0 0 C1.32 0.33 2.64 0.66 4 1 C3.34 1 2.68 1 2 1 C2.2 2.8 2.44 4.59 2.69 6.38 C2.82 7.37 2.94 8.37 3.07 9.4 C3.76 12.24 3.76 12.24 6.58 13.35 C7.38 13.57 8.18 13.78 9 14 C9 14.99 9 15.98 9 17 C11.34 16.74 13.68 16.41 16 16 C16.33 15.34 16.66 14.68 17 14 C18.65 14 20.3 14 22 14 C22.33 15.32 22.66 16.64 23 18 C20.69 18 18.38 18 16 18 C16 19.32 16 20.64 16 22 C14.35 22 12.7 22 11 22 C11 20.68 11 19.36 11 18 C8.36 18 5.72 18 3 18 C3.33 19.11 3.66 20.23 4 21.38 C5 25 5 25 5 27 C5.99 27.66 6.98 28.32 8 29 C2.07 28.59 -1.38 27.81 -6 24 C-6 23.34 -6 22.68 -6 22 C-4.35 21.34 -2.7 20.68 -1 20 C-1.66 19.67 -2.32 19.34 -3 19 C-3 18.34 -3 17.68 -3 17 C-1.35 16.67 0.3 16.34 2 16 C1.86 15.1 1.71 14.19 1.56 13.26 C1.28 11.49 1.28 11.49 1 9.69 C0.72 7.93 0.72 7.93 0.44 6.14 C0 3 0 3 0 0 Z " fill="#EFDE94" transform="translate(98,154)"/>
<path d="M0 0 C-0.19 2.38 -0.19 2.38 -1 5 C-3.44 6.19 -3.44 6.19 -6 7 C-8.36 9.36 -8.49 10.78 -9 14 C-8.22 13.79 -7.43 13.59 -6.62 13.38 C-5.33 13.19 -5.33 13.19 -4 13 C-3.34 13.66 -2.68 14.32 -2 15 C-2.37 17.93 -2.86 18.86 -5 21 C-7.38 21.44 -7.38 21.44 -10 21 C-13.29 18.15 -13.94 16.39 -14.56 12.06 C-14.31 7.47 -12.39 5.09 -9 2 C-5.74 0.56 -3.56 0 0 0 Z " fill="#0E97F0" transform="translate(108,118)"/>
<path d="M0 0 C3.48 -0.2 6.35 -0.21 9.69 0.88 C14.09 4.92 15.68 10.19 16.35 16.04 C16.53 22.39 15.66 27.24 13 33 C12.01 33 11.02 33 10 33 C10.16 32.11 10.33 31.23 10.5 30.31 C11.63 21.91 12.71 13.54 7.45 6.39 C5.44 4.46 3.76 4 1 4 C0.67 2.68 0.34 1.36 0 0 Z " fill="#FCFDFD" transform="translate(120,105)"/>
<path d="M0 0 C2.64 0 5.28 0 8 0 C8 1.65 8 3.3 8 5 C8.64 5.27 9.28 5.54 9.94 5.81 C12 7 12 7 13 10 C12.67 10.66 12.34 11.32 12 12 C6.72 12 1.44 12 -4 12 C-5 8 -5 8 -4 5 C-3.01 5 -2.02 5 -1 5 C-0.67 3.35 -0.34 1.7 0 0 Z " fill="#F3CD3F" transform="translate(108,32)"/>
<path d="M0 0 C0.66 0.33 1.32 0.66 2 1 C2.41 3.94 2.41 3.94 2.62 7.56 C2.7 8.76 2.77 9.96 2.85 11.19 C2.9 12.12 2.95 13.05 3 14 C3.99 14.33 4.98 14.66 6 15 C6.33 11.37 6.66 7.74 7 4 C7.33 4 7.66 4 8 4 C8.03 5.37 8.05 6.75 8.06 8.12 C8.07 8.89 8.09 9.66 8.1 10.45 C8 13 8 13 7 19 C2.71 18.67 -1.58 18.34 -6 18 C-6.84 10.41 -4.25 6.17 0 0 Z " fill="#EAF3F6" transform="translate(116,130)"/>
<path d="M0 0 C3 1 3 1 4 3 C4.07 4.71 4.08 6.42 4.06 8.12 C4.05 9.04 4.04 9.95 4.04 10.88 C4.02 11.58 4.01 12.28 4 13 C2.68 13 1.36 13 0 13 C0.27 13.85 0.54 14.69 0.81 15.56 C1.05 19.87 -0.16 21.35 -2.68 24.68 C-4 26 -4 26 -6 26 C-6.44 17.27 -5.95 6.88 0 0 Z " fill="#F1F6F8" transform="translate(113,107)"/>
<path d="M0 0 C1.96 -0.08 3.92 -0.14 5.88 -0.19 C7.51 -0.24 7.51 -0.24 9.18 -0.29 C10.11 -0.2 11.04 -0.1 12 0 C14 3 14 3 14 5.44 C12.34 9.68 9.01 11.08 5 12.91 C1.24 14.44 -1.88 15.39 -6 15 C-6 13.68 -6 12.36 -6 11 C-5.31 10.83 -4.63 10.66 -3.92 10.48 C-2.57 10.12 -2.57 10.12 -1.19 9.75 C-0.29 9.52 0.6 9.29 1.52 9.05 C4.38 7.84 5.38 6.6 7 4 C4.69 3.34 2.38 2.68 0 2 C0 1.34 0 0.68 0 0 Z " fill="#F3B90D" transform="translate(124,172)"/>
<path d="M0 0 C0.66 0 1.32 0 2 0 C2 0.66 2 1.32 2 2 C3.32 2 4.64 2 6 2 C6 2.66 6 3.32 6 4 C7.65 4.33 9.3 4.66 11 5 C11.33 5.99 11.66 6.98 12 8 C12.99 8 13.98 8 15 8 C14.67 9.65 14.34 11.3 14 13 C14.66 13 15.32 13 16 13 C16 13.66 16 14.32 16 15 C15.4 14.93 14.79 14.86 14.17 14.78 C13.37 14.69 12.57 14.6 11.75 14.5 C10.96 14.41 10.17 14.31 9.36 14.22 C6.73 13.94 6.73 13.94 3 14 C3 13.34 3 12.68 3 12 C2.01 12 1.02 12 0 12 C0.33 9.69 0.66 7.38 1 5 C0.01 5.33 -0.98 5.66 -2 6 C-1.34 4.02 -0.68 2.04 0 0 Z " fill="#909090" transform="translate(70,199)"/>
<path d="M0 0 C2.31 0 4.62 0 7 0 C6.27 5.42 5.23 10.47 3.62 15.69 C3.39 16.48 3.16 17.26 2.91 18.07 C2.61 18.71 2.31 19.35 2 20 C-1 21 -1 21 -3.19 20.06 C-4.08 19.54 -4.08 19.54 -5 19 C-5 18.34 -5 17.68 -5 17 C-4.01 17 -3.02 17 -2 17 C-2.66 16.67 -3.32 16.34 -4 16 C-4 15.34 -4 14.68 -4 14 C-3.01 14 -2.02 14 -1 14 C-1.66 13.67 -2.32 13.34 -3 13 C-2.01 8.71 -1.02 4.42 0 0 Z " fill="#545454" transform="translate(181,152)"/>
<path d="M0 0 C0.06 0.66 0.12 1.33 0.18 2.01 C0.66 7.39 0.66 7.39 1.62 12.69 C2.15 15.92 1.56 18.8 1 22 C-0.98 22.33 -2.96 22.66 -5 23 C-5.33 15.74 -5.66 8.48 -6 1 C-2 0 -2 0 0 0 Z " fill="#545454" transform="translate(187,125)"/>
<path d="M0 0 C0.66 1.98 1.32 3.96 2 6 C2.66 6 3.32 6 4 6 C4.66 7.98 5.32 9.96 6 12 C5.01 12 4.02 12 3 12 C3.33 12.66 3.66 13.32 4 14 C5.32 13.67 6.64 13.34 8 13 C8.33 14.65 8.66 16.3 9 18 C6.35 19.46 5.11 20 2 20 C1.04 18.11 0.08 16.21 -0.88 14.31 C-1.41 13.26 -1.94 12.2 -2.49 11.11 C-3.79 8.44 -4.94 5.77 -6 3 C-2.25 0 -2.25 0 0 0 Z " fill="#636363" transform="translate(173,94)"/>
<path d="M0 0 C1.65 0.33 3.3 0.66 5 1 C5.62 2.81 5.62 2.81 6 5 C4 8 4 8 1 9 C0.5 9.52 0.01 10.03 -0.5 10.56 C-2 12 -2 12 -5 12 C-6.69 10.5 -6.69 10.5 -8 9 C-7.34 10.65 -6.68 12.3 -6 14 C-7.32 14.33 -8.64 14.66 -10 15 C-12 12 -12 12 -11.9 10.02 C-10.67 7.27 -9.09 6.35 -6.56 4.75 C-5.76 4.23 -4.96 3.71 -4.13 3.17 C-2 2 -2 2 0 2 C0 1.34 0 0.68 0 0 Z " fill="#5E5E5E" transform="translate(158,193)"/>
<path d="M0 0 C2.1 0.09 4.21 0.2 6.31 0.31 C8.07 0.4 8.07 0.4 9.86 0.49 C13 1 13 1 14.88 2.25 C16.29 4.45 16.5 6.09 16.69 8.69 C16.75 9.5 16.82 10.3 16.89 11.14 C16.92 11.75 16.96 12.37 17 13 C14.69 12.67 12.38 12.34 10 12 C9.67 11.01 9.34 10.02 9 9 C8.34 9 7.68 9 7 9 C4.88 7.12 4.88 7.12 3 5 C3 4.34 3 3.68 3 3 C2.01 2.67 1.02 2.34 0 2 C0 1.34 0 0.68 0 0 Z " fill="#F4C83D" transform="translate(74,150)"/>
<path d="M0 0 C0.66 1.98 1.32 3.96 2 6 C-0.65 7.46 -1.89 8 -5 8 C-5.33 7.34 -5.66 6.68 -6 6 C-6.33 6.99 -6.66 7.98 -7 9 C-7.66 9 -8.32 9 -9 9 C-9.33 9.66 -9.66 10.32 -10 11 C-11.98 11 -13.96 11 -16 11 C-16.33 8.69 -16.66 6.38 -17 4 C-14.92 3.33 -12.84 2.66 -10.75 2 C-9.59 1.63 -8.43 1.26 -7.23 0.88 C-4 0 -4 0 0 0 Z " fill="#474747" transform="translate(143,205)"/>
<path d="M0 0 C0.99 0 1.98 0 3 0 C2.87 0.63 2.73 1.26 2.6 1.91 C1.49 7.26 0.6 12.56 0 18 C0.95 17.98 1.9 17.96 2.88 17.94 C6 18 6 18 8 19 C7.67 19.99 7.34 20.98 7 22 C4.17 23.41 2.13 23.32 -1 23 C-3.89 20.06 -4.43 17.81 -4.44 13.75 C-4.31 8.2 -2.85 4.72 0 0 Z " fill="#0C97F0" transform="translate(110,130)"/>
<path d="M0 0 C0.66 0.33 1.32 0.66 2 1 C2 1.33 2 1.66 2 2 C4.64 2.33 7.28 2.66 10 3 C8.5 6.81 6.41 8.78 3 11 C0.19 11.25 0.19 11.25 -2 11 C-2.33 10.01 -2.66 9.02 -3 8 C-3.33 9.32 -3.66 10.64 -4 12 C-2.02 12.99 -0.04 13.98 2 15 C2 15.33 2 15.66 2 16 C-0.88 16.12 -0.88 16.12 -4 16 C-6 14 -6 14 -6.38 10.19 C-6.28 6.02 -5.03 3.94 -2 1 C-1.34 0.67 -0.68 0.34 0 0 Z " fill="#1B9BEF" transform="translate(99,102)"/>
<path d="M0 0 C22.5 -0.25 22.5 -0.25 27 2 C26.67 2.99 26.34 3.98 26 5 C17.42 5 8.84 5 0 5 C-0.33 4.01 -0.66 3.02 -1 2 C-0.67 1.34 -0.34 0.68 0 0 Z " fill="#EED064" transform="translate(99,57)"/>
<path d="M0 0 C0.99 0 1.98 0 3 0 C3 0.66 3 1.32 3 2 C4.65 1.34 6.3 0.68 8 0 C8.33 2.31 8.66 4.62 9 7 C9.66 7 10.32 7 11 7 C11.33 6.01 11.66 5.02 12 4 C12 7.63 12 11.26 12 15 C11.01 13.68 10.02 12.36 9 11 C8.67 11.66 8.34 12.32 8 13 C5.62 13.12 5.62 13.12 3 13 C0.41 10.41 0.63 8.97 0.38 5.38 C0.3 4.37 0.23 3.37 0.15 2.34 C0.1 1.57 0.05 0.79 0 0 Z " fill="#F4C942" transform="translate(100,155)"/>
<path d="M0 0 C0.97 3.12 0.99 5.52 0.56 8.75 C0.46 9.55 0.36 10.35 0.25 11.17 C0.17 11.78 0.09 12.38 0 13 C0.66 13.33 1.32 13.66 2 14 C1.51 14.78 1.51 14.78 1.01 15.58 C-0.31 18.75 -0.19 21.33 -0.12 24.75 C-0.11 25.92 -0.09 27.09 -0.07 28.3 C-0.05 29.19 -0.02 30.08 0 31 C-0.99 30.34 -1.98 29.68 -3 29 C-3.29 26.84 -3.29 26.84 -3.19 24.38 C-3.16 23.56 -3.13 22.74 -3.11 21.9 C-3.07 21.27 -3.04 20.65 -3 20 C-4.65 20 -6.3 20 -8 20 C-7.38 19.71 -6.76 19.42 -6.12 19.12 C-3.87 18.06 -3.87 18.06 -2 16 C-2.32 13.89 -2.32 13.89 -3 12 C-4.65 12 -6.3 12 -8 12 C-8.37 8.69 -8.3 7.39 -6.25 4.69 C-4 3 -4 3 0 3 C0 2.01 0 1.02 0 0 Z " fill="#C7DAE1" transform="translate(107,120)"/>
<path d="M0 0 C2.09 0.43 4.17 0.87 6.25 1.31 C7.41 1.56 8.57 1.8 9.77 2.05 C12.85 2.96 14.62 3.89 17 6 C16.67 6.99 16.34 7.98 16 9 C15.34 9 14.68 9 14 9 C14 9.99 14 10.98 14 12 C14.66 12 15.32 12 16 12 C16 12.66 16 13.32 16 14 C14.02 13.34 12.04 12.68 10 12 C10 9.36 10 6.72 10 4 C9.34 4 8.68 4 8 4 C8.33 6.31 8.66 8.62 9 11 C4.25 10.25 4.25 10.25 2 8 C2 7.01 2 6.02 2 5 C2.66 5 3.32 5 4 5 C4 4.01 4 3.02 4 2 C2.68 2 1.36 2 0 2 C0 1.34 0 0.68 0 0 Z " fill="#F0DB8D" transform="translate(102,187)"/>
<path d="M0 0 C2.64 0 5.28 0 8 0 C8 1.32 8 2.64 8 4 C8.66 4 9.32 4 10 4 C10.33 3.01 10.66 2.02 11 1 C11 1.99 11 2.98 11 4 C11.66 4 12.32 4 13 4 C13 2.68 13 1.36 13 0 C15.64 0 18.28 0 21 0 C20.67 1.32 20.34 2.64 20 4 C17.03 3.5 17.03 3.5 14 3 C13.91 6.83 14.12 10.27 15 14 C12.03 13.5 12.03 13.5 9 13 C9 12.34 9 11.68 9 11 C9.99 10.67 10.98 10.34 12 10 C9.07 9.78 9.07 9.78 7 11 C7.33 9.02 7.66 7.04 8 5 C7.01 5 6.02 5 5 5 C5 4.34 5 3.68 5 3 C3.35 3 1.7 3 0 3 C0 2.01 0 1.02 0 0 Z " fill="#F4CD49" transform="translate(101,172)"/>
<path d="M0 0 C0.99 0 1.98 0 3 0 C3.36 2.77 3.72 5.54 4.06 8.31 C4.22 9.49 4.22 9.49 4.38 10.69 C4.47 11.45 4.56 12.21 4.66 12.99 C4.75 13.68 4.84 14.38 4.93 15.1 C5 17 5 17 4 20 C2 20.04 -0 20.04 -2 20 C-3 19 -3 19 -3.19 16.31 C-2.99 12.84 -2.14 10.27 -1 7 C-0.62 4.67 -0.28 2.34 0 0 Z " fill="#D7C26B" transform="translate(111,11)"/>
<path d="M0 0 C1.32 0 2.64 0 4 0 C4 0.66 4 1.32 4 2 C4.8 2.27 5.61 2.54 6.44 2.81 C7.71 3.4 7.71 3.4 9 4 C9.33 4.99 9.66 5.98 10 7 C10.99 7.33 11.98 7.66 13 8 C12 10 11 12 10 14 C9.34 14 8.68 14 8 14 C8 13.34 8 12.68 8 12 C7.1 11.57 7.1 11.57 6.19 11.12 C4 10 4 10 1 8 C1 7.34 1 6.68 1 6 C0.01 6 -0.98 6 -2 6 C-1.12 1.12 -1.12 1.12 0 0 Z " fill="#6F6F6F" transform="translate(152,78)"/>
<path d="M0 0 C2.38 -0.44 2.38 -0.44 5 0 C7.15 1.64 7.15 1.64 9 4 C9.39 7.02 9.39 7.02 9.25 10.25 C9.21 11.33 9.18 12.41 9.14 13.52 C9.07 14.75 9.07 14.75 9 16 C7.68 16.33 6.36 16.66 5 17 C4.67 14.03 4.34 11.06 4 8 C3.2 7.73 2.39 7.46 1.56 7.19 C0.72 6.8 -0.13 6.4 -1 6 C-1.33 5.01 -1.66 4.02 -2 3 C-1.34 2.01 -0.68 1.02 0 0 Z " fill="#0E96EF" transform="translate(109,84)"/>
<path d="M0 0 C0.33 0.66 0.66 1.32 1 2 C1.99 2 2.98 2 4 2 C7.22 5.09 8.83 8.67 9.39 13.06 C9.52 21.75 9.52 21.75 7 26 C5.35 24.35 3.7 22.7 2 21 C2.66 21 3.32 21 4 21 C4 17.37 4 13.74 4 10 C4.66 10 5.32 10 6 10 C4.17 6.83 4.17 6.83 1 5 C0.34 4.01 -0.32 3.02 -1 2 C-0.67 1.34 -0.34 0.68 0 0 Z " fill="#23A1F0" transform="translate(113,99)"/>
<path d="M0 0 C1.98 0 3.96 0 6 0 C6 0.99 6 1.98 6 3 C5.34 3 4.68 3 4 3 C4.72 5.02 4.72 5.02 6 7 C8.05 7.81 8.05 7.81 10 8 C10 6.02 10 4.04 10 2 C10.66 2 11.32 2 12 2 C12 4.64 12 7.28 12 10 C14.31 10.66 16.62 11.32 19 12 C19.33 13.32 19.66 14.64 20 16 C17.53 16.5 17.53 16.5 15 17 C15.33 16.01 15.66 15.02 16 14 C15.34 13.73 14.67 13.47 13.99 13.2 C11.33 12.13 8.66 11.07 6 10 C5.11 9.67 4.21 9.33 3.29 8.99 C1 8 1 8 -1 6 C-0.62 2.88 -0.62 2.88 0 0 Z " fill="#F4BA17" transform="translate(100,189)"/>
<path d="M0 0 C0.33 0 0.66 0 1 0 C1.19 0.68 1.39 1.35 1.59 2.05 C1.85 2.94 2.11 3.83 2.38 4.75 C2.63 5.63 2.89 6.51 3.15 7.42 C3.92 9.76 4.84 11.83 6 14 C6.66 14 7.32 14 8 14 C8 16.31 8 18.62 8 21 C8.66 21 9.32 21 10 21 C10 18.69 10 16.38 10 14 C11.32 14.33 12.64 14.66 14 15 C14 14.34 14 13.68 14 13 C12.87 12.73 11.73 12.46 10.56 12.19 C8.8 11.6 8.8 11.6 7 11 C6.67 10.01 6.34 9.02 6 8 C8.31 8 10.62 8 13 8 C13.33 8.66 13.66 9.32 14 10 C14 8.68 14 7.36 14 6 C14.66 6 15.32 6 16 6 C15.84 13.28 14.73 17.42 10 23 C7 22 7 22 5.68 19.67 C5.07 18.23 5.07 18.23 4.44 16.75 C4.02 15.8 3.61 14.84 3.18 13.86 C2.79 12.92 2.4 11.97 2 11 C1.62 10.12 1.24 9.25 0.86 8.35 C-0.19 5.47 -0.14 3.04 0 0 Z " fill="#E1DDCC" transform="translate(102,201)"/>
<path d="M0 0 C4 -0.02 8 -0.04 12.01 -0.05 C13.36 -0.06 14.72 -0.07 16.08 -0.08 C18.05 -0.09 20.01 -0.09 21.97 -0.1 C23.15 -0.1 24.33 -0.11 25.54 -0.11 C29.09 0 32.5 0.43 36 1 C36 1.99 36 2.98 36 4 C35.35 3.94 34.69 3.88 34.02 3.82 C32.08 3.64 30.15 3.46 28.22 3.29 C26.08 3.1 23.95 2.89 21.81 2.68 C16.66 2.18 12.08 1.76 7 3 C5.38 3.36 3.75 3.71 2.12 4.06 C0.75 4.37 -0.63 4.69 -2 5 C-1.34 3.35 -0.68 1.7 0 0 Z " fill="#F4C82F" transform="translate(94,64)"/>
<path d="M0 0 C1.98 0.66 3.96 1.32 6 2 C4.12 7.75 4.12 7.75 3 10 C2.34 10 1.68 10 1 10 C1.33 11.32 1.66 12.64 2 14 C-0.38 14.19 -0.38 14.19 -3 14 C-3.66 13.01 -4.32 12.02 -5 11 C-5.66 11 -6.32 11 -7 11 C-6.67 9.35 -6.34 7.7 -6 6 C-4.68 6 -3.36 6 -2 6 C-2 5.01 -2 4.02 -2 3 C-1.01 2.67 -0.02 2.34 1 2 C0.67 1.34 0.34 0.68 0 0 Z " fill="#383838" transform="translate(44,108)"/>
<path d="M0 0 C0.66 0.33 1.32 0.66 2 1 C2 1.66 2 2.32 2 3 C3.65 3 5.3 3 7 3 C6.01 3.33 5.02 3.66 4 4 C4.89 6.36 4.89 6.36 8.06 7.12 C9.52 7.56 9.52 7.56 11 8 C10.5 9.81 10.5 9.81 9 12 C5.2 13.92 1.13 15.01 -3 16 C-3 14 -3 14 -1 11.88 C-0.34 11.26 0.32 10.64 1 10 C0.34 10 -0.32 10 -1 10 C-1 9.34 -1 8.68 -1 8 C-0.34 7.67 0.32 7.34 1 7 C0.67 4.69 0.34 2.38 0 0 Z " fill="#E3E3DD" transform="translate(120,168)"/>
<path d="M0 0 C1.98 0.66 3.96 1.32 6 2 C5.34 6.62 4.68 11.24 4 16 C1.69 16 -0.62 16 -3 16 C-2.25 11.25 -2.25 11.25 0 9 C0.33 10.32 0.66 11.64 1 13 C1 11.02 1 9.04 1 7 C0.34 7 -0.32 7 -1 7 C-1.66 5.35 -2.32 3.7 -3 2 C-2.01 1.34 -1.02 0.68 0 0 Z " fill="#F6D563" transform="translate(110,155)"/>
<path d="M0 0 C0.66 0 1.32 0 2 0 C1.38 5.54 1.38 5.54 -0.56 7.88 C-1.27 8.43 -1.27 8.43 -2 9 C0.55 7.87 2.31 6.73 4.44 4.88 C7.3 2.78 8.54 2.52 12 3 C13 4 13 4 13.25 6.44 C13.17 7.28 13.09 8.13 13 9 C12.01 9.66 11.02 10.32 10 11 C9.67 9.68 9.34 8.36 9 7 C5.62 7.39 4.14 7.88 1.5 10.12 C-1 12 -1 12 -3.81 11.75 C-4.9 11.38 -4.9 11.38 -6 11 C-6 9.35 -6 7.7 -6 6 C-4.68 6 -3.36 6 -2 6 C-1.67 5.34 -1.34 4.68 -1 4 C-1.66 3.67 -2.32 3.34 -3 3 C-2.01 2.67 -1.02 2.34 0 2 C0 1.34 0 0.68 0 0 Z " fill="#DCCA84" transform="translate(137,97)"/>
<path d="M0 0 C4.88 2.62 4.88 2.62 6 6 C6.66 6 7.32 6 8 6 C7.67 7.65 7.34 9.3 7 11 C4.25 11.25 4.25 11.25 1 11 C-0.37 9.71 -1.71 8.38 -3 7 C-4.32 7 -5.64 7 -7 7 C-7.33 7.99 -7.66 8.98 -8 10 C-8.99 9.67 -9.98 9.34 -11 9 C-11.04 7.33 -11.04 5.67 -11 4 C-10.67 3.67 -10.34 3.34 -10 3 C-3.88 3.24 -1.27 4.94 3 9 C2.34 8.01 1.68 7.02 1 6 C0.61 4.01 0.27 2.01 0 0 Z " fill="#E7C755" transform="translate(85,97)"/>
<path d="M0 0 C0.66 0 1.32 0 2 0 C4.52 3.78 4.47 7.62 4 12 C3 14.5 3 14.5 2 16 C1.34 16 0.68 16 0 16 C-0.34 14.71 -0.67 13.42 -1 12.12 C-1.19 11.41 -1.37 10.69 -1.56 9.95 C-2 8 -2 8 -2 6 C-2.33 6.66 -2.66 7.32 -3 8 C-3.99 7.67 -4.98 7.34 -6 7 C-5.34 7 -4.68 7 -4 7 C-3.67 5.68 -3.34 4.36 -3 3 C-2.34 3 -1.68 3 -1 3 C-0.67 2.01 -0.34 1.02 0 0 Z " fill="#ECC545" transform="translate(138,73)"/>
<path d="M0 0 C0.38 1.66 0.71 3.32 1 5 C0.67 5.33 0.34 5.66 0 6 C-2 6 -4 6 -6 6 C-6.99 6.33 -7.98 6.66 -9 7 C-9 6.34 -9 5.68 -9 5 C-9.99 5.5 -9.99 5.5 -11 6 C-11.33 6.99 -11.66 7.98 -12 9 C-15 5.25 -15 5.25 -15 3 C-9.9 1.09 -5.54 -0.43 0 0 Z " fill="#F4C62A" transform="translate(102,69)"/>
<path d="M0 0 C0.99 0.5 0.99 0.5 2 1 C2.06 1.78 2.12 2.57 2.19 3.38 C2.77 6.34 2.77 6.34 6.06 7.62 C7.37 8.1 8.68 8.56 10 9 C11.48 9.56 12.96 10.12 14.44 10.69 C16.2 11.34 16.2 11.34 18 12 C18 15 18 15 17 17 C14.36 16.67 11.72 16.34 9 16 C8 13 8 13 9 10 C7.68 10.33 6.36 10.66 5 11 C5 10.34 5 9.68 5 9 C4.01 9 3.02 9 2 9 C-0.29 5.56 -0.18 4.01 0 0 Z " fill="#EDDEA2" transform="translate(98,190)"/>
<path d="M0 0 C0.33 0.66 0.66 1.32 1 2 C6.61 2.33 12.22 2.66 18 3 C18.33 2.34 18.66 1.68 19 1 C20.32 1.33 21.64 1.66 23 2 C23.33 3.65 23.66 5.3 24 7 C22.96 6.78 22.96 6.78 21.9 6.56 C15.9 5.42 10.04 4.76 3.94 4.69 C2.69 4.67 1.44 4.65 0.15 4.64 C-2.99 4.72 -2.99 4.72 -4.93 6.52 C-5.29 7.01 -5.64 7.5 -6 8 C-5.67 6.02 -5.34 4.04 -5 2 C-4.36 1.86 -3.72 1.71 -3.06 1.56 C-1.02 1.19 -1.02 1.19 0 0 Z " fill="#D6CB99" transform="translate(103,53)"/>
<path d="M0 0 C0 3 0 3 -1.08 5.11 C-3.77 7.76 -5.98 7.81 -9.69 8.25 C-10.87 8.4 -12.05 8.55 -13.26 8.7 C-14.17 8.8 -15.07 8.9 -16 9 C-16 8.34 -16 7.68 -16 7 C-15.01 6.67 -14.02 6.34 -13 6 C-13.66 5.67 -14.32 5.34 -15 5 C-13.26 2.85 -12.34 2.07 -9.59 1.52 C-8.71 1.47 -7.84 1.43 -6.94 1.38 C-3.33 1.21 -3.33 1.21 0 0 Z " fill="#F3C331" transform="translate(148,149)"/>
<path d="M0 0 C5.61 0 11.22 0 17 0 C17.33 1.32 17.66 2.64 18 4 C12.06 4 6.12 4 0 4 C0 2.68 0 1.36 0 0 Z " fill="#F1D960" transform="translate(103,52)"/>
<path d="M0 0 C13.37 0.49 13.37 0.49 27 1 C27 1.66 27 2.32 27 3 C28.65 3 30.3 3 32 3 C32 3.33 32 3.66 32 4 C20.12 3.67 8.24 3.34 -4 3 C-2.68 2.67 -1.36 2.34 0 2 C0 1.34 0 0.68 0 0 Z " fill="#DED5B2" transform="translate(98,61)"/>
<path d="M0 0 C1.48 0.99 1.48 0.99 3 2 C3 2.66 3 3.32 3 4 C3.66 4 4.32 4 5 4 C6.62 6 6.62 6 8 8 C8.66 7.34 9.32 6.68 10 6 C10 7.65 10 9.3 10 11 C10.66 11.33 11.32 11.66 12 12 C11.29 12.5 11.29 12.5 10.56 13 C8.14 16.1 8.32 19.12 8 23 C7.67 23 7.34 23 7 23 C7 20.69 7 18.38 7 16 C5.68 15.67 4.36 15.34 3 15 C4.32 14.67 5.64 14.34 7 14 C7.33 12.68 7.66 11.36 8 10 C7.01 10.33 6.02 10.66 5 11 C4.9 10.38 4.79 9.76 4.69 9.12 C4.12 6.63 4.12 6.63 1 5 C0.34 5.66 -0.32 6.32 -1 7 C-0.67 4.69 -0.34 2.38 0 0 Z " fill="#C2D3CD" transform="translate(85,93)"/>
<path d="M0 0 C4.62 0 9.24 0 14 0 C14 0.99 14 1.98 14 3 C15.32 3.33 16.64 3.66 18 4 C18.33 5.32 18.66 6.64 19 8 C18.01 8.66 17.02 9.32 16 10 C16 8.35 16 6.7 16 5 C14.64 4.91 14.64 4.91 13.26 4.82 C11.49 4.69 11.49 4.69 9.69 4.56 C8.52 4.48 7.34 4.4 6.14 4.32 C3 4 3 4 0 3 C0 2.01 0 1.02 0 0 Z " fill="#CDBF8E" transform="translate(104,44)"/>
<path d="M0 0 C2.31 0 4.62 0 7 0 C6.81 0.6 6.63 1.2 6.44 1.81 C5.78 4.16 5.78 4.16 7 7 C6.01 7.5 6.01 7.5 5 8 C5.66 8.33 6.32 8.66 7 9 C7 9.66 7 10.32 7 11 C4.69 11.33 2.38 11.66 0 12 C0 9.67 0 7.33 0 5 C0.66 5 1.32 5 2 5 C2 4.34 2 3.68 2 3 C1.34 3 0.68 3 0 3 C0 2.01 0 1.02 0 0 Z " fill="#5B5B5B" transform="translate(36,136)"/>
<path d="M0 0 C0.66 0 1.32 0 2 0 C4.04 2.91 5 4.4 5 8 C5.66 8.33 6.32 8.66 7 9 C5.68 8.67 4.36 8.34 3 8 C2.67 9.65 2.34 11.3 2 13 C1.34 13 0.68 13 0 13 C-0.5 10.53 -0.5 10.53 -1 8 C-1.33 9.65 -1.66 11.3 -2 13 C-2.33 13 -2.66 13 -3 13 C-3.45 4.24 -3.45 4.24 0 0 Z " fill="#E7C85C" transform="translate(85,72)"/>
<path d="M0 0 C2.64 0 5.28 0 8 0 C8 1.65 8 3.3 8 5 C8.66 5.33 9.32 5.66 10 6 C8.04 6.22 6.08 6.43 4.12 6.62 C2.49 6.8 2.49 6.8 0.82 6.98 C-0.58 6.99 -0.58 6.99 -2 7 C-2.66 6.34 -3.32 5.68 -4 5 C-3.01 5 -2.02 5 -1 5 C-0.67 3.35 -0.34 1.7 0 0 Z " fill="#D9CD98" transform="translate(108,32)"/>
<path d="M0 0 C2 3.75 2 3.75 2 6 C2.99 6.66 3.98 7.32 5 8 C-0.93 7.59 -4.38 6.81 -9 3 C-9 2.34 -9 1.68 -9 1 C-5.8 -0.07 -3.34 -0.07 0 0 Z " fill="#ECEDEA" transform="translate(101,175)"/>
<path d="M0 0 C3 2 3 2 3.48 4.09 C3.53 4.89 3.57 5.68 3.62 6.5 C3.82 9.88 3.82 9.88 5 13 C-1.92 11 -1.92 11 -4 8 C-4 6.68 -4 5.36 -4 4 C-3.34 3.67 -2.68 3.34 -2 3 C-2 2.34 -2 1.68 -2 1 C-1.34 0.67 -0.68 0.34 0 0 Z " fill="#F2CA4D" transform="translate(96,155)"/>
<path d="M0 0 C1.98 0 3.96 0 6 0 C6 3.3 6 6.6 6 10 C4.02 10.33 2.04 10.66 0 11 C0 7.37 0 3.74 0 0 Z " fill="#383838" transform="translate(182,137)"/>
<path d="M0 0 C-0.75 6.62 -0.75 6.62 -3 10 C-4.98 9.34 -6.96 8.68 -9 8 C-9 7.34 -9 6.68 -9 6 C-8.01 6 -7.02 6 -6 6 C-6.66 5.67 -7.32 5.34 -8 5 C-8 4.34 -8 3.68 -8 3 C-7.01 3 -6.02 3 -5 3 C-5.66 2.67 -6.32 2.34 -7 2 C-7 1.34 -7 0.68 -7 0 C-4.33 -1.33 -2.83 -0.67 0 0 Z " fill="#575757" transform="translate(185,163)"/>
<path d="M0 0 C1.32 0.33 2.64 0.66 4 1 C3.34 1 2.68 1 2 1 C2.31 2.73 2.62 4.46 2.94 6.19 C3.11 7.15 3.29 8.11 3.46 9.11 C3.81 10.98 4.2 12.86 4.62 14.72 C5.08 17.49 4.47 18.66 3 21 C0.83 20.49 -1 20 -3 19 C-3 18.34 -3 17.68 -3 17 C-1.35 16.67 0.3 16.34 2 16 C1.86 15.1 1.71 14.19 1.56 13.26 C1.28 11.49 1.28 11.49 1 9.69 C0.72 7.93 0.72 7.93 0.44 6.14 C0 3 0 3 0 0 Z " fill="#D8D2B6" transform="translate(98,154)"/>
<path d="M0 0 C-1.5 3.81 -3.59 5.78 -7 8 C-9.81 8.25 -9.81 8.25 -12 8 C-11.44 4.74 -10.59 3.09 -8 1 C-5.07 0.02 -3.04 -0.08 0 0 Z " fill="#E1E8E8" transform="translate(109,105)"/>
<path d="M0 0 C0.99 0.66 1.98 1.32 3 2 C3 2.99 3 3.98 3 5 C3.5 5.93 3.5 5.93 4 6.88 C5.19 9.4 5.15 11.25 5 14 C3 12.62 3 12.62 1 11 C1 10.34 1 9.68 1 9 C0.34 9 -0.32 9 -1 9 C-2.38 7.37 -3.72 5.71 -5 4 C-4.67 3.34 -4.34 2.68 -4 2 C-3.01 2 -2.02 2 -1 2 C-0.67 1.34 -0.34 0.68 0 0 Z " fill="#EEC736" transform="translate(89,88)"/>
<path d="M0 0 C0.66 0 1.32 0 2 0 C1.89 1.44 1.76 2.88 1.62 4.31 C1.56 5.11 1.49 5.91 1.41 6.74 C1 9 1 9 -1 12 C-2.98 11.34 -4.96 10.68 -7 10 C-7 8 -7 8 -5.12 5.88 C-3 4 -3 4 -1 4 C-0.67 2.68 -0.34 1.36 0 0 Z " fill="#434343" transform="translate(68,191)"/>
<path d="M0 0 C-0.33 0.66 -0.66 1.32 -1 2 C-0.34 2 0.32 2 1 2 C1.66 3.98 2.32 5.96 3 8 C1.02 8.66 -0.96 9.32 -3 10 C-3 8 -3 8 -1.5 6.38 C-1.01 5.92 -0.51 5.47 0 5 C-1.65 5.33 -3.3 5.66 -5 6 C-5.33 4.02 -5.66 2.04 -6 0 C-3 -1 -3 -1 0 0 Z " fill="#3E3E3E" transform="translate(46,164)"/>
<path d="M0 0 C-0.33 0.66 -0.66 1.32 -1 2 C-0.67 2.99 -0.34 3.98 0 5 C-0.33 5.99 -0.66 6.98 -1 8 C-2.98 8 -4.96 8 -7 8 C-7.33 5.69 -7.66 3.38 -8 1 C-5.07 0.02 -3.04 -0.08 0 0 Z " fill="#757575" transform="translate(134,208)"/>
<path d="M0 0 C1.32 0 2.64 0 4 0 C4 0.99 4 1.98 4 3 C4.99 3 5.98 3 7 3 C7 3.99 7 4.98 7 6 C6.34 6 5.68 6 5 6 C5 6.99 5 7.98 5 9 C3.12 11.06 3.12 11.06 1 13 C0.34 13.66 -0.32 14.32 -1 15 C-1.5 8.88 -0.25 5.98 3 1 C2.01 0.67 1.02 0.34 0 0 Z " fill="#F0C533" transform="translate(131,88)"/>
<path d="M0 0 C0.99 0.33 1.98 0.66 3 1 C3 2.32 3 3.64 3 5 C3.99 5 4.98 5 6 5 C6 5.66 6 6.32 6 7 C3.94 7.34 1.88 7.67 -0.19 8 C-1.91 8.28 -1.91 8.28 -3.67 8.56 C-6.5 8.93 -9.15 9.09 -12 9 C-12.33 8.01 -12.66 7.02 -13 6 C-12.01 6 -11.02 6 -10 6 C-10 6.66 -10 7.32 -10 8 C-9.34 8 -8.68 8 -8 8 C-7.67 7.34 -7.34 6.68 -7 6 C-5.02 6 -3.04 6 -1 6 C-1.02 5.2 -1.04 4.39 -1.06 3.56 C-1 1 -1 1 0 0 Z " fill="#EFCB48" transform="translate(103,68)"/>
<path d="M0 0 C-1.61 3.22 -4.79 3.65 -8 5 C-8.66 5.66 -9.32 6.32 -10 7 C-10.33 6.67 -10.66 6.34 -11 6 C-11.99 9.96 -12.98 13.92 -14 18 C-14.66 17.34 -15.32 16.68 -16 16 C-15.67 15.67 -15.34 15.34 -15 15 C-14.79 13.53 -14.63 12.05 -14.5 10.56 C-14.11 6.22 -14.11 6.22 -13 4 C-13.99 3.67 -14.98 3.34 -16 3 C-15.11 3.06 -14.23 3.12 -13.31 3.19 C-8.15 2.9 -5.4 -0.46 0 0 Z " fill="#D7D5C7" transform="translate(136,151)"/>
<path d="M0 0 C0.66 2.31 1.32 4.62 2 7 C-1 9 -1 9 -4 9 C-4.66 6.36 -5.32 3.72 -6 1 C-2 0 -2 0 0 0 Z " fill="#313131" transform="translate(184,116)"/>
<path d="M0 0 C4.04 1.35 4.9 3.38 7 7 C7 7.99 7 8.98 7 10 C4.69 10.69 4.69 10.69 2 11 C0.19 9.69 0.19 9.69 -1 8 C-1 7.34 -1 6.68 -1 6 C1.47 6.99 1.47 6.99 4 8 C3.34 7.01 2.68 6.02 2 5 C0.68 5 -0.64 5 -2 5 C-1.12 1.12 -1.12 1.12 0 0 Z " fill="#2A2A2A" transform="translate(69,74)"/>
<path d="M0 0 C1 3 1 3 0 6 C0.99 6 1.98 6 3 6 C3 4.02 3 2.04 3 0 C3.33 0.66 3.66 1.32 4 2 C4.99 2 5.98 2 7 2 C6.67 3.65 6.34 5.3 6 7 C6.66 7 7.32 7 8 7 C8 7.66 8 8.32 8 9 C4.7 8.67 1.4 8.34 -2 8 C-2.33 6.68 -2.66 5.36 -3 4 C-1.56 1.75 -1.56 1.75 0 0 Z " fill="#DADADA" transform="translate(78,205)"/>
<path d="M0 0 C0.66 0 1.32 0 2 0 C2 0.66 2 1.32 2 2 C4.97 1.34 7.94 0.68 11 0 C11 2.31 11 4.62 11 7 C10.01 7 9.02 7 8 7 C8 6.01 8 5.02 8 4 C3.54 4.5 3.54 4.5 -1 5 C-0.67 3.35 -0.34 1.7 0 0 Z " fill="#DBD0A7" transform="translate(141,112)"/>
<path d="M0 0 C1.98 0.66 3.96 1.32 6 2 C5.19 4.94 5.19 4.94 4 8 C1 9 1 9 -1.19 8.06 C-1.79 7.71 -2.38 7.36 -3 7 C-2.69 5.06 -2.69 5.06 -2 3 C-1.01 2.67 -0.02 2.34 1 2 C0.67 1.34 0.34 0.68 0 0 Z " fill="#545454" transform="translate(44,108)"/>
<path d="M0 0 C1.94 0.75 1.94 0.75 4 2 C4.75 4.12 4.75 4.12 5 6 C4.01 6 3.02 6 2 6 C2 6.99 2 7.98 2 9 C0.68 8.67 -0.64 8.34 -2 8 C-2.5 5.53 -2.5 5.53 -3 3 C-2.34 3 -1.68 3 -1 3 C-0.67 2.01 -0.34 1.02 0 0 Z " fill="#525252" transform="translate(167,184)"/>
<path d="M0 0 C2.72 0.38 3.84 0.84 5.81 2.81 C7 5 7 5 6.69 7.25 C6.46 7.83 6.23 8.41 6 9 C5.01 9 4.02 9 3 9 C3 8.34 3 7.68 3 7 C2.01 7 1.02 7 0 7 C0.33 6.01 0.66 5.02 1 4 C1.66 4 2.32 4 3 4 C3 3.34 3 2.68 3 2 C1.35 2.66 -0.3 3.32 -2 4 C-1.34 2.68 -0.68 1.36 0 0 Z " fill="#383838" transform="translate(62,80)"/>
<path d="M0 0 C1.65 0.33 3.3 0.66 5 1 C5.04 3 5.04 5 5 7 C4 8 4 8 0.94 8.06 C-0.03 8.04 -1 8.02 -2 8 C-1.34 5.36 -0.68 2.72 0 0 Z " fill="#525252" transform="translate(95,210)"/>
<path d="M0 0 C0.33 0.66 0.66 1.32 1 2 C2.95 2.59 2.95 2.59 5 3 C5.66 3.33 6.32 3.66 7 4 C6.67 4.99 6.34 5.98 6 7 C1.95 7.98 -1.84 8.08 -6 8 C-4.68 7.34 -3.36 6.68 -2 6 C-2 4.68 -2 3.36 -2 2 C-1.34 2 -0.68 2 0 2 C0 1.34 0 0.68 0 0 Z " fill="#F4DD87" transform="translate(94,164)"/>
<path d="M0 0 C-0.51 2.17 -1 4 -2 6 C-5.06 6.62 -5.06 6.62 -8 7 C-8 5.02 -8 3.04 -8 1 C-5.07 0.02 -3.04 -0.08 0 0 Z " fill="#F4C637" transform="translate(140,158)"/>
<path d="M0 0 C0.66 0.33 1.32 0.66 2 1 C2 4.96 2 8.92 2 13 C-2.9 8.1 -2.9 8.1 -3 4 C-1.56 1.69 -1.56 1.69 0 0 Z " fill="#E6E8E8" transform="translate(116,130)"/>
<path d="M0 0 C1.32 0 2.64 0 4 0 C4 0.66 4 1.32 4 2 C4.66 2 5.32 2 6 2 C5.67 3.32 5.34 4.64 5 6 C4.34 6 3.68 6 3 6 C3 6.66 3 7.32 3 8 C2.34 8 1.68 8 1 8 C1 7.34 1 6.68 1 6 C0.01 6 -0.98 6 -2 6 C-1.12 1.12 -1.12 1.12 0 0 Z " fill="#3F3F3F" transform="translate(152,78)"/>
<path d="M0 0 C1.32 0.66 2.64 1.32 4 2 C2.78 3.51 2.78 3.51 1 5 C-1.08 5.16 -1.08 5.16 -3.45 4.86 C-4.3 4.76 -5.14 4.66 -6.02 4.55 C-6.9 4.43 -7.78 4.31 -8.69 4.19 C-9.58 4.08 -10.47 3.97 -11.39 3.86 C-13.6 3.59 -15.8 3.3 -18 3 C-18 2.67 -18 2.34 -18 2 C-15.94 1.78 -13.88 1.57 -11.81 1.38 C-10.66 1.26 -9.52 1.14 -8.33 1.02 C-4.97 1 -2.99 1.53 0 3 C0 2.01 0 1.02 0 0 Z " fill="#E4D48D" transform="translate(130,65)"/>
<path d="M0 0 C1.79 -0.03 3.58 -0.05 5.38 -0.06 C6.37 -0.07 7.37 -0.09 8.4 -0.1 C11 0 11 0 13 1 C12.67 1.99 12.34 2.98 12 4 C8.04 3.67 4.08 3.34 0 3 C0 2.01 0 1.02 0 0 Z " fill="#F4CB35" transform="translate(113,58)"/>
<path d="M0 0 C1.23 2.46 1.07 4.28 1 7 C0.01 7 -0.98 7 -2 7 C-2 7.66 -2 8.32 -2 9 C-2.99 9.5 -2.99 9.5 -4 10 C-4 11.32 -4 12.64 -4 14 C-5.32 13.67 -6.64 13.34 -8 13 C-7.19 10.56 -7.19 10.56 -6 8 C-5.01 7.67 -4.02 7.34 -3 7 C-3 6.01 -3 5.02 -3 4 C-2.34 4 -1.68 4 -1 4 C-0.67 2.68 -0.34 1.36 0 0 Z " fill="#DFDDCB" transform="translate(139,90)"/>
<path d="M0 0 C0.66 1.65 1.32 3.3 2 5 C0.35 6.32 -1.3 7.64 -3 9 C-4.56 7.19 -4.56 7.19 -6 5 C-4.87 1.62 -3.79 0 0 0 Z " fill="#676767" transform="translate(173,94)"/>
<path d="M0 0 C1.98 0.66 3.96 1.32 6 2 C5.34 3.98 4.68 5.96 4 8 C2.35 7.67 0.7 7.34 -1 7 C-0.67 4.69 -0.34 2.38 0 0 Z " fill="#5D5D5D" transform="translate(88,208)"/>
<path d="M0 0 C2 0.81 2 0.81 3.25 2.88 C3.5 3.51 3.75 4.15 4 4.81 C2 4.81 2 4.81 0.38 3.31 C-0.08 2.82 -0.53 2.32 -1 1.81 C-0.34 3.46 0.32 5.11 1 6.81 C-0.32 7.14 -1.64 7.47 -3 7.81 C-5 4.81 -5 4.81 -4.75 2.69 C-3.71 0.08 -2.76 -0.26 0 0 Z " fill="#383838" transform="translate(151,200.1875)"/>
<path d="M0 0 C0.99 0 1.98 0 3 0 C3 4.29 3 8.58 3 13 C1.68 12.67 0.36 12.34 -1 12 C-0.67 8.04 -0.34 4.08 0 0 Z " fill="#0391F0" transform="translate(119,132)"/>
<path d="M0 0 C1.65 0 3.3 0 5 0 C6.06 1.88 6.06 1.88 7 4 C6.67 4.66 6.34 5.32 6 6 C3.69 6 1.38 6 -1 6 C-0.67 4.02 -0.34 2.04 0 0 Z " fill="#4C4C4C" transform="translate(37,128)"/>
<path d="M0 0 C1.12 3.75 1.12 3.75 0 6 C-2.21 6.82 -2.21 6.82 -4.94 7.56 C-8.56 8.55 -8.56 8.55 -12 10 C-12.33 8.68 -12.66 7.36 -13 6 C-12.31 5.82 -11.63 5.64 -10.92 5.45 C-10.02 5.2 -9.12 4.95 -8.19 4.69 C-7.29 4.44 -6.4 4.2 -5.48 3.95 C-2.95 2.98 -1.73 2.05 0 0 Z " fill="#D8E0E0" transform="translate(109,112)"/>
<path d="M0 0 C0.99 0 1.98 0 3 0 C1.98 5.47 0.93 10.76 -1 16 C-2.8 13.34 -3.03 12.22 -2.54 8.98 C-2.24 7.92 -1.94 6.85 -1.62 5.75 C-1.33 4.67 -1.03 3.59 -0.73 2.48 C-0.49 1.66 -0.25 0.84 0 0 Z " fill="#0593F0" transform="translate(110,130)"/>
<path d="M0 0 C3.16 1.37 3.99 1.99 6 5 C4 4 2 3 0 2 C0.33 4.64 0.66 7.28 1 10 C0.34 10 -0.32 10 -1 10 C-1 9.01 -1 8.02 -1 7 C-1.66 7 -2.32 7 -3 7 C-3 7.66 -3 8.32 -3 9 C-3.66 9 -4.32 9 -5 9 C-4.67 7.35 -4.34 5.7 -4 4 C-3.34 4 -2.68 4 -2 4 C-1.34 2.68 -0.68 1.36 0 0 Z " fill="#3E3E3E" transform="translate(59,87)"/>
<path d="M0 0 C0.99 0 1.98 0 3 0 C3 1.65 3 3.3 3 5 C4.32 5.33 5.64 5.66 7 6 C7.33 4.68 7.66 3.36 8 2 C8.33 3.98 8.66 5.96 9 8 C7.52 7.86 6.04 7.71 4.56 7.56 C3.74 7.48 2.92 7.4 2.07 7.32 C0 7 0 7 -1 6 C-1.12 3.5 -1.12 3.5 -1 1 C-0.67 0.67 -0.34 0.34 0 0 Z " fill="#F4BC1C" transform="translate(104,200)"/>
<path d="M0 0 C-0.33 0.99 -0.66 1.98 -1 3 C-0.01 3.66 0.98 4.32 2 5 C0.69 7 0.69 7 -1 9 C-1.99 9 -2.98 9 -4 9 C-4.66 6.69 -5.32 4.38 -6 2 C-2.25 0 -2.25 0 0 0 Z " fill="#434343" transform="translate(50,173)"/>
<path d="M0 0 C0.33 0.66 0.66 1.32 1 2 C2.98 2 4.96 2 7 2 C7.56 3.94 7.56 3.94 8 6 C7 7 7 7 4 7.12 C1 7 1 7 0 6 C-0.04 4 -0.04 2 0 0 Z " fill="#E7D172" transform="translate(108,24)"/>
<path d="M0 0 C0.33 0.99 0.66 1.98 1 3 C3.02 3.73 3.02 3.73 5 4 C5 4.66 5 5.32 5 6 C3.68 5.67 2.36 5.34 1 5 C1 7.31 1 9.62 1 12 C0.34 12 -0.32 12 -1 12 C-1 9.69 -1 7.38 -1 5 C-1.99 5.33 -2.98 5.66 -4 6 C-3.67 4.68 -3.34 3.36 -3 2 C-2.01 2.33 -1.02 2.66 0 3 C0 2.01 0 1.02 0 0 Z " fill="#F5CD4F" transform="translate(111,210)"/>
<path d="M0 0 C2.1 0.06 4.21 0.15 6.31 0.25 C7.48 0.3 8.66 0.34 9.86 0.39 C13 1 13 1 16 5 C8.58 4.01 8.58 4.01 1 3 C0.67 2.01 0.34 1.02 0 0 Z " fill="#F2BB22" transform="translate(74,150)"/>
<path d="M0 0 C3.63 0 7.26 0 11 0 C10.67 0.99 10.34 1.98 10 3 C6.04 3.66 2.08 4.32 -2 5 C-1.34 3.35 -0.68 1.7 0 0 Z " fill="#F0C842" transform="translate(94,64)"/>
<path d="M0 0 C0.66 0.33 1.32 0.66 2 1 C4.33 1.04 6.67 1.04 9 1 C9.33 1.99 9.66 2.98 10 4 C6.56 6.17 4.87 5.85 1 5 C-1.73 5.38 -1.73 5.38 -4 6 C-4 5.34 -4 4.68 -4 4 C-2.68 3.34 -1.36 2.68 0 2 C0 1.34 0 0.68 0 0 Z " fill="#DCDFDB" transform="translate(107,151)"/>
<path d="M0 0 C1.32 1.32 2.64 2.64 4 4 C2.27 7.45 -0.28 10.28 -3 13 C-2.48 10.24 -1.89 7.67 -1 5 C-1.66 4.67 -2.32 4.34 -3 4 C-2.01 2.68 -1.02 1.36 0 0 Z " fill="#29A3F1" transform="translate(114,125)"/>
<path d="M0 0 C4.75 0.88 4.75 0.88 7 2 C7 2.66 7 3.32 7 4 C6.01 4.5 6.01 4.5 5 5 C5 5.66 5 6.32 5 7 C2.03 6.5 2.03 6.5 -1 6 C-0.67 4.02 -0.34 2.04 0 0 Z " fill="#3D3D3D" transform="translate(47,101)"/>
<path d="M0 0 C0.33 0.99 0.66 1.98 1 3 C2.32 3 3.64 3 5 3 C5.33 4.98 5.66 6.96 6 9 C4.02 9.99 4.02 9.99 2 11 C2 10.34 2 9.68 2 9 C2.66 9 3.32 9 4 9 C3.67 8.34 3.34 7.68 3 7 C1.68 7 0.36 7 -1 7 C-0.67 4.69 -0.34 2.38 0 0 Z " fill="#F3B910" transform="translate(88,78)"/>
<path d="M0 0 C1.64 3.28 0.52 6.43 0 10 C0.66 10.33 1.32 10.66 2 11 C1.01 11.5 1.01 11.5 0 12 C0 12.66 0 13.32 0 14 C0.66 14 1.32 14 2 14 C2.33 13.01 2.66 12.02 3 11 C4.32 11.33 5.64 11.66 7 12 C6.01 12.33 5.02 12.66 4 13 C4 13.66 4 14.32 4 15 C2.35 15 0.7 15 -1 15 C-2.37 10.28 -1.89 5.77 -1 1 C-0.67 0.67 -0.34 0.34 0 0 Z " fill="#F4C22A" transform="translate(128,155)"/>
<path d="M0 0 C3.27 0.56 4.83 1.5 7 4 C6.01 5.49 6.01 5.49 5 7 C5.33 7.66 5.66 8.32 6 9 C5.34 9 4.68 9 4 9 C4 9.66 4 10.32 4 11 C4.66 11.33 5.32 11.66 6 12 C5.01 12 4.02 12 3 12 C2.87 11.3 2.73 10.6 2.6 9.88 C2.33 8.52 2.33 8.52 2.06 7.12 C1.89 6.22 1.71 5.32 1.54 4.38 C1.1 2 1.1 2 0 0 Z " fill="#F6DC7A" transform="translate(88,152)"/>
<path d="M0 0 C0.33 0.66 0.66 1.32 1 2 C-7.43 4.43 -7.43 4.43 -12 3 C-11 1 -11 1 -9.38 0.38 C-6.23 -0.12 -3.17 -0.06 0 0 Z " fill="#028FF1" transform="translate(112,101)"/>
<path d="M0 0 C2 1.75 2 1.75 4 4 C4 5.32 4 6.64 4 8 C3.01 8.33 2.02 8.66 1 9 C-0.65 7.02 -2.3 5.04 -4 3 C-2.68 2.01 -1.36 1.02 0 0 Z " fill="#818181" transform="translate(154,196)"/>
<path d="M0 0 C0 0.99 0 1.98 0 3 C-1.62 4.62 -3.58 4.32 -5.81 4.5 C-8.98 4.76 -11.93 5.14 -15 6 C-13.82 4.04 -13.82 4.04 -12 2 C-9.59 1.43 -9.59 1.43 -6.94 1.31 C-3.33 1.19 -3.33 1.19 0 0 Z " fill="#F3BA1C" transform="translate(148,149)"/>
<path d="M0 0 C0.99 0 1.98 0 3 0 C3.96 2.88 4.11 4.7 4.06 7.69 C4.05 8.5 4.04 9.3 4.04 10.14 C4.02 10.75 4.01 11.37 4 12 C3.67 12 3.34 12 3 12 C2.67 9.69 2.34 7.38 2 5 C1.67 5 1.34 5 1 5 C0.67 7.97 0.34 10.94 0 14 C-0.33 14 -0.66 14 -1 14 C-1.03 12.23 -1.05 10.46 -1.06 8.69 C-1.07 7.7 -1.09 6.72 -1.1 5.7 C-1 3 -1 3 0 0 Z " fill="#36A9EB" transform="translate(119,128)"/>
<path d="M0 0 C2.12 0.38 2.12 0.38 4 1 C3.34 2.98 2.68 4.96 2 7 C0.68 6.67 -0.64 6.34 -2 6 C-2 2 -2 2 0 0 Z " fill="#3C3C3C" transform="translate(60,191)"/>
<path d="M0 0 C1.98 0.66 3.96 1.32 6 2 C5.67 3.65 5.34 5.3 5 7 C4.01 7.33 3.02 7.66 2 8 C1.34 7.67 0.68 7.34 0 7 C0 6.34 0 5.68 0 5 C-0.66 4.67 -1.32 4.34 -2 4 C-0.68 4 0.64 4 2 4 C1.34 2.68 0.68 1.36 0 0 Z " fill="#383838" transform="translate(172,176)"/>
<path d="M0 0 C2.97 0.33 5.94 0.66 9 1 C9 2.32 9 3.64 9 5 C5.62 4.75 5.62 4.75 2 4 C1.34 2.68 0.68 1.36 0 0 Z " fill="#F5C431" transform="translate(82,158)"/>
<path d="M0 0 C0 2.31 0 4.62 0 7 C-1.98 7 -3.96 7 -6 7 C-5.37 3.36 -4.15 0 0 0 Z " fill="#F9F7F5" transform="translate(106,124)"/>
<path d="M0 0 C1.67 -0.04 3.33 -0.04 5 0 C6 1 6 1 6.25 3.44 C6.17 4.28 6.09 5.13 6 6 C5.01 6.66 4.02 7.32 3 8 C2.9 7.36 2.79 6.72 2.69 6.06 C2.46 5.38 2.23 4.7 2 4 C1.01 3.67 0.02 3.34 -1 3 C-0.67 2.01 -0.34 1.02 0 0 Z " fill="#EEB923" transform="translate(144,100)"/>
<path d="M0 0 C1.48 0.99 1.48 0.99 3 2 C3 2.66 3 3.32 3 4 C3.66 4 4.32 4 5 4 C7 7 7 7 6.62 9.19 C6.42 9.79 6.21 10.38 6 11 C5.34 10.67 4.68 10.34 4 10 C4 9.01 4 8.02 4 7 C3.01 6.34 2.02 5.68 1 5 C0.34 5.66 -0.32 6.32 -1 7 C-0.67 4.69 -0.34 2.38 0 0 Z " fill="#DFDFD8" transform="translate(85,93)"/>
<path d="M0 0 C0.66 0.33 1.32 0.66 2 1 C2 2.98 2 4.96 2 7 C-1.88 6.12 -1.88 6.12 -3 5 C-3 6.32 -3 7.64 -3 9 C-2.34 9.33 -1.68 9.66 -1 10 C-2.32 10 -3.64 10 -5 10 C-4.67 7.69 -4.34 5.38 -4 3 C-2.68 3 -1.36 3 0 3 C0 2.01 0 1.02 0 0 Z " fill="#F4B90D" transform="translate(135,78)"/>
<path d="M0 0 C0.38 1.66 0.71 3.32 1 5 C0 6 0 6 -3.06 6.06 C-4.03 6.04 -5 6.02 -6 6 C-5.01 5.34 -4.02 4.68 -3 4 C-4.32 3.67 -5.64 3.34 -7 3 C-7 2.34 -7 1.68 -7 1 C-4.51 0.31 -2.62 0 0 0 Z " fill="#3F3F3F" transform="translate(43,149)"/>
<path d="M0 0 C2.06 0.44 2.06 0.44 4 1 C4 3.31 4 5.62 4 8 C3.01 8 2.02 8 1 8 C1 6.35 1 4.7 1 3 C0.01 3.99 -0.98 4.98 -2 6 C-1.12 1.12 -1.12 1.12 0 0 Z " fill="#3C3C3C" transform="translate(77,203)"/>
<path d="M0 0 C0.66 0 1.32 0 2 0 C2 0.66 2 1.32 2 2 C2.99 2 3.98 2 5 2 C4.67 3.98 4.34 5.96 4 8 C3.01 8 2.02 8 1 8 C0.67 7.01 0.34 6.02 0 5 C-0.99 5.5 -0.99 5.5 -2 6 C-1.34 4.02 -0.68 2.04 0 0 Z " fill="#343434" transform="translate(70,199)"/>
<path d="M0 0 C1.21 0.03 1.21 0.03 2.44 0.06 C2.77 0.72 3.1 1.38 3.44 2.06 C2.45 2.72 1.46 3.38 0.44 4.06 C0.11 5.05 -0.22 6.04 -0.56 7.06 C-1.55 6.73 -2.54 6.4 -3.56 6.06 C-3.61 4.4 -3.6 2.73 -3.56 1.06 C-2.56 0.06 -2.56 0.06 0 0 Z " fill="#EFB71A" transform="translate(77.5625,99.9375)"/>
<path d="M0 0 C1.98 0 3.96 0 6 0 C5.67 0.66 5.34 1.32 5 2 C5.66 2.33 6.32 2.66 7 3 C7 3.66 7 4.32 7 5 C4.69 5.33 2.38 5.66 0 6 C0 4 0 2 0 0 Z " fill="#313131" transform="translate(36,142)"/>
<path d="M0 0 C0.99 0.33 1.98 0.66 3 1 C3.33 1.99 3.66 2.98 4 4 C3.2 4.29 2.39 4.58 1.56 4.88 C-1.13 5.73 -1.13 5.73 -2 8 C-2.69 5.69 -2.69 5.69 -3 3 C-1.56 1.19 -1.56 1.19 0 0 Z " fill="#757575" transform="translate(174,99)"/>
<path d="M0 0 C0.99 0.33 1.98 0.66 3 1 C3 2.32 3 3.64 3 5 C2.34 5 1.68 5 1 5 C1 6.98 1 8.96 1 11 C1.66 11.33 2.32 11.66 3 12 C2.01 12.33 1.02 12.66 0 13 C-0.33 13.66 -0.66 14.32 -1 15 C-0.86 13.21 -0.71 11.42 -0.56 9.62 C-0.44 8.13 -0.44 8.13 -0.32 6.6 C0 4 0 4 1 2 C0.34 1.67 -0.32 1.34 -1 1 C-0.67 0.67 -0.34 0.34 0 0 Z " fill="#F4C535" transform="translate(115,155)"/>
<path d="M0 0 C1.32 0 2.64 0 4 0 C4 2.31 4 4.62 4 7 C3.01 7 2.02 7 1 7 C0.67 4.69 0.34 2.38 0 0 Z " fill="#373737" transform="translate(121,210)"/>
<path d="M0 0 C0.99 1.32 1.98 2.64 3 4 C3.66 3.67 4.32 3.34 5 3 C5 4.32 5 5.64 5 7 C2.69 7 0.38 7 -2 7 C-1.12 2.25 -1.12 2.25 0 0 Z " fill="#F6D96C" transform="translate(109,164)"/>
<path d="M0 0 C1 3 1 3 0.06 5.19 C-0.46 6.08 -0.46 6.08 -1 7 C-3.17 6.49 -5 6 -7 5 C-7 4.34 -7 3.68 -7 3 C-5.55 2.54 -5.55 2.54 -4.06 2.06 C-1.16 1.3 -1.16 1.3 0 0 Z " fill="#DFD9C1" transform="translate(102,168)"/>
<path d="M0 0 C2.31 0 4.62 0 7 0 C6.67 2.31 6.34 4.62 6 7 C5.67 5.68 5.34 4.36 5 3 C3.35 2.67 1.7 2.34 0 2 C0 1.34 0 0.68 0 0 Z " fill="#6E6E6E" transform="translate(181,152)"/>
<path d="M0 0 C2.31 0.33 4.62 0.66 7 1 C6.67 1.99 6.34 2.98 6 4 C3.29 5.35 0.99 5.07 -2 5 C-2 4.34 -2 3.68 -2 3 C-0.35 2.67 1.3 2.34 3 2 C2.01 1.34 1.02 0.68 0 0 Z " fill="#1E9AEF" transform="translate(111,148)"/>
<path d="M0 0 C2.64 0 5.28 0 8 0 C8 0.99 8 1.98 8 3 C5.03 3 2.06 3 -1 3 C-0.67 2.01 -0.34 1.02 0 0 Z " fill="#F1D658" transform="translate(108,32)"/>
<path d="M0 0 C0.66 0 1.32 0 2 0 C2 3.63 2 7.26 2 11 C1.01 11 0.02 11 -1 11 C-0.67 7.37 -0.34 3.74 0 0 Z " fill="#F0BC22" transform="translate(111,11)"/>
<path d="M0 0 C0.66 0.33 1.32 0.66 2 1 C1.01 2.49 1.01 2.49 0 4 C1.65 3.67 3.3 3.34 5 3 C5 3.66 5 4.32 5 5 C3.02 5.66 1.04 6.32 -1 7 C-1.66 6.34 -2.32 5.68 -3 5 C-3 4.01 -3 3.02 -3 2 C-2.01 1.34 -1.02 0.68 0 0 Z " fill="#2B2B2B" transform="translate(55,185)"/>
<path d="M0 0 C2.64 0 5.28 0 8 0 C7.67 1.32 7.34 2.64 7 4 C4.69 3.67 2.38 3.34 0 3 C0 2.01 0 1.02 0 0 Z " fill="#F3C526" transform="translate(114,172)"/>
<path d="M0 0 C0.33 0.66 0.66 1.32 1 2 C1.99 2 2.98 2 4 2 C8 7.26 8 7.26 8 10 C7.34 10 6.68 10 6 10 C5.34 9.01 4.68 8.02 4 7 C3.01 6.34 2.02 5.68 1 5 C0.34 4.01 -0.32 3.02 -1 2 C-0.67 1.34 -0.34 0.68 0 0 Z " fill="#33A8F1" transform="translate(113,99)"/>
<path d="M0 0 C1.32 0 2.64 0 4 0 C4.66 1.98 5.32 3.96 6 6 C4.68 6 3.36 6 2 6 C1.34 4.02 0.68 2.04 0 0 Z " fill="#323232" transform="translate(139,205)"/>
<path d="M0 0 C1.65 0 3.3 0 5 0 C4.67 0.66 4.34 1.32 4 2 C4.33 2.99 4.66 3.98 5 5 C4.67 5.99 4.34 6.98 4 8 C3.34 8 2.68 8 2 8 C0.74 5.09 0 3.2 0 0 Z " fill="#656565" transform="translate(129,208)"/>
<path d="M0 0 C2.64 0 5.28 0 8 0 C7.67 1.32 7.34 2.64 7 4 C4.69 3.34 2.38 2.68 0 2 C0 1.34 0 0.68 0 0 Z " fill="#F1BD22" transform="translate(124,172)"/>
<path d="M0 0 C2.64 0 5.28 0 8 0 C8 0.99 8 1.98 8 3 C5.36 3 2.72 3 0 3 C0 2.01 0 1.02 0 0 Z " fill="#F4C625" transform="translate(101,172)"/>
<path d="M0 0 C0.66 0.33 1.32 0.66 2 1 C2 3.97 2 6.94 2 10 C0 8.75 0 8.75 -2 7 C-2 5.68 -2 4.36 -2 3 C-1.34 2.67 -0.68 2.34 0 2 C0 1.34 0 0.68 0 0 Z " fill="#F4C12B" transform="translate(94,156)"/>
<path d="M0 0 C-0.33 1.32 -0.66 2.64 -1 4 C-1.66 3.67 -2.32 3.34 -3 3 C-3.99 3.5 -3.99 3.5 -5 4 C-7.67 4.13 -10.32 4.04 -13 4 C-10.35 2.23 -8.93 1.58 -5.94 0.88 C-5.25 0.71 -4.55 0.54 -3.84 0.37 C-2 0 -2 0 0 0 Z " fill="#E3E1D3" transform="translate(151,147)"/>
<path d="M0 0 C-0.33 1.32 -0.66 2.64 -1 4 C-3.97 4 -6.94 4 -10 4 C-6.41 0.41 -4.91 0 0 0 Z " fill="#1E9BEF" transform="translate(108,118)"/>
<path d="M0 0 C0.66 0 1.32 0 2 0 C1.25 5.75 1.25 5.75 -1 8 C-3.62 8.12 -3.62 8.12 -6 8 C-5.67 7.34 -5.34 6.68 -5 6 C-4.01 6 -3.02 6 -2 6 C-1.67 5.34 -1.34 4.68 -1 4 C-1.66 3.67 -2.32 3.34 -3 3 C-2.01 2.67 -1.02 2.34 0 2 C0 1.34 0 0.68 0 0 Z " fill="#EBC135" transform="translate(137,97)"/>
<path d="M0 0 C0.99 0.33 1.98 0.66 3 1 C2 3 1 5 0 7 C-0.66 7 -1.32 7 -2 7 C-2.69 5.19 -2.69 5.19 -3 3 C-1.56 1.25 -1.56 1.25 0 0 Z " fill="#282828" transform="translate(162,85)"/>
<path d="M0 0 C0.99 0.33 1.98 0.66 3 1 C2.01 2.98 1.02 4.96 0 7 C-1.32 6.67 -2.64 6.34 -4 6 C-3.67 4.68 -3.34 3.36 -3 2 C-2.34 2 -1.68 2 -1 2 C-0.67 1.34 -0.34 0.68 0 0 Z " fill="#E7CC6C" transform="translate(91,65)"/>
<path d="M0 0 C-0.66 0.66 -1.32 1.32 -2 2 C-2 2.66 -2 3.32 -2 4 C-3.65 4 -5.3 4 -7 4 C-7 2.68 -7 1.36 -7 0 C-3.87 -1.04 -3.01 -0.93 0 0 Z " fill="#F3BA18" transform="translate(125,183)"/>
<path d="M0 0 C2.97 0.5 2.97 0.5 6 1 C6 1.66 6 2.32 6 3 C3.69 3.33 1.38 3.66 -1 4 C-0.67 2.68 -0.34 1.36 0 0 Z " fill="#FAFBFF" transform="translate(123,176)"/>
<path d="M0 0 C1.65 0 3.3 0 5 0 C5.33 1.32 5.66 2.64 6 4 C3.69 4 1.38 4 -1 4 C-0.67 2.68 -0.34 1.36 0 0 Z " fill="#F3DC84" transform="translate(115,168)"/>
<path d="M0 0 C2.31 0 4.62 0 7 0 C7.33 1.32 7.66 2.64 8 4 C7.01 4.5 7.01 4.5 6 5 C3.97 4.07 1.96 3.07 0 2 C0 1.34 0 0.68 0 0 Z " fill="#F2E4A9" transform="translate(108,209)"/>
<path d="M0 0 C0.66 0 1.32 0 2 0 C2 2 2 2 0.5 3.62 C0.01 4.08 -0.49 4.53 -1 5 C-0.01 5 0.98 5 2 5 C2 5.66 2 6.32 2 7 C2.99 7.33 3.98 7.66 5 8 C3.19 8.69 3.19 8.69 1 9 C-0.81 7.88 -0.81 7.88 -2 6 C-1.58 1.58 -1.58 1.58 0 0 Z " fill="#B9B9B9" transform="translate(63,82)"/>
<path d="M0 0 C3 1 3 1 4.19 3.06 C4.46 3.7 4.72 4.34 5 5 C4.01 5.66 3.02 6.32 2 7 C0.44 5.19 0.44 5.19 -1 3 C-0.67 2.01 -0.34 1.02 0 0 Z " fill="#282828" transform="translate(156,195)"/>
<path d="M0 0 C2.47 0.99 2.47 0.99 5 2 C5 2.99 5 3.98 5 5 C3.35 4.67 1.7 4.34 0 4 C0 2.68 0 1.36 0 0 Z " fill="#292929" transform="translate(175,172)"/>
<path d="M0 0 C1.79 0.11 3.58 0.24 5.38 0.38 C6.87 0.48 6.87 0.48 8.4 0.59 C11 1 11 1 13 3 C9.04 3 5.08 3 1 3 C0.67 2.01 0.34 1.02 0 0 Z " fill="#E3E0CE" transform="translate(72,148)"/>
<path d="M0 0 C2 2.67 4 5.33 6 8 C4.02 8 2.04 8 0 8 C0 5.36 0 2.72 0 0 Z " fill="#C6DCE4" transform="translate(110,140)"/>
<path d="M0 0 C0 0.99 0 1.98 0 3 C-0.66 3 -1.32 3 -2 3 C-2 3.66 -2 4.32 -2 5 C-3.32 5 -4.64 5 -6 5 C-6 4.01 -6 3.02 -6 2 C-3 0 -3 0 0 0 Z " fill="#2E2E2E" transform="translate(170,91)"/>
<path d="M0 0 C0.99 0.33 1.98 0.66 3 1 C2.34 2.65 1.68 4.3 1 6 C0.01 6 -0.98 6 -2 6 C-1.12 1.12 -1.12 1.12 0 0 Z " fill="#242424" transform="translate(148,75)"/>
<path d="M0 0 C0 0.99 0 1.98 0 3 C-0.99 3.5 -0.99 3.5 -2 4 C-2.33 4.99 -2.66 5.98 -3 7 C-6 3.25 -6 3.25 -6 1 C-3.92 0.45 -2.16 0 0 0 Z " fill="#F3BF1B" transform="translate(93,71)"/>
<path d="M0 0 C2.01 0.29 4.01 0.62 6 1 C4.85 3.47 3.95 5.05 2 7 C2 6.01 2 5.02 2 4 C0.56 2.31 0.56 2.31 -1 1 C-0.67 0.67 -0.34 0.34 0 0 Z " fill="#F3BE1B" transform="translate(131,71)"/>
<path d="M0 0 C0.33 1.32 0.66 2.64 1 4 C0.4 4.1 -0.2 4.21 -0.81 4.31 C-3.28 5.09 -4.32 6.07 -6 8 C-5.67 6.02 -5.34 4.04 -5 2 C-4.36 1.86 -3.72 1.71 -3.06 1.56 C-1.02 1.19 -1.02 1.19 0 0 Z " fill="#C4C0AD" transform="translate(103,53)"/>
<path d="M0 0 C1.33 0.67 2.67 1.33 4 2 C4 2.99 4 3.98 4 5 C4.66 5.33 5.32 5.66 6 6 C4.02 6 2.04 6 0 6 C-1.12 2.25 -1.12 2.25 0 0 Z " fill="#F3D353" transform="translate(104,38)"/>
<path d="M0 0 C1.94 0.81 1.94 0.81 4 2 C4.33 2.99 4.66 3.98 5 5 C3.35 4.67 1.7 4.34 0 4 C0 2.68 0 1.36 0 0 Z " fill="#282828" transform="translate(167,184)"/>
<path d="M0 0 C0.66 0 1.32 0 2 0 C2 2.31 2 4.62 2 7 C1.01 7.33 0.02 7.66 -1 8 C-1.12 2.25 -1.12 2.25 0 0 Z " fill="#F3CE4C" transform="translate(113,160)"/>
<path d="M0 0 C0.99 0.33 1.98 0.66 3 1 C3 1.66 3 2.32 3 3 C2.01 3 1.02 3 0 3 C-0.33 3.99 -0.66 4.98 -1 6 C-1.66 6 -2.32 6 -3 6 C-3 4.68 -3 3.36 -3 2 C-2.01 1.34 -1.02 0.68 0 0 Z " fill="#292929" transform="translate(176,103)"/>
<path d="M0 0 C0.99 0.33 1.98 0.66 3 1 C1.35 2.65 -0.3 4.3 -2 6 C-2.33 4.68 -2.66 3.36 -3 2 C-2.01 1.34 -1.02 0.68 0 0 Z " fill="#242424" transform="translate(172,97)"/>
<path d="M0 0 C0.33 0 0.66 0 1 0 C1.37 5.42 1.37 5.42 -0.5 8.38 C-1 8.91 -1.49 9.45 -2 10 C-2.25 3.38 -2.25 3.38 0 0 Z " fill="#EDD450" transform="translate(132,93)"/>
<path d="M0 0 C0.99 0.66 1.98 1.32 3 2 C2.34 3.32 1.68 4.64 1 6 C0.34 6 -0.32 6 -1 6 C-1 5.34 -1 4.68 -1 4 C-1.99 4.33 -2.98 4.66 -4 5 C-4 4.01 -4 3.02 -4 2 C-3.01 2 -2.02 2 -1 2 C-0.67 1.34 -0.34 0.68 0 0 Z " fill="#E8CD66" transform="translate(89,88)"/>
<path d="M0 0 C0.99 0.33 1.98 0.66 3 1 C3.33 1.99 3.66 2.98 4 4 C1.92 4.55 0.16 5 -2 5 C-1.12 1.12 -1.12 1.12 0 0 Z " fill="#4F4F4F" transform="translate(69,74)"/>
<path d="M0 0 C1.98 0 3.96 0 6 0 C6 0.99 6 1.98 6 3 C3.69 3 1.38 3 -1 3 C-0.67 2.01 -0.34 1.02 0 0 Z " fill="#F5C420" transform="translate(104,58)"/>
<path d="M0 0 C1.65 0.33 3.3 0.66 5 1 C4.67 2.32 4.34 3.64 4 5 C2.35 4.67 0.7 4.34 -1 4 C-0.67 2.68 -0.34 1.36 0 0 Z " fill="#F4D249" transform="translate(99,57)"/>
<path d="M0 0 C-1.25 0.48 -2.5 0.96 -3.75 1.44 C-4.79 1.84 -4.79 1.84 -5.86 2.25 C-7.89 2.96 -9.9 3.51 -12 4 C-12 3.34 -12 2.68 -12 2 C-8.34 -0.11 -3.99 -1.99 0 0 Z " fill="#E1DDC9" transform="translate(129,180)"/>
<path d="M0 0 C-0.33 0.99 -0.66 1.98 -1 3 C-0.01 3.66 0.98 4.32 2 5 C0.12 5.62 0.12 5.62 -2 6 C-2.66 5.34 -3.32 4.68 -4 4 C-4 3.01 -4 2.02 -4 1 C-2 0 -2 0 0 0 Z " fill="#202020" transform="translate(50,173)"/>
<path d="M0 0 C-1.31 2.61 -2.36 2.68 -5.06 3.62 C-6.16 4.02 -6.16 4.02 -7.29 4.41 C-7.85 4.61 -8.42 4.8 -9 5 C-9 4.01 -9 3.02 -9 2 C-5.87 0.14 -3.63 -0.2 0 0 Z " fill="#E6E4DA" transform="translate(136,151)"/>
<path d="M0 0 C1.65 0.33 3.3 0.66 5 1 C4.34 2.32 3.68 3.64 3 5 C2.67 4.34 2.34 3.68 2 3 C0.68 3.33 -0.64 3.66 -2 4 C-1.34 2.68 -0.68 1.36 0 0 Z " fill="#31A6F1" transform="translate(109,105)"/>
<path d="M0 0 C1.32 0 2.64 0 4 0 C3.62 1.94 3.62 1.94 3 4 C2.01 4.5 2.01 4.5 1 5 C0.01 4.34 -0.98 3.68 -2 3 C-1.34 2.01 -0.68 1.02 0 0 Z " fill="#F4F5F4" transform="translate(102,107)"/>
<path d="M0 0 C1.32 0 2.64 0 4 0 C3.67 1.65 3.34 3.3 3 5 C2.01 5.33 1.02 5.66 0 6 C0 4.02 0 2.04 0 0 Z " fill="#F4C220" transform="translate(119,69)"/>
<path d="M0 0 C2 2 2 2 2 5 C2.66 5 3.32 5 4 5 C3.67 5.66 3.34 6.32 3 7 C1.02 6.34 -0.96 5.68 -3 5 C-3 4.34 -3 3.68 -3 3 C-2.34 3 -1.68 3 -1 3 C-0.67 2.01 -0.34 1.02 0 0 Z " fill="#F6DD81" transform="translate(116,182)"/>
<path d="M0 0 C0 0.66 0 1.32 0 2 C-0.99 2.66 -1.98 3.32 -3 4 C-2.67 4.99 -2.34 5.98 -2 7 C-3.32 6.34 -4.64 5.68 -6 5 C-4.87 1.62 -3.79 0 0 0 Z " fill="#3E3E3E" transform="translate(54,180)"/>
<path d="M0 0 C1.65 0 3.3 0 5 0 C5 0.66 5 1.32 5 2 C5.99 2 6.98 2 8 2 C8 2.66 8 3.32 8 4 C5.69 4.25 5.69 4.25 3 4 C1.19 2 1.19 2 0 0 Z " fill="#F0D982" transform="translate(101,175)"/>
<path d="M0 0 C0.66 0 1.32 0 2 0 C2.66 1.32 3.32 2.64 4 4 C2.35 4.33 0.7 4.66 -1 5 C-0.67 3.35 -0.34 1.7 0 0 Z " fill="#EABC36" transform="translate(141,112)"/>
<path d="M0 0 C-0.66 1.32 -1.32 2.64 -2 4 C-2.33 3.34 -2.66 2.68 -3 2 C-4.98 2.33 -6.96 2.66 -9 3 C-7.14 -0.71 -3.69 -0.1 0 0 Z " fill="#D6E2E3" transform="translate(109,105)"/>
<path d="M0 0 C0.33 0.66 0.66 1.32 1 2 C1.66 2.33 2.32 2.66 3 3 C1.25 5.06 1.25 5.06 -1 7 C-3.25 6.75 -3.25 6.75 -5 6 C-4.36 5.57 -3.72 5.13 -3.06 4.69 C-0.73 3.09 -0.73 3.09 0 0 Z " fill="#E7E7E4" transform="translate(138,100)"/>
<path d="M0 0 C0.99 0.5 0.99 0.5 2 1 C2 2.65 2 4.3 2 6 C2.66 6 3.32 6 4 6 C4 6.66 4 7.32 4 8 C2.68 7.67 1.36 7.34 0 7 C0 4.69 0 2.38 0 0 Z " fill="#F3BC13" transform="translate(83,79)"/>
<path d="M0 0 C2.97 0 5.94 0 9 0 C9 0.33 9 0.66 9 1 C7.35 1 5.7 1 4 1 C4 1.99 4 2.98 4 4 C3.01 4 2.02 4 1 4 C0.67 2.68 0.34 1.36 0 0 Z " fill="#EACD63" transform="translate(109,38)"/>
<path d="M0 0 C0.66 0 1.32 0 2 0 C1.67 1.65 1.34 3.3 1 5 C1.66 5 2.32 5 3 5 C3 5.66 3 6.32 3 7 C1.68 6.67 0.36 6.34 -1 6 C-0.67 4.02 -0.34 2.04 0 0 Z " fill="#414141" transform="translate(83,207)"/>
<path d="M0 0 C0.66 0 1.32 0 2 0 C1.67 1.98 1.34 3.96 1 6 C0.34 6 -0.32 6 -1 6 C-1.33 6.66 -1.66 7.32 -2 8 C-1.12 2.25 -1.12 2.25 0 0 Z " fill="#707070" transform="translate(68,191)"/>
<path d="M0 0 C2.47 0.5 2.47 0.5 5 1 C4.67 2.32 4.34 3.64 4 5 C2.68 4.67 1.36 4.34 0 4 C0 2.68 0 1.36 0 0 Z " fill="#1D1D1D" transform="translate(181,154)"/>
<path d="M0 0 C-1 1.5 -1 1.5 -3 3 C-5.72 3.27 -8.26 3.13 -11 3 C-7.72 -0.28 -4.49 -0.12 0 0 Z " fill="#F5D050" transform="translate(143,156)"/>
<path d="M0 0 C-2 2 -2 2 -5.62 2.12 C-6.74 2.08 -7.85 2.04 -9 2 C-9 1.34 -9 0.68 -9 0 C-5.93 -1.53 -3.3 -0.55 0 0 Z " fill="#F6D35A" transform="translate(138,154)"/>
</svg>
