<?xml version="1.0" encoding="iso-8859-1"?>
<!-- Uploaded to: SVG Repo, www.svgrepo.com, Generator: SVG Repo Mixer Tools -->
<svg height="800px" width="800px" version="1.1" id="Layer_1" xmlns="http://www.w3.org/2000/svg" xmlns:xlink="http://www.w3.org/1999/xlink" 
	 viewBox="0 0 511.988 511.988" xml:space="preserve">
<path style="fill:#CCD1D9;" d="M298.664,114.717c-7.422-46.984-10.672-77.843-10.672-82.718C287.992,14.328,273.666,0,255.994,0
	s-32,14.328-32,31.999c0,4.875-3.25,35.733-10.671,82.718c-13.859,87.95,21.359,98.606,21.359,98.606l21.312,0.078l21.311-0.078
	C277.305,213.323,312.522,202.667,298.664,114.717z"/>
<path style="fill:#E6E9ED;" d="M319.991,234.65l-30.234-31.999h-67.529l-30.233,31.999v255.994c0,11.781,9.546,21.344,21.328,21.344
	h85.341c11.781,0,21.328-9.562,21.328-21.344V234.65H319.991z"/>
<path style="fill:#48CFAD;" d="M197.526,239.869c-1.828-1.594-3.672-3.156-5.531-4.703v255.478c0,11.781,9.546,21.344,21.328,21.344
	h85.341c11.781,0,21.328-9.562,21.328-21.344V279.993c-10.078,3.422-19.828,5-29.328,5
	C257.743,284.993,227.806,266.15,197.526,239.869z"/>
<g style="opacity:0.2;">
	<path style="fill:#FFFFFF;" d="M289.758,202.651h-21.326l30.232,31.999v255.994c0,11.781-9.562,21.344-21.344,21.344h21.344
		c11.781,0,21.328-9.562,21.328-21.344V234.65L289.758,202.651z"/>
</g>
</svg>