<?xml version="1.0" encoding="iso-8859-1"?>
<!-- Uploaded to: SVG Repo, www.svgrepo.com, Generator: SVG Repo Mixer Tools -->
<svg height="800px" width="800px" version="1.1" id="Layer_1" xmlns="http://www.w3.org/2000/svg" xmlns:xlink="http://www.w3.org/1999/xlink" 
	 viewBox="0 0 511.983 511.983" xml:space="preserve">
<path style="fill:#E6E9ED;" d="M172.172,505.723c-8.328,8.327-21.842,8.327-30.17,0L6.246,369.968
	c-8.328-8.327-8.328-21.826,0-30.17L339.799,6.261c8.344-8.328,21.842-8.328,30.186,0l135.74,135.755
	c8.344,8.327,8.344,21.842,0,30.169L172.172,505.723z"/>
<g>
	<path style="fill:#CCD1D9;" d="M362.422,74.13c-4.154,4.171-10.904,4.171-15.092,0c-4.156-4.156-4.156-10.905,0-15.077
		c4.188-4.171,10.938-4.171,15.092,0C366.578,63.225,366.578,69.974,362.422,74.13z"/>
	<path style="fill:#CCD1D9;" d="M407.67,119.392c-4.156,4.156-10.906,4.156-15.062,0c-4.188-4.171-4.188-10.921,0-15.093
		c4.156-4.156,10.906-4.156,15.062,0C411.855,108.471,411.855,115.221,407.67,119.392z"/>
	<path style="fill:#CCD1D9;" d="M452.916,164.639c-4.156,4.171-10.906,4.171-15.062,0c-4.186-4.171-4.186-10.921,0-15.077
		c4.156-4.171,10.906-4.171,15.062,0C457.103,153.718,457.103,160.468,452.916,164.639z"/>
	<path style="fill:#CCD1D9;" d="M339.799,142.016c-4.156,4.156-10.904,4.156-15.092,0c-4.156-4.172-4.156-10.921,0-15.093
		c4.188-4.156,10.936-4.156,15.092,0C343.955,131.095,343.955,137.844,339.799,142.016z"/>
	<path style="fill:#CCD1D9;" d="M385.047,187.262c-4.156,4.172-10.906,4.172-15.062,0c-4.188-4.156-4.188-10.921,0-15.077
		c4.156-4.171,10.906-4.171,15.062,0C389.232,176.341,389.232,183.106,385.047,187.262z"/>
	<path style="fill:#CCD1D9;" d="M149.549,437.853c4.154-4.172,10.92-4.172,15.076,0c4.172,4.155,4.172,10.921,0,15.077
		c-4.156,4.172-10.922,4.172-15.076,0C145.377,448.774,145.377,442.009,149.549,437.853z"/>
	<path style="fill:#CCD1D9;" d="M104.301,392.591c4.156-4.156,10.906-4.156,15.078,0c4.172,4.172,4.172,10.922,0,15.093
		c-4.156,4.156-10.922,4.156-15.078,0C100.131,403.513,100.131,396.763,104.301,392.591z"/>
	<path style="fill:#CCD1D9;" d="M59.039,347.345c4.172-4.172,10.922-4.156,15.094,0c4.154,4.172,4.154,10.921,0,15.092
		c-4.172,4.156-10.922,4.156-15.094,0C54.883,358.265,54.883,351.516,59.039,347.345z"/>
	<path style="fill:#CCD1D9;" d="M172.172,369.968c4.172-4.156,10.92-4.156,15.092,0c4.156,4.172,4.156,10.922,0,15.093
		c-4.172,4.155-10.92,4.155-15.092,0C168.015,380.889,168.015,374.139,172.172,369.968z"/>
	<path style="fill:#CCD1D9;" d="M126.926,324.721c4.154-4.172,10.92-4.172,15.076,0c4.172,4.172,4.172,10.921,0,15.076
		c-4.156,4.172-10.922,4.172-15.076,0C122.754,335.642,122.754,328.893,126.926,324.721z"/>
</g>
<polygon style="fill:#A0D468;" points="383.89,263.225 248.744,128.079 128.08,248.758 263.226,383.904 "/>
</svg>