<?xml version="1.0" encoding="iso-8859-1"?>
<!-- Uploaded to: SVG Repo, www.svgrepo.com, Generator: SVG Repo Mixer Tools -->
<svg height="800px" width="800px" version="1.1" id="Layer_1" xmlns="http://www.w3.org/2000/svg" xmlns:xlink="http://www.w3.org/1999/xlink" 
	 viewBox="0 0 511.974 511.974" xml:space="preserve">
<path style="fill:#4A89DC;" d="M498.198,313.167c-33.186-68.994-116.053-97.961-185.018-64.744
	c-68.995,33.185-97.993,116.053-64.776,185.018c33.217,68.994,116.053,97.992,185.049,64.775
	C502.448,465,531.415,382.162,498.198,313.167z"/>
<path style="fill:#DA4453;" d="M267.247,211.737c-28.561,71.026-109.305,105.43-180.331,76.838
	C15.891,260.014-18.513,179.24,10.078,108.245C38.67,37.22,119.414,2.815,190.408,31.391
	C261.434,59.967,295.839,140.727,267.247,211.737z"/>
<path style="fill:#ED5564;" d="M267.247,190.426c-28.561,70.994-109.305,105.398-180.331,76.838
	C15.891,238.673-18.513,157.928,10.078,86.903c28.592-71.026,109.336-105.43,180.33-76.838
	C261.434,38.657,295.839,119.4,267.247,190.426z"/>
<path style="fill:#DA4453;" d="M14.422,77.154c-1.562,3.171-3,6.421-4.344,9.749S7.516,93.59,6.453,96.949l256.45,103.196
	c1.562-3.156,3.031-6.406,4.344-9.719c1.344-3.344,2.562-6.688,3.625-10.062L14.422,77.154z"/>
<path style="fill:#5D9CEC;" d="M498.198,291.825c-33.186-68.963-116.053-97.961-185.018-64.745
	c-68.995,33.216-97.993,116.054-64.776,185.049c33.217,68.964,116.053,97.962,185.049,64.745
	C502.448,443.657,531.415,360.82,498.198,291.825z"/>
<path style="fill:#4A89DC;" d="M498.198,291.825c-1.531-3.219-3.219-6.375-4.969-9.437L244.154,402.317
	c1.281,3.312,2.719,6.562,4.25,9.812c1.562,3.218,3.25,6.374,5,9.437l249.075-119.96
	C501.198,298.325,499.76,295.075,498.198,291.825z"/>
</svg>