<?xml version="1.0" encoding="iso-8859-1"?>
<!-- Uploaded to: SVG Repo, www.svgrepo.com, Generator: SVG Repo Mixer Tools -->
<svg height="800px" width="800px" version="1.1" id="Layer_1" xmlns="http://www.w3.org/2000/svg" xmlns:xlink="http://www.w3.org/1999/xlink" 
	 viewBox="0 0 511.969 511.969" xml:space="preserve">
<path style="fill:#CCD1D9;" d="M426.634,490.626c0,11.78-9.531,21.343-21.312,21.343H106.661c-11.78,0-21.327-9.562-21.327-21.343
	V42.653c0-11.78,9.547-21.327,21.327-21.327h298.661c11.781,0,21.312,9.546,21.312,21.327L426.634,490.626L426.634,490.626z"/>
<path style="fill:#E6E9ED;" d="M426.634,469.298c0,11.781-9.531,21.327-21.312,21.327H106.661c-11.78,0-21.327-9.546-21.327-21.327
	V21.327C85.334,9.546,94.881,0,106.661,0h298.661c11.781,0,21.312,9.546,21.312,21.327L426.634,469.298L426.634,469.298z"/>
<g>
	<circle style="fill:#967ADC;" cx="170.654" cy="95.994" r="31.998"/>
	<path style="fill:#967ADC;" d="M373.324,95.994c0,17.671-14.342,31.998-31.998,31.998c-17.686,0-31.998-14.327-31.998-31.998
		s14.312-31.998,31.998-31.998C358.982,63.996,373.324,78.323,373.324,95.994z"/>
	<circle style="fill:#967ADC;" cx="170.654" cy="202.644" r="31.998"/>
	<path style="fill:#967ADC;" d="M373.324,202.644c0,17.67-14.342,31.997-31.998,31.997c-17.686,0-31.998-14.327-31.998-31.997
		c0-17.672,14.312-31.998,31.998-31.998C358.982,170.646,373.324,184.972,373.324,202.644z"/>
	<circle style="fill:#967ADC;" cx="170.654" cy="309.304" r="31.998"/>
	<path style="fill:#967ADC;" d="M373.324,309.308c0,17.672-14.342,31.998-31.998,31.998c-17.686,0-31.998-14.326-31.998-31.998
		c0-17.67,14.312-31.998,31.998-31.998C358.982,277.31,373.324,291.638,373.324,309.308z"/>
	<circle style="fill:#967ADC;" cx="170.654" cy="415.974" r="31.998"/>
	<path style="fill:#967ADC;" d="M373.324,415.974c0,17.67-14.342,31.998-31.998,31.998c-17.686,0-31.998-14.328-31.998-31.998
		c0-17.672,14.312-31.998,31.998-31.998C358.982,383.976,373.324,398.302,373.324,415.974z"/>
</g>
<g>
	<circle style="fill:#AC92EB;" cx="170.654" cy="85.324" r="31.998"/>
	<path style="fill:#AC92EB;" d="M373.324,85.323c0,17.67-14.342,31.997-31.998,31.997c-17.686,0-31.998-14.327-31.998-31.997
		c0-17.671,14.312-31.998,31.998-31.998C358.982,53.325,373.324,67.652,373.324,85.323z"/>
	<circle style="fill:#AC92EB;" cx="170.654" cy="191.984" r="31.998"/>
	<path style="fill:#AC92EB;" d="M373.324,191.988c0,17.671-14.342,31.998-31.998,31.998c-17.686,0-31.998-14.327-31.998-31.998
		s14.312-31.998,31.998-31.998C358.982,159.99,373.324,174.317,373.324,191.988z"/>
	<circle style="fill:#AC92EB;" cx="170.654" cy="298.634" r="31.998"/>
	<path style="fill:#AC92EB;" d="M373.324,298.637c0,17.671-14.342,31.998-31.998,31.998c-17.686,0-31.998-14.327-31.998-31.998
		s14.312-31.998,31.998-31.998C358.982,266.639,373.324,280.966,373.324,298.637z"/>
	<circle style="fill:#AC92EB;" cx="170.654" cy="405.304" r="31.998"/>
	<path style="fill:#AC92EB;" d="M373.324,405.302c0,17.671-14.342,31.998-31.998,31.998c-17.686,0-31.998-14.327-31.998-31.998
		c0-17.67,14.312-31.998,31.998-31.998C358.982,373.304,373.324,387.632,373.324,405.302z"/>
</g>
<path style="fill:#CCD1D9;" d="M255.988,53.325c-5.891,0-10.664,4.781-10.664,10.671V426.63c0,5.89,4.773,10.671,10.664,10.671
	c5.89,0,10.664-4.781,10.664-10.671V63.996C266.652,58.106,261.879,53.325,255.988,53.325z"/>
</svg>