<?xml version="1.0" encoding="iso-8859-1"?>
<!-- Uploaded to: SVG Repo, www.svgrepo.com, Generator: SVG Repo Mixer Tools -->
<svg version="1.1" id="Layer_1" xmlns="http://www.w3.org/2000/svg" xmlns:xlink="http://www.w3.org/1999/xlink" 
	 viewBox="0 0 511.967 511.967" xml:space="preserve">
<g>
	<path style="fill:#CCD1D9;" d="M163.552,299.856c0,51.31-36.607,79.651-81.777,79.651C36.607,379.507,0,351.165,0,299.856
		c0-51.341,23.373-146.054,81.775-146.054C140.194,153.802,163.552,248.515,163.552,299.856z"/>
	<path style="fill:#CCD1D9;" d="M337.759,299.856c0,51.31-36.606,79.651-81.775,79.651c-45.154,0-81.762-28.342-81.762-79.651
		c0-51.341,23.358-146.054,81.762-146.054C314.401,153.802,337.759,248.515,337.759,299.856z"/>
	<path style="fill:#CCD1D9;" d="M511.967,299.856c0,51.31-36.607,79.651-81.761,79.651c-45.169,0-81.776-28.342-81.776-79.651
		c0-51.341,23.358-146.054,81.776-146.054C488.61,153.802,511.967,248.515,511.967,299.856z"/>
</g>
<g>
	<path style="fill:#E6E9ED;" d="M163.552,278.513c0,51.31-36.607,79.652-81.777,79.652C36.607,358.165,0,329.822,0,278.513
		c0-51.34,23.373-146.053,81.775-146.053C140.194,132.461,163.552,227.173,163.552,278.513z"/>
	<path style="fill:#E6E9ED;" d="M337.759,278.513c0,51.31-36.606,79.652-81.775,79.652c-45.154,0-81.762-28.343-81.762-79.652
		c0-51.34,23.358-146.053,81.762-146.053C314.401,132.461,337.759,227.173,337.759,278.513z"/>
	<path style="fill:#E6E9ED;" d="M511.967,278.513c0,51.31-36.607,79.652-81.761,79.652c-45.169,0-81.776-28.343-81.776-79.652
		c0-51.34,23.358-146.053,81.776-146.053C488.61,132.461,511.967,227.173,511.967,278.513z"/>
</g>
<path style="fill:#FFCE54;" d="M60.449,293.67c-5.891,0-10.672-4.781-10.672-10.656v-42.653c0-5.906,4.781-10.687,10.672-10.687
	h42.653c5.891,0,10.671,4.78,10.671,10.687v42.653c0,5.875-4.78,10.656-10.671,10.656H60.449z"/>
<g>
	<path style="fill:#F6BB42;" d="M103.102,219.017H60.449c-11.781,0-21.343,9.562-21.343,21.343v42.653
		c0,11.781,9.562,21.342,21.343,21.342h42.653c11.78,0,21.343-9.561,21.343-21.342V240.36
		C124.445,228.58,114.882,219.017,103.102,219.017z M103.102,283.013H60.449V240.36h42.653V283.013z"/>
	<rect x="111.553" y="251.014" style="fill:#F6BB42;" width="335.73" height="21.343"/>
</g>
<path style="fill:#FFCE54;" d="M234.656,293.67c-5.874,0-10.67-4.781-10.67-10.656v-42.653c0-5.906,4.796-10.687,10.67-10.687h42.67
	c5.874,0,10.655,4.78,10.655,10.687v42.653c0,5.875-4.781,10.656-10.655,10.656H234.656z"/>
<path style="fill:#F6BB42;" d="M277.326,219.017h-42.67c-11.779,0-21.326,9.562-21.326,21.343v42.653
	c0,11.781,9.547,21.342,21.326,21.342h42.67c11.78,0,21.327-9.561,21.327-21.342V240.36
	C298.653,228.58,289.106,219.017,277.326,219.017z M277.326,283.013h-42.67V240.36h42.67V283.013z"/>
<path style="fill:#FFCE54;" d="M408.864,293.67c-5.874,0-10.655-4.781-10.655-10.656v-42.653c0-5.906,4.781-10.687,10.655-10.687
	h42.67c5.875,0,10.671,4.78,10.671,10.687v42.653c0,5.875-4.796,10.656-10.671,10.656H408.864z"/>
<path style="fill:#F6BB42;" d="M451.534,219.017h-42.67c-11.779,0-21.326,9.562-21.326,21.343v42.653
	c0,11.781,9.547,21.342,21.326,21.342h42.67c11.78,0,21.326-9.561,21.326-21.342V240.36
	C472.86,228.58,463.314,219.017,451.534,219.017z M451.534,283.013h-42.67V240.36h42.67L451.534,283.013L451.534,283.013z"/>
</svg>