<?xml version="1.0" encoding="iso-8859-1"?>
<!-- Uploaded to: SVG Repo, www.svgrepo.com, Generator: SVG Repo Mixer Tools -->
<svg height="800px" width="800px" version="1.1" id="Layer_1" xmlns="http://www.w3.org/2000/svg" xmlns:xlink="http://www.w3.org/1999/xlink" 
	 viewBox="0 0 511.988 511.988" xml:space="preserve">
<path style="fill:#EAC6BB;" d="M266.666,255.995c0,73.638-59.702,133.324-133.341,133.324C59.702,389.319,0,329.634,0,255.995
	S59.701,122.67,133.325,122.67C206.964,122.67,266.666,182.357,266.666,255.995z"/>
<path style="fill:#DBADA2;" d="M133.325,122.67c-3.578,0-7.141,0.141-10.656,0.422c68.639,5.438,122.653,62.858,122.653,132.903
	c0,70.044-54.014,127.464-122.653,132.902c3.516,0.281,7.078,0.422,10.656,0.422c73.639,0,133.341-59.686,133.341-133.324
	S206.964,122.67,133.325,122.67z"/>
<path style="fill:#D770AD;" d="M117.326,303.992c-17.641,0-32-14.357-32-31.998c0-17.64,14.359-32,32-32
	c17.656,0,31.999,14.359,31.999,32S134.981,303.992,117.326,303.992z"/>
<path style="fill:#EC87C0;" d="M127.997,271.995c0,5.891-4.781,10.672-10.671,10.672c-5.891,0-10.656-4.781-10.656-10.672
	s4.766-10.672,10.656-10.672C123.216,261.323,127.997,266.104,127.997,271.995z"/>
<path style="fill:#EAC6BB;" d="M245.322,255.995c0,73.638,59.701,133.324,133.34,133.324c73.623,0,133.326-59.686,133.326-133.324
	c0-73.639-59.703-133.325-133.326-133.325C305.023,122.67,245.322,182.357,245.322,255.995z"/>
<path style="fill:#DBADA2;" d="M266.666,255.995c0-70.045,54.014-127.466,122.652-132.903c-3.516-0.281-7.078-0.422-10.656-0.422
	c-73.639,0-133.34,59.687-133.34,133.325s59.701,133.324,133.34,133.324c3.578,0,7.141-0.141,10.656-0.422
	C320.68,383.46,266.666,326.04,266.666,255.995z"/>
<path style="fill:#D770AD;" d="M394.662,303.992c-17.656,0-32-14.357-32-31.998c0-17.64,14.344-32,32-32c17.641,0,32,14.359,32,32
	S412.303,303.992,394.662,303.992z"/>
<g>
	<path style="fill:#EC87C0;" d="M117.326,229.324c-23.562,0-42.655,19.109-42.655,42.671s19.093,42.67,42.655,42.67
		s42.67-19.107,42.67-42.67C159.996,248.433,140.887,229.324,117.326,229.324z M117.326,293.323
		c-11.766,0-21.328-9.562-21.328-21.328s9.562-21.328,21.328-21.328c11.765,0,21.343,9.562,21.343,21.328
		S129.091,293.323,117.326,293.323z"/>
	<path style="fill:#EC87C0;" d="M394.662,229.324c-23.562,0-42.67,19.109-42.67,42.671s19.107,42.67,42.67,42.67
		s42.654-19.107,42.654-42.67C437.316,248.433,418.224,229.324,394.662,229.324z M394.662,293.323
		c-11.766,0-21.344-9.562-21.344-21.328s9.578-21.328,21.344-21.328s21.328,9.562,21.328,21.328S406.428,293.323,394.662,293.323z"
		/>
	<path style="fill:#EC87C0;" d="M383.99,271.995c0,5.891,4.781,10.672,10.672,10.672s10.656-4.781,10.656-10.672
		s-4.766-10.672-10.656-10.672S383.99,266.104,383.99,271.995z"/>
</g>
</svg>