<?xml version="1.0" encoding="iso-8859-1"?>
<!-- Uploaded to: SVG Repo, www.svgrepo.com, Generator: SVG Repo Mixer Tools -->
<svg height="800px" width="800px" version="1.1" id="Layer_1" xmlns="http://www.w3.org/2000/svg" xmlns:xlink="http://www.w3.org/1999/xlink" 
	 viewBox="0 0 512 512" xml:space="preserve">
<path style="fill:#E6E9ED;" d="M458.672,138.656C458.672,62.078,396.594,0,320,0c-23.094,0-44.844,5.641-64,15.625
	C236.844,5.641,215.094,0,192,0C115.406,0,53.328,62.078,53.328,138.656c0,21.047,4.703,40.984,13.078,58.844l41.781,90.5
	c-10,32,6.281,224,73.141,224c21.031,0,54.047-178.484,74.656-178.625S309.609,512,330.656,512c66.844,0,83.125-192,73.125-224
	l41.812-90.5C453.969,179.641,458.672,159.703,458.672,138.656z"/>
<g>
	<path style="fill:#CCD1D9;" d="M330.656,490.656c-21.047,0-54.062-178.766-74.672-178.625
		c-20.609,0.156-53.625,178.625-74.656,178.625c-52.031,0-73.422-116.281-75.641-182.938C103.25,366.516,123.125,512,181.328,512
		c21.031,0,54.047-178.484,74.656-178.625S309.609,512,330.656,512c58.188,0,78.062-145.484,75.641-204.281
		C404.078,374.375,382.688,490.656,330.656,490.656z"/>
	<path style="fill:#CCD1D9;" d="M87.938,47.016L87.938,47.016c0,0,35.188-10.703,104.062-4.359c22.984,2.125,44.844,5.656,64,15.641
		V15.625C236.844,5.641,215.094,0,192,0C150.547,0,113.359,18.188,87.938,47.016z"/>
	<path style="fill:#CCD1D9;" d="M424.062,47.016L424.062,47.016c0,0-35.188-10.703-104.062-4.359
		c-22.984,2.125-44.844,5.656-64,15.641V15.625C275.156,5.641,296.906,0,320,0C361.453,0,398.641,18.188,424.062,47.016z"/>
</g>
<path style="fill:#434A54;" d="M170.656,192c-29.406,0-53.328-23.922-53.328-53.344c0-29.406,23.922-53.328,53.328-53.328
	S224,109.25,224,138.656C224,168.078,200.062,192,170.656,192z"/>
<path style="fill:#CCD1D9;" d="M170.656,74.656c-35.344,0-64,28.656-64,64c0,35.359,28.656,64,64,64s64-28.641,64-64
	C234.656,103.312,206,74.656,170.656,74.656z M170.656,181.328c-23.516,0-42.656-19.141-42.656-42.672
	C128,115.141,147.141,96,170.656,96c23.531,0,42.672,19.141,42.672,42.656C213.328,162.188,194.188,181.328,170.656,181.328z"/>
</svg>