<?xml version="1.0" encoding="iso-8859-1"?>
<!-- Uploaded to: SVG Repo, www.svgrepo.com, Generator: SVG Repo Mixer Tools -->
<svg height="800px" width="800px" version="1.1" id="Layer_1" xmlns="http://www.w3.org/2000/svg" xmlns:xlink="http://www.w3.org/1999/xlink" 
	 viewBox="0 0 511.981 511.981" xml:space="preserve">
<path style="fill:#F6BB42;" d="M159.376,394.555v-0.016c-25.562-1-33.405-37.093-33.483-37.452l-20.898,4.281
	c0.109,0.516,2.703,13.016,10.07,25.702c10.531,18.125,25.562,28.078,43.475,28.781v-0.016c0.141,0.016,0.281,0.031,0.422,0.031
	c5.891,0,10.664-4.781,10.664-10.672C169.626,399.446,165.079,394.774,159.376,394.555z"/>
<path style="fill:#FFCE54;" d="M465.001,223.231c-10.375-56.467,64.232-164.386,5.812-210.385
	c-58.436-46.015-179.402,46.842-226.15,40.905C197.906,47.83,105.158,2.237,51.199,27.377
	c-101.755,47.405-7.594,295.274,1.297,311.805c8.898,16.531,29.53,43.029,63.834,34.64c41.163-10.078,60.124-64.718-7.797-245.4
	c-4.023-10.702,67.491,18.343,159.105,19.546s108.677-32.154,113.13-25.343c0,0-17.234,21.312-7.578,116.7
	c7.578,74.92,68.92,84.639,14.766,108.17c-62.186,27.03-230.251-199.527-168.519,146.23c0,0,36.852,41.076,89.349,0
	c9.859-7.719-13.266-84.514-9.938-86.076c3.344-1.562,108.436,62.451,178.543-14.234
	C547.514,316.729,475.36,279.699,465.001,223.231z"/>
<g style="opacity:0.2;">
	<path style="fill:#FFFFFF;" d="M51.199,48.72c53.959-25.14,146.707,20.437,193.464,26.375
		c46.748,5.921,167.715-86.936,226.15-40.921c13.969,11,20.328,25.546,22.062,42.093c2.218-25.296-2.344-47.89-22.062-63.42
		c-58.436-46.015-179.402,46.842-226.15,40.905C197.906,47.83,105.158,2.237,51.199,27.377
		C13.348,45.017,2.614,90.391,4.505,141.264C6.216,99.36,18.739,63.845,51.199,48.72z"/>
</g>
<g>
	<path style="fill:#F6BB42;" d="M248.764,433.196c25.226-2.781,44.506-1.375,55.146,3.921c-2.125-9.843-4.094-18.624-4.938-23.999
		c-13.75-3.094-31.382-3.484-52.803-1.109c-15.367,1.703-29.194,4.438-37.616,6.297c0.68,6.75,1.492,13.859,2.453,21.327
		C218.562,437.914,232.937,434.93,248.764,433.196z"/>
	<path style="fill:#F6BB42;" d="M327.677,419.118c11.952-29.656,4.328-64.436-3.578-87.326c-9.5-4.922-19.203-10.25-28.75-15.125
		l-0.547,0.281c0.297,0.578,28.75,55.499,13.078,94.217C312.817,413.321,319.567,416.196,327.677,419.118z"/>
	<path style="fill:#F6BB42;" d="M443.454,419.352c3.062-17.875-2.484-37.016-16.483-56.358
		c-7.625-10.53-16.327-19.077-22.687-24.702c-3.531,2.938-8.812,5.938-16.328,9.203c-1.375,0.594-2.781,1.062-4.25,1.422
		c3.531,2.719,15.938,12.733,25.984,26.593c14.155,19.546,16.905,37.312,8.155,52.843
		C426.439,426.462,435.033,423.555,443.454,419.352z"/>
	<path style="fill:#F6BB42;" d="M503.672,306.917c-1.594-4.766-3.578-9.422-5.812-14.03c-17.53-5.844-40.812-6.875-69.451-3
		c-14.249,1.922-26.843,4.672-35.249,6.75c4.688,7.546,9.234,13.702,12.422,19.015c7.234-1.609,16.233-3.359,25.983-4.672
		c29.89-4,53.077-2.156,67.061,5.344L503.672,306.917z"/>
	<path style="fill:#F6BB42;" d="M406.487,193.796c-14.078,2.359-27.188,5.593-35.953,7.968c0.234,6.703,0.641,13.969,1.234,21.78
		c7.859-2.219,22.688-6.108,38.453-8.749c31.123-5.203,46.732-2.25,50.967,2.25l2.859-2.688c-0.234-6.078,0.25-12.594,1.266-19.468
		C452.423,189.686,433.002,189.343,406.487,193.796z"/>
	<path style="fill:#F6BB42;" d="M406.331,110.188c-9.922,3.922-18.906,8.062-26.312,11.733c0.281,0.141,0.531,0.375,0.75,0.703
		c0,0-5.094,6.312-8.203,27.405c5.922-3.391,22.078-12.312,41.922-20.124c28.201-11.125,52.467-15.655,70.795-13.296
		c1.812-7.016,3.453-14,4.781-20.875C467.501,92.266,439.391,97.11,406.331,110.188z"/>
	<path style="fill:#F6BB42;" d="M334.942,90.985c3.062,20.125,8.265,37.577,11.202,46.483c8.375-2.922,14.749-6.031,19.608-8.703
		c-2.766-8.719-7.172-24.109-9.765-41.343c-3.469-23-4.406-54.092,10.796-71.545l-2.109-1.828
		c-8.952,3.219-17.921,6.75-26.733,10.359C331.88,41.908,330.864,64.189,334.942,90.985z"/>
	<path style="fill:#F6BB42;" d="M240.139,113.032c-2.672-17.906-2.726-42.671,12.196-59.108c-2.734,0.172-5.305,0.141-7.672-0.172
		c-4.945-0.625-10.414-1.688-16.289-3.078c-18.781,31.796-9.172,73.951-2.375,94.919c7.531,0.734,15.304,1.344,23.266,1.766
		C247.179,141.999,242.499,128.781,240.139,113.032z"/>
	<path style="fill:#F6BB42;" d="M130.97,92.313c-5.359-28-1.656-50.015,10.992-65.483c-7.648-1.766-15.304-3.297-22.851-4.484
		c-21.249,35.5-9.101,81.389-0.585,104.404c5.968,0.953,14.398,2.828,24.851,5.094l0.328-0.156
		C143.618,131.515,135.197,114.391,130.97,92.313z"/>
	<path style="fill:#F6BB42;" d="M120.377,161.186c-2.257-6.516-4.64-13.219-7.164-20.125c-3.789,1.547-25.164,10.016-49.124,14.719
		c-33.046,6.5-50.163,2.234-59.03-4.031c0.562,8.188,1.422,16.469,2.516,24.766c7.859,2.531,16.937,3.812,27.226,3.812
		c10.085,0,21.343-1.219,33.733-3.672C92.987,171.811,114.276,163.639,120.377,161.186z"/>
	<path style="fill:#F6BB42;" d="M148.447,261.856c-1.25-6.734-2.742-13.844-4.5-21.344c-24.109,11.203-85.896,33.703-118.552,20.312
		c2.375,8.469,4.789,16.53,7.156,24.03c5.531,0.969,11.476,1.453,17.843,1.453c15.164,0,32.679-2.734,52.413-8.219
		C122.635,272.575,139.618,265.7,148.447,261.856z"/>
</g>
</svg>