<?xml version="1.0" encoding="iso-8859-1"?>
<!-- Uploaded to: SVG Repo, www.svgrepo.com, Generator: SVG Repo Mixer Tools -->
<svg version="1.1" id="Layer_1" xmlns="http://www.w3.org/2000/svg" xmlns:xlink="http://www.w3.org/1999/xlink" 
	 viewBox="0 0 511.988 511.988" xml:space="preserve">
<g>
	<path style="fill:#F6BB42;" d="M511.988,21.341c0,5.875-4.781,10.656-10.656,10.656c-5.906,0-10.688-4.781-10.688-10.656
		c0-5.906,4.781-10.687,10.688-10.687C507.207,10.654,511.988,15.435,511.988,21.341z"/>
	<path style="fill:#F6BB42;" d="M511.988,63.996c0,5.906-4.781,10.656-10.656,10.656c-5.906,0-10.688-4.75-10.688-10.656
		s4.781-10.656,10.688-10.656C507.207,53.341,511.988,58.091,511.988,63.996z"/>
	<path style="fill:#F6BB42;" d="M511.988,106.652c0,5.907-4.781,10.688-10.656,10.688c-5.906,0-10.688-4.781-10.688-10.688
		c0-5.875,4.781-10.656,10.688-10.656C507.207,95.996,511.988,100.777,511.988,106.652z"/>
	<path style="fill:#F6BB42;" d="M511.988,149.338c0,5.875-4.781,10.656-10.656,10.656c-5.906,0-10.688-4.781-10.688-10.656
		c0-5.906,4.781-10.688,10.688-10.688C507.207,138.65,511.988,143.431,511.988,149.338z"/>
	<path style="fill:#F6BB42;" d="M511.988,191.994c0,5.905-4.781,10.655-10.656,10.655c-5.906,0-10.688-4.75-10.688-10.655
		c0-5.906,4.781-10.656,10.688-10.656C507.207,181.338,511.988,186.088,511.988,191.994z"/>
	<path style="fill:#F6BB42;" d="M511.988,234.648c0,5.906-4.781,10.688-10.656,10.688c-5.906,0-10.688-4.781-10.688-10.688
		c0-5.875,4.781-10.656,10.688-10.656C507.207,223.992,511.988,228.773,511.988,234.648z"/>
	<path style="fill:#F6BB42;" d="M511.988,277.335c0,5.875-4.781,10.656-10.656,10.656c-5.906,0-10.688-4.781-10.688-10.656
		c0-5.905,4.781-10.687,10.688-10.687C507.207,266.648,511.988,271.43,511.988,277.335z"/>
	<path style="fill:#F6BB42;" d="M511.988,319.99c0,5.906-4.781,10.656-10.656,10.656c-5.906,0-10.688-4.75-10.688-10.656
		s4.781-10.656,10.688-10.656C507.207,309.334,511.988,314.084,511.988,319.99z"/>
	<path style="fill:#F6BB42;" d="M511.988,362.645c0,5.906-4.781,10.688-10.656,10.688c-5.906,0-10.688-4.781-10.688-10.688
		c0-5.875,4.781-10.655,10.688-10.655C507.207,351.99,511.988,356.77,511.988,362.645z"/>
	<path style="fill:#F6BB42;" d="M511.988,405.332c0,5.875-4.781,10.656-10.656,10.656c-5.906,0-10.688-4.781-10.688-10.656
		c0-5.906,4.781-10.688,10.688-10.688C507.207,394.644,511.988,399.426,511.988,405.332z"/>
	<path style="fill:#F6BB42;" d="M511.988,447.987c0,5.906-4.781,10.655-10.656,10.655c-5.906,0-10.688-4.749-10.688-10.655
		s4.781-10.656,10.688-10.656C507.207,437.331,511.988,442.081,511.988,447.987z"/>
	<path style="fill:#F6BB42;" d="M511.988,490.642c0,5.906-4.781,10.688-10.656,10.688c-5.906,0-10.688-4.781-10.688-10.688
		c0-5.875,4.781-10.656,10.688-10.656C507.207,479.986,511.988,484.767,511.988,490.642z"/>
	<path style="fill:#F6BB42;" d="M21.335,21.341c0,5.875-4.773,10.656-10.671,10.656C4.773,31.997,0,27.216,0,21.341
		c0-5.906,4.773-10.687,10.664-10.687C16.562,10.654,21.335,15.435,21.335,21.341z"/>
	<path style="fill:#F6BB42;" d="M21.335,63.996c0,5.906-4.773,10.656-10.671,10.656C4.773,74.652,0,69.902,0,63.996
		S4.773,53.34,10.664,53.34C16.562,53.341,21.335,58.091,21.335,63.996z"/>
	<path style="fill:#F6BB42;" d="M21.335,106.652c0,5.907-4.773,10.688-10.671,10.688C4.773,117.34,0,112.559,0,106.652
		c0-5.875,4.773-10.656,10.664-10.656C16.562,95.996,21.335,100.777,21.335,106.652z"/>
	<path style="fill:#F6BB42;" d="M21.335,149.338c0,5.875-4.773,10.656-10.671,10.656C4.773,159.994,0,155.213,0,149.338
		c0-5.906,4.773-10.688,10.664-10.688C16.562,138.65,21.335,143.431,21.335,149.338z"/>
	<path style="fill:#F6BB42;" d="M21.335,191.994c0,5.905-4.773,10.655-10.671,10.655C4.773,202.649,0,197.899,0,191.994
		c0-5.906,4.773-10.656,10.664-10.656C16.562,181.338,21.335,186.088,21.335,191.994z"/>
	<path style="fill:#F6BB42;" d="M21.335,234.648c0,5.906-4.773,10.688-10.671,10.688C4.773,245.336,0,240.555,0,234.648
		c0-5.875,4.773-10.656,10.664-10.656C16.562,223.992,21.335,228.773,21.335,234.648z"/>
	<path style="fill:#F6BB42;" d="M21.335,277.335c0,5.875-4.773,10.656-10.671,10.656C4.773,287.991,0,283.21,0,277.335
		c0-5.905,4.773-10.687,10.664-10.687C16.562,266.648,21.335,271.43,21.335,277.335z"/>
	<path style="fill:#F6BB42;" d="M21.335,319.99c0,5.906-4.773,10.656-10.671,10.656C4.773,330.646,0,325.896,0,319.99
		s4.773-10.656,10.664-10.656C16.562,309.334,21.335,314.084,21.335,319.99z"/>
	<path style="fill:#F6BB42;" d="M21.335,362.645c0,5.906-4.773,10.688-10.671,10.688C4.773,373.333,0,368.552,0,362.645
		c0-5.875,4.773-10.655,10.664-10.655C16.562,351.99,21.335,356.77,21.335,362.645z"/>
	<path style="fill:#F6BB42;" d="M21.335,405.332c0,5.875-4.773,10.656-10.671,10.656C4.773,415.988,0,411.207,0,405.332
		c0-5.906,4.773-10.688,10.664-10.688C16.562,394.644,21.335,399.426,21.335,405.332z"/>
	<path style="fill:#F6BB42;" d="M21.335,447.987c0,5.906-4.773,10.655-10.671,10.655C4.773,458.642,0,453.893,0,447.987
		s4.773-10.656,10.664-10.656C16.562,437.331,21.335,442.081,21.335,447.987z"/>
	<path style="fill:#F6BB42;" d="M21.335,490.642c0,5.906-4.773,10.688-10.671,10.688C4.773,501.33,0,496.549,0,490.642
		c0-5.875,4.773-10.656,10.664-10.656C16.562,479.986,21.335,484.767,21.335,490.642z"/>
</g>
<rect x="10.664" y="10.654" style="fill:#FFCE54;" width="490.67" height="490.68"/>
<path style="fill:#ED5564;" d="M447.988,255.992c0,106.028-85.967,191.995-191.994,191.995
	c-106.037,0-191.996-85.967-191.996-191.995c0-106.029,85.959-191.996,191.996-191.996
	C362.021,63.996,447.988,149.963,447.988,255.992z"/>
<g style="opacity:0.2;">
	<path style="fill:#FFFFFF;" d="M255.994,63.996c-3.586,0-7.141,0.094-10.672,0.312c101.076,5.532,181.324,89.217,181.324,191.684
		c0,102.466-80.248,186.151-181.324,191.683c3.531,0.219,7.086,0.312,10.672,0.312c106.027,0,191.994-85.967,191.994-191.995
		C447.988,149.963,362.021,63.996,255.994,63.996z"/>
</g>
</svg>