<?xml version="1.0" encoding="iso-8859-1"?>
<!-- Uploaded to: SVG Repo, www.svgrepo.com, Generator: SVG Repo Mixer Tools -->
<svg version="1.1" id="Layer_1" xmlns="http://www.w3.org/2000/svg" xmlns:xlink="http://www.w3.org/1999/xlink" 
	 viewBox="0 0 511.989 511.989" xml:space="preserve">
<g>
	
		<rect x="301.895" y="141.209" transform="matrix(0.7071 -0.7071 0.7071 0.7071 -49.4611 279.4265)" style="fill:#CCD1D9;" width="21.345" height="116.419"/>
	<polygon style="fill:#CCD1D9;" points="25.753,501.309 10.676,486.247 183.374,313.532 198.452,328.626 	"/>
</g>
<path style="fill:#E6E9ED;" d="M385.073,28.883L173.89,240.065l2.922,95.123l95.123,2.906l211.183-211.183L385.073,28.883z
	 M263.373,316.501l-65.858-2.031l-2.031-65.842L385.073,59.039l67.873,67.873L263.373,316.501z"/>
<path style="fill:#FC6E51;" d="M490.665,149.536c-8.328,8.344-21.844,8.344-30.172,0l-98.045-98.028
	c-8.343-8.344-8.343-21.844,0-30.188l15.078-15.062c8.328-8.344,21.844-8.344,30.172,0l98.044,98.028
	c8.328,8.345,8.328,21.844,0,30.188L490.665,149.536z"/>
<g style="opacity:0.1;">
	<path d="M505.742,104.287L407.698,6.259c-8.328-8.344-21.844-8.344-30.172,0l-15.078,15.062c-0.016,0-0.016,0.031-0.016,0.031
		l4.422-4.437c8.344-8.344,21.844-8.344,30.172,0l98.06,98.061c8.328,8.312,8.328,21.812,0,30.154l-4.437,4.438
		c0,0,0.016,0,0.016-0.031l15.077-15.062C514.07,126.131,514.07,112.632,505.742,104.287z"/>
</g>
<path style="fill:#434A54;" d="M48.378,493.778l-30.155-30.156c-4.172-4.188-10.922-4.188-15.094,0
	c-4.171,4.156-4.171,10.906,0,15.062L33.3,508.872c4.172,4.156,10.921,4.156,15.078,0C52.55,504.684,52.55,497.934,48.378,493.778z"
	/>
</svg>