<?xml version="1.0" encoding="iso-8859-1"?>
<!-- Uploaded to: SVG Repo, www.svgrepo.com, Generator: SVG Repo Mixer Tools -->
<svg height="800px" width="800px" version="1.1" id="Layer_1" xmlns="http://www.w3.org/2000/svg" xmlns:xlink="http://www.w3.org/1999/xlink" 
	 viewBox="0 0 511.971 511.971" xml:space="preserve">
<path style="fill:#CCD1D9;" d="M503.968,175.036L503.968,175.036l-15.061-75.339c-0.016-0.016-0.016-0.031-0.031-0.062v-0.016l0,0
	c-0.391-2-1.375-3.906-2.906-5.453c-4.172-4.155-10.938-4.155-15.094,0c-2.625,2.625-3.593,6.266-2.905,9.641l0,0l12.53,62.652
	H433.16l0,0c-2.719,0-5.452,1.047-7.53,3.125L289.873,305.34l15.077,15.094l132.647-132.633H493.5l0,0
	c2.734,0,5.469-1.047,7.546-3.125C503.656,182.05,504.625,178.411,503.968,175.036z"/>
<path style="fill:#5D9CEC;" d="M199.355,184.675L17.178,366.851c-12.498,12.484-12.498,32.748,0,45.248
	c12.5,12.499,32.764,12.499,45.264,0l182.16-182.176L199.355,184.675z"/>
<polygon style="fill:#CCD1D9;" points="368.352,76.027 353.275,60.934 214.448,199.754 229.525,214.845 "/>
<path style="fill:#46CEAD;" d="M289.873,275.185L107.689,457.346c-12.483,12.499-12.483,32.764,0,45.263
	c12.499,12.483,32.763,12.483,45.263,0l182.169-182.176L289.873,275.185z"/>
<path style="fill:#E6E9ED;" d="M365.291,117.336c-14.25,0-27.64-5.546-37.717-15.623c-20.78-20.796-20.78-54.622,0-75.417
	c10.077-10.078,23.467-15.624,37.717-15.624c14.248,0,27.639,5.546,37.716,15.624c10.062,10.077,15.624,23.467,15.624,37.7
	c0,14.249-5.562,27.64-15.624,37.717C392.929,111.79,379.539,117.336,365.291,117.336z"/>
<path style="fill:#CCD1D9;" d="M410.537,18.749C398.038,6.25,381.664,0,365.291,0c-16.375,0-32.748,6.25-45.248,18.749
	c-24.998,24.999-24.998,65.512,0,90.51c12.5,12.499,28.873,18.733,45.248,18.733c16.373,0,32.747-6.25,45.246-18.733
	C435.536,84.26,435.536,43.748,410.537,18.749z M395.461,94.166c-8.062,8.062-18.766,12.5-30.17,12.5
	c-11.406,0-22.108-4.438-30.17-12.5c-16.641-16.623-16.641-43.7,0-60.324c8.062-8.062,18.764-12.499,30.17-12.499l0,0l0,0
	c11.404,0,22.107,4.438,30.17,12.499c8.046,8.047,12.498,18.765,12.498,30.154C407.959,75.402,403.507,86.12,395.461,94.166z"/>
<polygon style="fill:#4A89DC;" points="154.108,229.924 169.201,214.845 214.448,260.093 199.355,275.185 "/>
<polygon style="fill:#35BB9B;" points="244.602,320.433 259.695,305.34 304.95,350.603 289.873,365.68 "/>
</svg>