<?xml version="1.0" encoding="iso-8859-1"?>
<!-- Uploaded to: SVG Repo, www.svgrepo.com, Generator: SVG Repo Mixer Tools -->
<svg height="800px" width="800px" version="1.1" id="Layer_1" xmlns="http://www.w3.org/2000/svg" xmlns:xlink="http://www.w3.org/1999/xlink" 
	 viewBox="0 0 511.991 511.991" xml:space="preserve">
<path style="fill:#434A54;" d="M508.862,100.5L508.862,100.5l-22.718-22.718L471.05,92.86l22.735,22.735l0,0
	c4.171,4.171,10.921,4.171,15.077,0C513.034,111.423,513.034,104.672,508.862,100.5z"/>
<path style="fill:#CCD1D9;" d="M433.442,25.08L105.606,352.917c-23.421,23.42-23.421,36.936-15.085,45.264l15.085,15.078
	c8.328,8.328,21.835,8.328,45.249-15.078L478.707,70.345L433.442,25.08z"/>
<path style="fill:#434A54;" d="M105.59,443.414c-8.312-8.312-8.312-21.843,0-30.155l-15.077-15.094
	c-16.664,16.672-16.664,43.687,0,60.342c4.156,4.156,4.156,10.922,0,15.078c-8.32,8.328-21.851,8.328-30.171,0
	c-16.664-16.656-43.678-16.656-60.342,0l15.085,15.094c8.32-8.328,21.851-8.328,30.171,0c16.664,16.656,43.679,16.656,60.334,0
	C118.09,476.179,118.09,455.913,105.59,443.414z"/>
<path style="fill:#5D9CEC;" d="M150.855,428.352c-8.328,8.327-21.835,8.327-30.164,0l-45.256-45.265
	c-8.328-8.327-8.328-21.827,0-30.17l185.003-184.996c8.336-8.328,21.835-8.328,30.179,0l45.25,45.249
	c8.327,8.327,8.327,21.843,0,30.171L150.855,428.352z"/>
<g style="opacity:0.2;">
	<path style="fill:#FFFFFF;" d="M320.773,228.263L135.777,413.259c-8.336,8.328-21.835,8.328-30.171,0l15.085,15.094
		c8.328,8.327,21.835,8.327,30.164,0l185.012-185.012c8.327-8.328,8.327-21.844,0-30.171l-15.078-15.078
		C329.117,206.42,329.117,219.919,320.773,228.263z"/>
</g>
<path style="fill:#E6E9ED;" d="M471.629,107.579c-8.328,8.328-21.844,8.328-30.172,0l-30.17-30.171
	c-8.328-8.328-8.328-21.843,0-30.171l30.17-30.171c8.328-8.328,21.844-8.328,30.172,0L501.8,47.237
	c8.328,8.328,8.328,21.843,0,30.171L471.629,107.579z"/>
<g>
	<path style="fill:#4A89DC;" d="M188.963,239.403c4.164,4.156,10.914,4.156,15.085,0c4.164-4.172,4.164-10.922,0-15.094
		L188.963,239.403z"/>
	<path style="fill:#4A89DC;" d="M158.401,269.966c4.164,4.156,10.914,4.156,15.078,0c4.172-4.172,4.172-10.922,0.008-15.094
		L158.401,269.966z"/>
	<path style="fill:#4A89DC;" d="M143.316,300.12c4.164-4.155,4.164-10.905,0-15.077l0,0l-15.085,15.077
		C132.394,304.292,139.152,304.292,143.316,300.12z"/>
</g>
</svg>