<?xml version="1.0" encoding="iso-8859-1"?>
<!-- Uploaded to: SVG Repo, www.svgrepo.com, Generator: SVG Repo Mixer Tools -->
<svg height="800px" width="800px" version="1.1" id="Layer_1" xmlns="http://www.w3.org/2000/svg" xmlns:xlink="http://www.w3.org/1999/xlink" 
	 viewBox="0 0 512.001 512.001" xml:space="preserve">
<path style="fill:#3BAED9;" d="M182.501,12.384C68.253,41.149-12.715,110.757,1.66,167.897L415.419,63.773
	C401.045,6.649,296.765-16.366,182.501,12.384z"/>
<path id="SVGCleanerId_0" style="fill:#4FC0E8;" d="M0.004,490.657c0,11.782,9.547,21.344,21.328,21.344h383.994
	c11.78,0,21.343-9.562,21.343-21.344V149.335H0.004V490.657z"/>
<path style="fill:#E5E8EC;" d="M502.371,106.726L502.371,106.726c-2.828-0.281-70.046-6.641-153.92,4.031
	c-49.452,6.281-94.311,17.234-133.357,32.562c-49.312,19.343-89.482,45.749-119.373,78.499l15.75,14.375
	c62.921-68.905,164.826-94.702,239.23-104.217c80.624-10.312,147.342-4.234,149.529-4.031h0.016c0.016,0,0.047,0,0.047,0l0,0
	c0.344,0.031,0.688,0.062,1.031,0.062c5.891,0,10.672-4.781,10.672-10.671C511.996,111.789,507.777,107.242,502.371,106.726z"/>
<g>
	<path style="fill:#CCD1D9;" d="M213.328,480.001c-39.89,0-77.389-15.53-105.592-43.749C79.534,408.049,64.003,370.55,64.003,330.66
		c0-39.891,15.531-77.39,43.733-105.592c28.203-28.203,65.702-43.733,105.592-43.733c39.891,0,77.39,15.531,105.593,43.733
		c28.218,28.203,43.749,65.702,43.749,105.592s-15.531,77.389-43.749,105.592C290.718,464.471,253.219,480.001,213.328,480.001z"/>
	<path style="fill:#CCD1D9;" d="M213.328,437.33c-58.812,0-106.654-47.843-106.654-106.67c0-58.812,47.843-106.655,106.654-106.655
		c58.828,0,106.671,47.843,106.671,106.655C319.999,389.487,272.156,437.33,213.328,437.33z"/>
	<path style="fill:#CCD1D9;" d="M213.328,394.659c-35.28,0-63.998-28.703-63.998-63.999c0-35.281,28.718-63.999,63.998-63.999
		c35.297,0,64,28.718,64,63.999C277.328,365.956,248.625,394.659,213.328,394.659z"/>
	<path style="fill:#CCD1D9;" d="M213.328,352.003c-11.765,0-21.327-9.577-21.327-21.343c0-11.75,9.562-21.328,21.327-21.328
		c11.766,0,21.344,9.578,21.344,21.328C234.672,342.426,225.094,352.003,213.328,352.003z"/>
</g>
<g>
	<path style="fill:#E5E8EC;" d="M213.328,170.663c-88.357,0-159.997,71.639-159.997,159.998c0,88.373,71.64,159.997,159.997,159.997
		c88.374,0,159.998-71.624,159.998-159.997C373.326,242.302,301.702,170.663,213.328,170.663z M311.39,428.721
		c-12.75,12.734-27.577,22.734-44.093,29.719c-17.078,7.233-35.234,10.89-53.969,10.89c-18.718,0-36.874-3.656-53.968-10.89
		c-16.499-6.984-31.343-16.984-44.077-29.719c-12.75-12.75-22.75-27.577-29.718-44.093c-7.234-17.078-10.891-35.234-10.891-53.968
		c0-18.719,3.656-36.875,10.891-53.968c6.968-16.5,16.968-31.344,29.718-44.078c12.734-12.734,27.578-22.75,44.077-29.718
		c17.094-7.234,35.25-10.891,53.968-10.891c18.734,0,36.891,3.656,53.969,10.891c16.516,6.969,31.343,16.984,44.093,29.718
		c12.734,12.734,22.734,27.578,29.719,44.078c7.233,17.093,10.89,35.249,10.89,53.968c0,18.733-3.656,36.89-10.89,53.968
		C334.124,401.144,324.124,415.971,311.39,428.721z"/>
	<path style="fill:#E5E8EC;" d="M213.328,213.334c-64.795,0-117.326,52.531-117.326,117.327
		c0,64.812,52.531,117.342,117.326,117.342c64.812,0,117.343-52.53,117.343-117.342
		C330.671,265.864,278.141,213.334,213.328,213.334z M281.219,398.55c-18.141,18.124-42.25,28.108-67.891,28.108
		c-25.64,0-49.749-9.984-67.873-28.108c-18.141-18.141-28.125-42.25-28.125-67.89c0-25.641,9.984-49.749,28.125-67.874
		c18.124-18.141,42.233-28.125,67.873-28.125c25.641,0,49.75,9.984,67.891,28.125c18.124,18.125,28.108,42.233,28.108,67.874
		C309.327,356.3,299.343,380.409,281.219,398.55z"/>
	<path style="fill:#E5E8EC;" d="M213.328,256.005c-41.233,0-74.654,33.421-74.654,74.655c0,41.249,33.421,74.671,74.654,74.671
		c41.234,0,74.671-33.422,74.671-74.671C287.999,289.426,254.562,256.005,213.328,256.005z M213.328,384.003
		c-29.405,0-53.327-23.938-53.327-53.343c0-29.406,23.922-53.327,53.327-53.327c29.406,0,53.344,23.921,53.344,53.327
		C266.672,360.065,242.734,384.003,213.328,384.003z"/>
	<path style="fill:#E5E8EC;" d="M213.328,298.66c-17.671,0-31.999,14.328-31.999,32c0,17.671,14.328,31.999,31.999,31.999
		c17.672,0,32-14.328,32-31.999C245.328,312.988,231,298.66,213.328,298.66z M213.328,341.332c-5.874,0-10.655-4.781-10.655-10.672
		c0-5.875,4.781-10.656,10.655-10.656c5.891,0,10.672,4.781,10.672,10.656C224,336.551,219.219,341.332,213.328,341.332z"/>
</g>
<g style="opacity:0.6;">
	<g>
		<path id="SVGCleanerId_0_1_" style="fill:#4FC0E8;" d="M0.004,490.657c0,11.782,9.547,21.344,21.328,21.344h383.994
			c11.78,0,21.343-9.562,21.343-21.344V149.335H0.004V490.657z"/>
	</g>
</g>
</svg>