<?xml version="1.0" encoding="iso-8859-1"?>
<!-- Uploaded to: SVG Repo, www.svgrepo.com, Generator: SVG Repo Mixer Tools -->
<svg version="1.1" id="Layer_1" xmlns="http://www.w3.org/2000/svg" xmlns:xlink="http://www.w3.org/1999/xlink" 
	 viewBox="0 0 511.968 511.968" xml:space="preserve">
<path style="fill:#434A54;" d="M10.608,373.304c31.467-30.842,129.43-53.324,245.376-53.324c115.961,0,213.923,22.482,245.39,53.324
	c6.891-6.765,10.594-13.921,10.594-21.326c0-41.248-114.602-74.668-255.983-74.668c-141.367,0-255.984,33.42-255.984,74.668
	C0,359.383,3.718,366.54,10.608,373.304z"/>
<rect x="245.323" y="335.134" style="fill:#F6BB42;" width="21.327" height="70.17"/>
<path style="fill:#FFCE54;" d="M255.984,63.996c-76.574,0-138.648,62.074-138.648,138.648c0,76.588,62.074,138.662,138.648,138.662
	c76.589,0,138.663-62.074,138.663-138.662C394.647,126.07,332.573,63.996,255.984,63.996z M255.984,223.986
	c-11.781,0-21.328-9.562-21.328-21.342c0-11.781,9.547-21.328,21.328-21.328c11.796,0,21.342,9.547,21.342,21.328
	C277.326,214.423,267.78,223.986,255.984,223.986z"/>
<g style="opacity:0.2;">
	<path style="fill:#FFFFFF;" d="M255.984,63.996c-3.578,0-7.141,0.125-10.656,0.391c71.589,5.453,127.992,65.277,127.992,138.258
		c0,72.994-56.403,132.804-127.992,138.256c3.516,0.266,7.078,0.406,10.656,0.406c76.589,0,138.663-62.074,138.663-138.662
		C394.647,126.07,332.573,63.996,255.984,63.996z"/>
</g>
<path style="fill:#F6BB42;" d="M255.984,159.99c-23.515,0-42.654,19.124-42.654,42.654c0,23.529,19.14,42.668,42.654,42.668
	c23.529,0,42.669-19.139,42.669-42.668C298.653,179.114,279.513,159.99,255.984,159.99z M255.984,223.986
	c-11.781,0-21.328-9.562-21.328-21.342c0-11.781,9.547-21.328,21.328-21.328c11.796,0,21.342,9.547,21.342,21.328
	C277.326,214.423,267.78,223.986,255.984,223.986z"/>
<path style="fill:#656D78;" d="M511.967,351.931c0-3.609-0.891-7.156-2.594-10.625c-17.733,36.186-124.43,63.996-253.39,63.996
	c-128.945,0-235.643-27.811-253.375-63.996c-1.719,3.484-2.594,7.031-2.594,10.641L0,373.304
	c0,41.232,114.617,74.668,255.984,74.668c141.382,0,255.983-33.436,255.983-74.668c0-0.016,0-0.016,0-0.031V351.931z"/>
</svg>