<?xml version="1.0" encoding="iso-8859-1"?>
<!-- Uploaded to: SVG Repo, www.svgrepo.com, Generator: SVG Repo Mixer Tools -->
<svg version="1.1" id="Layer_1" xmlns="http://www.w3.org/2000/svg" xmlns:xlink="http://www.w3.org/1999/xlink" 
	 viewBox="0 0 512 512" xml:space="preserve">
<path style="fill:#E6E9ED;" d="M255.996,0c-61.812,0-69.141,44-149.336,42.664v341.352c0,11.781,9.555,21.328,21.336,21.328h128h128
	c11.781,0,21.344-9.547,21.344-21.328V42.664C325.137,44,317.809,0,255.996,0z M255.996,64c-5.891,0-10.664-4.773-10.664-10.664
	s4.773-10.672,10.664-10.672c5.891,0,10.664,4.781,10.664,10.672S261.887,64,255.996,64z"/>
<rect x="245.33" y="426.66" style="fill:#F5F7FA;" width="21.328" height="85.34"/>
<g>
	<path style="fill:#3BAED9;" d="M266.66,448c0,5.891-4.773,10.656-10.664,10.656S245.332,453.89,245.332,448
		s4.773-10.656,10.664-10.656C261.887,437.344,266.66,442.109,266.66,448z"/>
	<rect x="245.33" y="341.84" style="fill:#3BAED9;" width="21.328" height="97.5"/>
</g>
<path style="fill:#E6E9ED;" d="M223.996,426.656V512h64v-85.344H223.996z M266.66,490.656h-21.328V448h21.328V490.656z"/>
<path style="fill:#F5F7FA;" d="M335.09,347.594c-8.312,8.297-24.688,15.094-36.438,15.094h-85.32
	c-11.734,0-28.125-6.797-36.422-15.094l-12.492-12.5c-8.297-8.281-15.086-24.688-15.086-36.406V106.68
	c0-11.734,9.602-21.328,21.328-21.328h170.68c11.719,0,21.312,9.594,21.312,21.328v192.008c0,11.719-6.781,28.125-15.078,36.406
	L335.09,347.594z"/>
<path style="fill:#4FC0E8;" d="M149.332,224.008v74.68c0,11.719,6.789,28.125,15.086,36.406l12.492,12.5
	c8.297,8.297,24.688,15.094,36.422,15.094h85.32c11.75,0,28.125-6.797,36.438-15.094l12.484-12.5
	c8.297-8.281,15.078-24.688,15.078-36.406v-74.68H149.332z"/>
<path style="opacity:0.2;fill:#FFFFFF;enable-background:new    ;" d="M341.34,85.352h-21.344c11.734,0,21.344,9.594,21.344,21.328
	v192.008c0,11.719-6.797,28.125-15.094,36.406l-12.5,12.5c-8.297,8.297-24.688,15.094-36.406,15.094h21.312
	c11.75,0,28.125-6.797,36.438-15.094l12.484-12.5c8.297-8.281,15.078-24.688,15.078-36.406V106.68
	C362.652,94.945,353.059,85.352,341.34,85.352z"/>
</svg>