<?xml version="1.0" encoding="iso-8859-1"?>
<!-- Uploaded to: SVG Repo, www.svgrepo.com, Generator: SVG Repo Mixer Tools -->
<svg height="800px" width="800px" version="1.1" id="Layer_1" xmlns="http://www.w3.org/2000/svg" xmlns:xlink="http://www.w3.org/1999/xlink" 
	 viewBox="0 0 511.991 511.991" xml:space="preserve">
<path style="fill:#EAC6BB;" d="M391.24,59.579l-47.124-20.187l-59.858-21.327l-36.007-8.844l-56.202,8.844l-69.561,73.576
	c0,0-18.203,56.264-18.203,59.42c0,3.141,0,54.749,0,54.749l-12.828,13.796c0,0,17.625,129.748,17.218,182.027l13.812,19.406
	l12.797,40.107l47.233,35h42.749l48.148-26l30.843-38.436l24-58.046l26.53-45.78l15.452-21.344l23-71.232l17-66.107v-67.03
	L391.24,59.579z"/>
<g>
	<path style="fill:#DBADA2;" d="M210.377,511.991c-7.125,0-14.296-0.859-21.468-2.578c-48.687-11.766-86.186-62.124-80.232-107.779
		c0.766-5.844,6.125-9.953,11.953-9.203c5.844,0.766,9.969,6.109,9.203,11.953c-2.125,16.266,3.594,34.905,15.656,51.139
		c12.375,16.625,30.015,28.703,48.437,33.156c21.14,5.094,42.53,0.156,61.858-14.266c24.522-18.312,45.272-50.795,61.663-96.514
		l0.484-1.344l0.812-1.171c0.266-0.375,27.327-39.358,50.373-91.061c37.844-84.842,36.219-138.231,28.188-168.089
		c-4.297-15.985-11.641-30.203-21.812-42.25c-11.219-13.266-26.249-24.343-44.686-32.937
		c-32.672-15.234-63.288-21.671-90.976-19.141C215.862,24.094,194.019,33,174.91,48.375c-23.796,19.14-43.187,48.593-54.608,82.92
		c-10.015,30.093-13.031,61.374-8.031,83.654c1.281,5.749-2.328,11.452-8.078,12.733c-5.75,1.297-11.453-2.328-12.734-8.078
		c-5.812-25.889-2.594-61.42,8.593-95.044c12.703-38.171,34.546-71.139,61.499-92.811c33.437-26.905,91.514-50.483,178.27-10.047
		c41.093,19.156,67.374,49.108,78.092,89.03c7.219,26.858,7.281,58.311,0.188,93.466c-5.577,27.593-15.546,57.593-29.655,89.17
		c-21.875,48.983-46.53,85.919-51.39,93.044c-17.765,49.046-40.812,84.404-68.521,105.092
		C250.36,505.069,230.579,511.991,210.377,511.991z"/>
	<path style="fill:#DBADA2;" d="M364.349,128.297c-16.577-33.515-39.998-54.874-69.623-63.468
		c-53.054-15.374-105.99,16.344-108.224,17.703c-5.031,3.062-6.625,9.625-3.562,14.656c3.062,5.03,9.625,6.624,14.656,3.562
		c0.468-0.281,47.061-28.218,91.193-15.421c23.641,6.844,42.625,24.484,56.437,52.421c1.859,3.765,5.641,5.952,9.562,5.952
		c1.593,0,3.202-0.359,4.718-1.109C364.787,139.983,366.959,133.578,364.349,128.297z"/>
	<path style="fill:#DBADA2;" d="M257.111,169.515c-31.313-6.297-61.937,16.094-63.218,17.047
		c-4.734,3.516-5.719,10.203-2.203,14.921c3.5,4.734,10.187,5.719,14.921,2.219c0.234-0.188,24.531-17.64,46.296-13.265
		c10.062,2.016,18.156,8.405,24.757,19.499c14.047,23.702,3.547,39.046-19.632,68.779c-7.953,10.203-16.969,21.78-25.281,35.077
		c-15.796,25.25-18.562,47.546-20.39,62.295c-0.656,5.297-1.547,12.5-2.812,14.234c-0.25,0.078-0.953,0.266-2.438,0.25
		c-3.828-0.047-6.969-1.531-9.875-4.688c-7.359-7.938-12.453-25.468-14.344-49.357c-1.531-19.484-0.422-36.453-0.406-36.609
		c0.406-5.874-4.031-10.968-9.906-11.374c-5.891-0.406-10.969,4.031-11.375,9.905c-0.047,0.75-1.234,18.469,0.406,39.469
		c2.312,29.608,9.016,50.623,19.953,62.451c6.875,7.438,15.641,11.438,25.312,11.531c0.125,0,0.25,0,0.391,0
		c12.468,0,18.484-6.484,21.328-11.969c3.031-5.797,3.906-12.938,4.938-21.219c1.688-13.655,4.015-32.357,17.296-53.607
		c7.734-12.375,16.016-23,24.039-33.296c11.702-15.015,21.812-27.983,27.015-42.327c6.125-16.938,4.203-33.437-5.875-50.437
		C286.305,182.686,273.227,172.765,257.111,169.515z"/>
</g>
</svg>