<?xml version="1.0" encoding="iso-8859-1"?>
<!-- Uploaded to: SVG Repo, www.svgrepo.com, Generator: SVG Repo Mixer Tools -->
<svg version="1.1" id="Layer_1" xmlns="http://www.w3.org/2000/svg" xmlns:xlink="http://www.w3.org/1999/xlink" 
	 viewBox="0 0 512 512" xml:space="preserve">
<path style="fill:#CCD1D9;" d="M490.656,42.656H21.328C9.547,42.656,0,52.219,0,64v405.344c0,11.781,9.547,21.312,21.328,21.312
	h469.328c11.781,0,21.344-9.531,21.344-21.312V64C512,52.219,502.438,42.656,490.656,42.656z"/>
<path style="fill:#5D9CEC;" d="M21.328,458.656c-5.875,0-10.656-4.781-10.656-10.656V42.656C10.672,36.781,15.453,32,21.328,32
	h469.328c5.891,0,10.688,4.781,10.688,10.656V448c0,5.875-4.797,10.656-10.688,10.656H21.328z"/>
<polygon style="fill:#4A89DC;" points="287,328.312 222.922,136.031 188.422,213.125 21.516,213.141 21.516,191.812 
	174.594,191.797 225.828,77.297 289.781,269.156 323.906,191.797 492.078,191.797 492.078,213.125 337.812,213.125 "/>
<rect x="12.172" y="362.66" style="fill:#E6E9ED;" width="483.36" height="91.5"/>
<path style="fill:#ED5564;" d="M64,416c0,5.875-4.766,10.656-10.672,10.656c-5.875,0-10.656-4.781-10.656-10.656
	c0-5.906,4.781-10.656,10.656-10.656C59.234,405.344,64,410.094,64,416z"/>
<path style="fill:#5D9CEC;" d="M106.672,416c0,5.875-4.781,10.656-10.672,10.656S85.328,421.875,85.328,416
	c0-5.906,4.781-10.656,10.672-10.656S106.672,410.094,106.672,416z"/>
<path style="fill:#A0D468;" d="M149.328,416c0,5.875-4.781,10.656-10.656,10.656c-5.906,0-10.672-4.781-10.672-10.656
	c0-5.906,4.766-10.656,10.672-10.656C144.547,405.344,149.328,410.094,149.328,416z"/>
<path style="fill:#434A54;" d="M458.656,405.344h-64c-5.875,0-10.656,4.75-10.656,10.656c0,5.875,4.781,10.656,10.656,10.656h64
	c5.906,0,10.688-4.781,10.688-10.656C469.344,410.094,464.562,405.344,458.656,405.344z"/>
<path style="fill:#E6E9ED;" d="M490.656,21.344H21.328C9.547,21.344,0,30.875,0,42.656V448c0,11.781,9.547,21.344,21.328,21.344
	h469.328c11.781,0,21.344-9.562,21.344-21.344V42.656C512,30.875,502.438,21.344,490.656,21.344z M490.656,448H21.328V42.656
	h469.328V448z"/>
</svg>