<?xml version="1.0" encoding="iso-8859-1"?>
<!-- Uploaded to: SVG Repo, www.svgrepo.com, Generator: SVG Repo Mixer Tools -->
<svg height="800px" width="800px" version="1.1" id="Layer_1" xmlns="http://www.w3.org/2000/svg" xmlns:xlink="http://www.w3.org/1999/xlink" 
	 viewBox="0 0 511.981 511.981" xml:space="preserve">
<polygon style="fill:#CCD1D9;" points="355.689,204.261 307.879,156.387 463.812,0 511.795,0.078 511.623,47.874 "/>
<path style="fill:#FC6E51;" d="M332.269,342.148c-3.203-112.044,73.514-176.386,73.514-176.386l-30-30.046l-29.984-30.046
	c0,0-64.232,76.842-176.066,73.639c-43.655-0.922-87.592,15.312-120.903,48.67c-64.858,64.968-64.858,170.308,0,235.275
	c64.842,64.969,169.996,64.969,234.846,0C316.988,429.881,333.191,385.865,332.269,342.148z"/>
<path style="fill:#E9573F;" d="M283.676,463.254c3.406-3.406,6.609-6.922,9.656-10.545c-23.367-16.062-70.694-52.656-122.208-104.17
	C113.484,290.9,72.673,238.166,58.439,219.073c-3.297,2.828-6.5,5.797-9.609,8.906c-2,2-3.922,4.031-5.797,6.109
	c16.031,21.328,56.655,73.185,113.013,129.544l0,0c56.014,56.014,102.372,90.639,122.38,104.652
	C280.191,466.66,281.957,464.988,283.676,463.254z"/>
<g style="opacity:0.2;">
	<path style="fill:#FFFFFF;" d="M332.269,342.148c-3.203-112.044,73.514-176.386,73.514-176.386l-15.094-15.094
		c0,0-76.701,64.358-73.498,176.386c0.906,43.734-15.297,87.748-48.602,121.123c-62.295,62.389-161.73,64.842-226.948,7.389
		c2.297,2.625,4.688,5.188,7.188,7.688c64.842,64.969,169.996,64.969,234.846,0C316.988,429.881,333.191,385.865,332.269,342.148z"
		/>
</g>
<path style="fill:#E6E9ED;" d="M406.174,166.043L406.174,166.043L406.174,166.043l-60.344-60.342c-4.156-4.156-10.92-4.156-15.076,0
	c-4.172,4.172-4.172,10.922,0,15.093l60.326,60.327l0,0c4.172,4.172,10.922,4.172,15.094,0
	C410.345,176.965,410.345,170.215,406.174,166.043z"/>
</svg>