<?xml version="1.0" encoding="iso-8859-1"?>
<!-- Uploaded to: SVG Repo, www.svgrepo.com, Generator: SVG Repo Mixer Tools -->
<svg height="800px" width="800px" version="1.1" id="Layer_1" xmlns="http://www.w3.org/2000/svg" xmlns:xlink="http://www.w3.org/1999/xlink" 
	 viewBox="0 0 512 512" xml:space="preserve">
<path style="fill:#5D9CEC;" d="M160.094,234.672l-0.188,255.984c0,11.781,9.547,21.344,21.328,21.344h149.328
	c11.781,0,21.344-9.562,21.344-21.344l0.188-255.984L160.094,234.672L160.094,234.672z"/>
<path style="fill:#4A89DC;" d="M351.906,469.328c0,11.797-9.562,21.328-21.344,21.328H181.234c-11.578,0-21-9.219-21.312-20.719
	l-0.016,20.719c0,11.781,9.547,21.344,21.328,21.344h149.328c11.781,0,21.344-9.562,21.344-21.344l0.188-255.984h-0.016
	L351.906,469.328z"/>
<polygon style="fill:#CCD1D9;" points="320.281,192 192.281,192 229.234,0 282.562,0 "/>
<polygon style="fill:#4A89DC;" points="320.281,192 192.281,192 160.094,234.672 352.094,234.672 "/>
<g>
	<path style="fill:#E6E9ED;" d="M256.281,310.078c-3.188,2.547-43.672,36.859-42.641,72.891c0.297,26.312,19,43.188,42.641,43.688
		c23.641-0.5,42.344-17.375,42.656-43.688C299.953,346.938,259.484,312.625,256.281,310.078z"/>
	<path style="fill:#E6E9ED;" d="M319.906,149.328h-128c-5.891,0-10.672,4.781-10.672,10.672s4.781,10.672,10.672,10.672h128
		c5.891,0,10.656-4.781,10.656-10.672S325.797,149.328,319.906,149.328z"/>
</g>
</svg>