<?xml version="1.0" encoding="iso-8859-1"?>
<!-- Uploaded to: SVG Repo, www.svgrepo.com, Generator: SVG Repo Mixer Tools -->
<svg height="800px" width="800px" version="1.1" id="Layer_1" xmlns="http://www.w3.org/2000/svg" xmlns:xlink="http://www.w3.org/1999/xlink" 
	 viewBox="0 0 511.988 511.988" xml:space="preserve">
<path style="fill:#F5F7FA;" d="M255.994,383.991c-49.046,0-97.763-12.624-140.918-36.498
	c-39.765-22.031-74.921-53.561-102.061-91.498c27.14-37.938,62.295-69.498,102.06-91.498
	c43.155-23.875,91.873-36.499,140.918-36.499s97.764,12.624,140.918,36.499c39.764,22,74.92,53.561,102.076,91.498
	c-27.156,37.937-62.312,69.467-102.076,91.498C353.758,371.367,305.039,383.991,255.994,383.991z"/>
<path style="fill:#A0D468;" d="M373.318,234.651c0,64.811-52.529,117.342-117.324,117.342s-117.326-52.531-117.326-117.342
	c0-64.779,52.53-117.309,117.326-117.309C320.789,117.342,373.318,169.872,373.318,234.651z"/>
<path style="fill:#8CC153;" d="M298.664,234.651c0,23.562-19.109,42.687-42.67,42.687c-23.562,0-42.671-19.124-42.671-42.687
	c0-23.562,19.109-42.654,42.671-42.654C279.555,191.997,298.664,211.09,298.664,234.651z"/>
<path style="fill:#E6E9ED;" d="M255.994,117.342C150.559,117.342,57.202,172.028,0,255.995
	c57.202,83.967,150.559,138.652,255.994,138.652c105.434,0,198.791-54.686,255.994-138.652
	C454.785,172.028,361.428,117.342,255.994,117.342z M448.254,297.367c-17.295,15.875-36.295,29.594-56.514,40.781
	c-20.516,11.375-42.295,20.124-64.732,26.03c-23.094,6.062-46.984,9.156-71.014,9.156c-24.031,0-47.921-3.094-71.014-9.156
	c-22.421-5.906-44.218-14.655-64.733-26.03c-20.218-11.188-39.218-24.906-56.514-40.781c-13.656-12.53-26.234-26.404-37.499-41.373
	c11.266-14.969,23.843-28.844,37.499-41.374c17.296-15.875,36.296-29.593,56.514-40.78c20.515-11.375,42.312-20.125,64.733-26.031
	c23.093-6.062,46.983-9.156,71.014-9.156c24.029,0,47.92,3.094,71.014,9.156c22.438,5.906,44.217,14.656,64.732,26.031
	c20.219,11.188,39.219,24.905,56.514,40.78c13.656,12.53,26.234,26.405,37.5,41.374C474.488,270.964,461.91,284.837,448.254,297.367
	z"/>
</svg>