<?xml version="1.0" encoding="iso-8859-1"?>
<!-- Uploaded to: SVG Repo, www.svgrepo.com, Generator: SVG Repo Mixer Tools -->
<svg height="800px" width="800px" version="1.1" id="Layer_1" xmlns="http://www.w3.org/2000/svg" xmlns:xlink="http://www.w3.org/1999/xlink" 
	 viewBox="0 0 511.989 511.989" xml:space="preserve">
<g>
	<path style="fill:#AC92EB;" d="M42.663,234.666c0,129.591,105.06,234.65,234.673,234.65c129.592,0,234.652-105.06,234.652-234.65
		C511.988,105.06,406.927,0,277.336,0C147.723,0,42.663,105.059,42.663,234.666z"/>
	<path style="fill:#AC92EB;" d="M277.336,458.66c-59.841,0-116.09-23.296-158.401-65.607c-42.303-42.311-65.6-98.56-65.6-158.387
		c0-59.826,23.296-116.09,65.6-158.387c42.312-42.312,98.561-65.607,158.401-65.607c59.812,0,116.061,23.296,158.371,65.607
		c42.312,42.297,65.625,98.561,65.625,158.387c0,59.827-23.312,116.076-65.625,158.387
		C393.396,435.364,337.148,458.66,277.336,458.66z"/>
</g>
<path style="fill:#E6E9ED;" d="M161.832,336.539c-34.991,26.265-38.194,46.732-40.765,63.186
	c-1.625,10.359-2.695,17.203-12.085,25.141c-8.359,7.062-18.687,9.109-30.647,11.499c-24.039,4.797-53.968,10.766-77.319,60.421
	h0.008c-0.648,1.375-1.023,2.922-1.023,4.531c0,5.891,4.773,10.672,10.664,10.672c4.266,0,7.938-2.516,9.648-6.125h0.008
	c18.773-39.922,39.858-44.125,62.186-48.578c13.609-2.718,27.679-5.515,40.241-16.124c15.477-13.077,17.554-26.39,19.398-38.14
	c2.18-13.938,4.43-28.358,32.492-49.42L161.832,336.539z"/>
<path style="fill:#F5F7FA;" d="M232.159,343.211c-25.187,25.187-59.788,31.405-77.287,13.905
	c-17.507-17.499-11.281-52.108,13.898-77.279c25.179-25.187,59.78-31.405,77.287-13.905
	C263.556,283.431,257.338,318.039,232.159,343.211z"/>
<g>
	<path style="fill:#967ADC;" d="M426.646,154.121c0,32.844-26.609,59.468-59.453,59.468c-32.826,0-59.451-26.624-59.451-59.468
		c0-32.827,26.625-59.451,59.451-59.451C400.037,94.67,426.646,121.294,426.646,154.121z"/>
	<path style="fill:#967ADC;" d="M277.336,0C147.723,0,42.663,105.06,42.663,234.666c0,129.591,105.06,234.65,234.673,234.65
		c129.592,0,234.652-105.06,234.652-234.65C511.988,105.059,406.928,0,277.336,0z M428.178,385.506
		c-19.594,19.609-42.422,34.984-67.812,45.734c-26.295,11.108-54.232,16.749-83.029,16.749c-28.818,0-56.755-5.641-83.043-16.749
		c-25.398-10.75-48.21-26.125-67.811-45.734c-19.601-19.593-34.983-42.404-45.726-67.811C69.64,291.399,64,263.478,64,234.666
		c0-28.812,5.641-56.748,16.757-83.029c10.742-25.405,26.125-48.218,45.726-67.826c19.601-19.594,42.413-34.983,67.811-45.718
		c26.288-11.125,54.225-16.766,83.043-16.766c28.797,0,56.734,5.641,83.029,16.766c25.391,10.734,48.219,26.124,67.812,45.718
		c19.592,19.608,34.967,42.421,45.717,67.826c11.125,26.281,16.75,54.218,16.75,83.029c0,28.812-5.625,56.733-16.75,83.029
		C463.144,343.101,447.769,365.913,428.178,385.506z"/>
</g>
</svg>