<?xml version="1.0" encoding="iso-8859-1"?>
<!-- Uploaded to: SVG Repo, www.svgrepo.com, Generator: SVG Repo Mixer Tools -->
<svg height="800px" width="800px" version="1.1" id="Layer_1" xmlns="http://www.w3.org/2000/svg" xmlns:xlink="http://www.w3.org/1999/xlink" 
	 viewBox="0 0 512 512" xml:space="preserve">
<path style="fill:#434A54;" d="M330.672,58.672H181.336c-11.781,0-21.328,9.547-21.328,21.328v95.672
	c0,11.781,9.547,21.328,21.328,21.328h149.336c11.781,0,21.328-9.547,21.328-21.328V80C352,68.219,342.453,58.672,330.672,58.672z
	 M330.672,175.672H181.336V80h149.336l0,0V175.672z"/>
<g>
	<path style="fill:#ED5564;" d="M458.672,101.328H416c-5.891,0-10.656,4.781-10.656,10.672s4.766,10.672,10.656,10.672h42.672
		c5.891,0,10.672-4.781,10.672-10.672S464.562,101.328,458.672,101.328z"/>
	<path style="fill:#ED5564;" d="M96.008,101.328H53.336c-5.891,0-10.664,4.781-10.664,10.672s4.773,10.672,10.664,10.672h42.672
		c5.891,0,10.664-4.781,10.664-10.672S101.898,101.328,96.008,101.328z"/>
</g>
<path style="fill:#CCD1D9;" d="M512,154.672c0-11.781-9.547-21.344-21.328-21.344H21.336C9.555,133.328,0,142.891,0,154.672V432
	c0,11.781,9.555,21.328,21.336,21.328h469.336c11.781,0,21.328-9.547,21.328-21.328V154.672z"/>
<path style="fill:#E6E9ED;" d="M512,133.328c0-11.781-9.547-21.328-21.328-21.328H21.336C9.555,112,0,121.547,0,133.328v277.328
	C0,422.438,9.555,432,21.336,432h469.336c11.781,0,21.328-9.562,21.328-21.344V133.328z"/>
<ellipse style="fill:#ED5564;" cx="256.01" cy="273.23" rx="117.34" ry="117.33"/>
<path style="fill:#E6E9ED;" d="M213.336,305.234c-11.734,0-21.328-9.609-21.328-21.328v-21.344c0-11.719,9.594-21.328,21.328-21.328
	h85.336c11.734,0,21.328,9.609,21.328,21.328v21.344c0,11.719-9.594,21.328-21.328,21.328H213.336z"/>
<path style="fill:#F5F7FA;" d="M287.906,314.656c0,11.75-9.594,21.344-21.328,21.344h-21.336c-11.734,0-21.336-9.594-21.336-21.344
	v-85.328c0-11.734,9.602-21.328,21.336-21.328h21.336c11.734,0,21.328,9.594,21.328,21.328V314.656z"/>
</svg>