<?xml version="1.0" encoding="iso-8859-1"?>
<!-- Uploaded to: SVG Repo, www.svgrepo.com, Generator: SVG Repo Mixer Tools -->
<svg version="1.1" id="Layer_1" xmlns="http://www.w3.org/2000/svg" xmlns:xlink="http://www.w3.org/1999/xlink" 
	 viewBox="0 0 512 512" xml:space="preserve">
<path style="fill:#DA4453;" d="M213.328,191.995c-11.734,0-21.328-9.602-21.328-21.336v-21.328c0-11.734,9.594-21.336,21.328-21.336
	H320c11.734,0,21.328,9.602,21.328,21.336v21.328c0,11.734-9.594,21.336-21.328,21.336H213.328z"/>
<path style="fill:#E6E9ED;" d="M138.672,277.323H32v64h138.672v-32C170.672,291.651,156.344,277.323,138.672,277.323z"/>
<rect x="32" y="319.999" style="fill:#F4BE8E;" width="448" height="64"/>
<rect x="32" y="319.999" style="fill:#FB6D51;" width="448" height="42.672"/>
<g>
	<path style="fill:#FFD2A6;" d="M96,373.323c-5.891,0-10.672,4.781-10.672,10.672h21.344
		C106.672,378.104,101.891,373.323,96,373.323z"/>
	<path style="fill:#FFD2A6;" d="M160,373.323c-5.891,0-10.672,4.781-10.672,10.672h21.344
		C170.672,378.104,165.891,373.323,160,373.323z"/>
	<path style="fill:#FFD2A6;" d="M224,373.323c-5.891,0-10.672,4.781-10.672,10.672h21.344
		C234.672,378.104,229.891,373.323,224,373.323z"/>
	<path style="fill:#FFD2A6;" d="M288,373.323c-5.891,0-10.672,4.781-10.672,10.672h21.344
		C298.672,378.104,293.891,373.323,288,373.323z"/>
	<path style="fill:#FFD2A6;" d="M352,373.323c-5.891,0-10.672,4.781-10.672,10.672h21.344
		C362.672,378.104,357.891,373.323,352,373.323z"/>
	<path style="fill:#FFD2A6;" d="M416,373.323c-5.891,0-10.672,4.781-10.672,10.672h21.344
		C426.672,378.104,421.891,373.323,416,373.323z"/>
	<rect y="179.099" style="fill:#FFD2A6;" width="53.33" height="247.56"/>
	<rect x="458.67" y="255.999" style="fill:#FFD2A6;" width="53.33" height="170.67"/>
</g>
<path style="fill:#ED5564;" d="M298.672,213.331c0,11.734-9.609,21.328-21.344,21.328H256c-11.734,0-21.328-9.594-21.328-21.328
	V106.659c0-11.734,9.594-21.328,21.328-21.328h21.328c11.734,0,21.344,9.594,21.344,21.328V213.331z"/>
</svg>