<?xml version="1.0" encoding="iso-8859-1"?>
<!-- Uploaded to: SVG Repo, www.svgrepo.com, Generator: SVG Repo Mixer Tools -->
<svg height="800px" width="800px" version="1.1" id="Layer_1" xmlns="http://www.w3.org/2000/svg" xmlns:xlink="http://www.w3.org/1999/xlink" 
	 viewBox="0 0 512.002 512.002" xml:space="preserve">
<g>
	<path style="fill:#CCD1D9;" d="M95.789,65.188c-10.179-5.883-23.195-2.398-29.078,7.789L2.852,183.578
		c-5.875,10.188-2.383,23.203,7.797,29.078l405.553,234.156c10.188,5.875,23.203,2.391,29.078-7.797l63.859-110.609
		c5.891-10.172,2.391-23.203-7.797-29.062L95.789,65.188z"/>
	<path style="fill:#CCD1D9;" d="M10.649,299.344c-10.18,5.859-13.672,18.891-7.797,29.062l63.859,110.609
		c5.883,10.188,18.898,13.672,29.078,7.781l405.554-234.141c10.188-5.875,13.688-18.891,7.797-29.078l-63.86-110.6
		c-5.875-10.188-18.891-13.672-29.078-7.789L10.649,299.344z"/>
</g>
<path style="fill:#E6E9ED;" d="M341.156,21.844c0-11.758-9.547-21.281-21.297-21.281H192.141c-11.758,0-21.281,9.523-21.281,21.281
	v468.297c0,11.75,9.523,21.297,21.281,21.297H319.86c11.75,0,21.297-9.547,21.297-21.297V21.844H341.156z"/>
<path style="fill:#ED5564;" d="M255.938,64.422c-5.875,0-10.648,4.766-10.648,10.641v361.875c0,5.875,4.773,10.641,10.648,10.641
	c5.875,0,10.633-4.766,10.633-10.641V75.062C266.57,69.188,261.812,64.422,255.938,64.422z"/>
<g>
	<path style="fill:#DA4453;" d="M279.125,383.891c-0.109-0.016-12.102-2.297-23.672-9.25c-13.938-8.391-21-19.734-21-33.719
		c0-7.938,3.305-12.609,10.836-16.828v-23.531c-5.969,2.453-11.727,5.297-16.727,9.094c-10.211,7.766-15.391,18.281-15.391,31.266
		c0,21.906,11.039,39.984,31.93,52.344c14.828,8.719,29.602,11.453,30.227,11.562c0.641,0.125,1.281,0.172,1.906,0.172
		c5.031,0,9.516-3.594,10.453-8.734C288.719,390.484,284.891,384.969,279.125,383.891z"/>
	<path style="fill:#DA4453;" d="M266.57,151.336c0.109-0.016,0.203-0.039,0.312-0.055c11.336-2.039,20.492-1.727,20.555-1.727
		c5.875,0.234,10.828-4.336,11.062-10.203c0.234-5.883-4.328-10.828-10.219-11.062c-0.797-0.039-9.812-0.336-21.711,1.484
		L266.57,151.336L266.57,151.336z"/>
	<path style="fill:#DA4453;" d="M292.109,235.094c-8.906-5.875-20.031-8.898-30.812-11.82
		c-23.758-6.453-37.195-11.086-37.227-31.156c-0.031-11.031,3.352-19.664,10.305-26.391c3.195-3.078,6.953-5.547,10.914-7.555
		v-23.109c-9.102,3.281-18.195,8.133-25.633,15.289c-11.227,10.82-16.914,24.883-16.883,41.805
		c0.031,16.555,6.375,29.375,18.836,38.094c10.023,7.023,22.273,10.344,34.109,13.562C278.672,250.047,288,253.945,288,267.625
		c0,12.922-6.641,18.688-21.43,24.828v22.859c9.289-3.422,18.68-7.141,26.461-13.281c10.781-8.484,16.25-20.062,16.25-34.406
		C309.281,253.562,303.5,242.609,292.109,235.094z"/>
</g>
</svg>