<?xml version="1.0" encoding="iso-8859-1"?>
<!-- Uploaded to: SVG Repo, www.svgrepo.com, Generator: SVG Repo Mixer Tools -->
<svg version="1.1" id="Layer_1" xmlns="http://www.w3.org/2000/svg" xmlns:xlink="http://www.w3.org/1999/xlink" 
	 viewBox="0 0 511.987 511.987" xml:space="preserve">
<path style="fill:#E6E9ED;" d="M208.987,163.563c3.047,11.375-3.703,23.078-15.085,26.125L70.264,222.811
	c-11.382,3.062-23.078-3.703-26.125-15.077L11.008,84.096c-3.047-11.375,3.711-23.078,15.085-26.124l123.638-33.125
	c11.382-3.062,23.078,3.703,26.125,15.078L208.987,163.563z"/>
<g>
	<path style="fill:#CCD1D9;" d="M88.279,63.393c1.531,5.688-1.852,11.531-7.539,13.062c-5.687,1.531-11.539-1.859-13.062-7.547
		s1.852-11.531,7.539-13.062C80.912,54.331,86.756,57.706,88.279,63.393z"/>
	<path style="fill:#CCD1D9;" d="M57.374,71.675c1.523,5.688-1.852,11.546-7.547,13.062c-5.688,1.531-11.531-1.844-13.062-7.546
		c-1.523-5.688,1.852-11.531,7.546-13.062C49.999,62.612,55.85,65.987,57.374,71.675z"/>
	<path style="fill:#CCD1D9;" d="M119.192,55.113c1.523,5.687-1.851,11.531-7.546,13.062c-5.688,1.516-11.539-1.859-13.062-7.547
		c-1.523-5.687,1.851-11.531,7.546-13.062C111.818,46.05,117.669,49.425,119.192,55.113z"/>
	<path style="fill:#CCD1D9;" d="M150.098,46.831c1.523,5.688-1.852,11.531-7.539,13.062c-5.695,1.516-11.539-1.859-13.062-7.546
		c-1.531-5.688,1.852-11.531,7.539-13.062S148.575,41.144,150.098,46.831z"/>
</g>
<g>
	<path style="fill:#4FC2E9;" d="M501.332,387.354h-53.328h-0.016c-5.891,0-10.656,4.766-10.656,10.656s4.766,10.672,10.656,10.672
		H501.3c0,0,0.016,0,0.031,0c5.875,0,10.656-4.781,10.656-10.672S507.207,387.354,501.332,387.354z"/>
	<path style="fill:#4FC2E9;" d="M438.348,364.074l37.703-37.687c0-0.016,0-0.016,0-0.016c4.188-4.172,4.172-10.922,0-15.094
		c-4.156-4.156-10.906-4.156-15.078,0l-37.701,37.703l0,0c-4.172,4.172-4.172,10.937,0,15.093
		C427.428,368.246,434.178,368.246,438.348,364.074z"/>
	<path style="fill:#4FC2E9;" d="M438.379,431.995c-0.016-0.016-0.016-0.031-0.031-0.031c-4.17-4.172-10.92-4.172-15.076,0
		c-4.172,4.155-4.172,10.905,0,15.077l37.686,37.702l0.016,0.016c4.172,4.156,10.922,4.156,15.078,0
		c4.188-4.172,4.172-10.922,0-15.094L438.379,431.995z"/>
</g>
<polygon style="fill:#5D9CEC;" points="267.142,312.684 198.659,57.081 0,110.315 99.958,483.352 99.958,483.352 383.99,483.352 
	383.99,312.684 "/>
<g>
	<rect x="312.914" y="312.683" style="fill:#4A89DC;" width="71.08" height="170.67"/>
	<path style="fill:#4A89DC;" d="M267.142,312.684l-2.656-9.922l-49.343,49.344l-0.008,0.016c-4.164,4.155-4.164,10.921,0,15.077
		c4.164,4.172,10.921,4.172,15.085,0l54.521-54.515L267.142,312.684L267.142,312.684z"/>
</g>
</svg>