<?xml version="1.0" encoding="iso-8859-1"?>
<!-- Uploaded to: SVG Repo, www.svgrepo.com, Generator: SVG Repo Mixer Tools -->
<svg height="800px" width="800px" version="1.1" id="Layer_1" xmlns="http://www.w3.org/2000/svg" xmlns:xlink="http://www.w3.org/1999/xlink" 
	 viewBox="0 0 511.988 511.988" xml:space="preserve">
<g>
	<path style="fill:#DBADA2;" d="M319.805,106.561c0,17.624-14.281,31.905-31.906,31.905c-17.623,0-31.904-14.281-31.904-31.905
		c0-17.625,14.281-31.905,31.904-31.905C305.523,74.656,319.805,88.936,319.805,106.561z"/>
	<polygon style="fill:#DBADA2;" points="255.994,159.997 298.664,136.623 277.32,76.469 89.514,159.997 	"/>
</g>
<path style="fill:#EAC6BB;" d="M282.664,287.994h197.324c17.672,0,32-14.312,32-31.999s-14.328-32-32-32H282.664l0,0
	c-2.953,0-5.344-2.375-5.344-5.344c0-2.937,2.391-5.312,5.344-5.312h165.324c17.672,0,32-14.344,32-31.999c0-17.688-14.328-32-32-32
	H277.32h-63.997c0,0-67.592,0-69.327,0C64.467,149.34,0,213.808,0,293.336c0,79.467,64.373,143.871,143.809,143.996h-0.062h240.244
	c28.344,0,42.672-14.343,42.672-31.999c0-17.688-14.328-31.999-32-31.999H282.664c-2.953,0-5.344-2.406-5.344-5.344
	s2.391-5.344,5.344-5.344h165.324c17.672,0,32-14.312,32-31.999c0-17.656-14.328-32-32-32H282.664c-2.953,0-5.344-2.374-5.344-5.312
	C277.32,290.369,279.711,287.994,282.664,287.994z"/>
<path style="fill:#DBADA2;" d="M96.623,332.681c-25.468,0-43.499-2.094-44.53-2.219c-5.859-0.688-10.047-5.969-9.344-11.844
	c0.688-5.844,5.984-10.031,11.828-9.344c1.547,0.188,135.043,15.094,182.746-38.998c3.906-4.438,10.64-4.844,15.062-0.938
	c4.422,3.875,4.844,10.624,0.938,15.03c-23.484,26.655-64.764,42.468-122.685,46.999
	C118.497,332.337,106.951,332.681,96.623,332.681z"/>
<g>
	<path style="fill:#424953;" d="M207.573,331.148c-4.078,0-7.969-2.344-9.75-6.312l-13.484-30.155
		c-2.391-5.375,0.016-11.688,5.391-14.094s11.687,0,14.093,5.375l13.484,30.155c2.406,5.375,0,11.688-5.391,14.094
		C210.511,330.837,209.026,331.148,207.573,331.148z"/>
	<path style="fill:#424953;" d="M155.575,343.337c-5.219,0-9.781-3.844-10.547-9.156l-4.734-33
		c-0.828-5.843,3.219-11.249,9.047-12.062c5.828-0.844,11.234,3.188,12.078,9.03l4.719,33c0.844,5.844-3.203,11.25-9.031,12.094
		C156.59,343.306,156.075,343.337,155.575,343.337z"/>
	<path style="fill:#424953;" d="M106.841,348.992c-5.828,0-10.593-4.688-10.656-10.562l-0.328-30
		c-0.078-5.875,4.656-10.719,10.546-10.781c5.875-0.094,10.719,4.656,10.781,10.562l0.328,30
		c0.078,5.875-4.656,10.719-10.547,10.781C106.935,348.992,106.888,348.992,106.841,348.992z"/>
</g>
</svg>