<?xml version="1.0" encoding="iso-8859-1"?>
<!-- Uploaded to: SVG Repo, www.svgrepo.com, Generator: SVG Repo Mixer Tools -->
<svg height="800px" width="800px" version="1.1" id="Layer_1" xmlns="http://www.w3.org/2000/svg" xmlns:xlink="http://www.w3.org/1999/xlink" 
	 viewBox="0 0 511.994 511.994" xml:space="preserve">
<polygon style="fill:#ED5564;" points="376.822,309.164 271.106,203.448 266.685,199.026 266.685,0 245.309,0 245.309,199.026 
	240.888,203.448 240.888,203.448 135.172,309.164 150.281,324.273 255.997,218.557 361.713,324.273 "/>
<path style="fill:#F4BE8E;" d="M212.123,99.685c-31.14-16-216.042,26.234-174.292,395.491c3.015,26.671,25.202,20.89,95.06-12.172
	c53.608-25.375,87.576-5.906,99.123-17.812C257.856,438.52,243.278,115.67,212.123,99.685z"/>
<g style="opacity:0.2;">
	<path style="fill:#FFFFFF;" d="M59.189,495.176c-34.75-307.352,87.513-388.131,147.449-397.365
		C163.811,88.467-1.919,143.574,37.83,495.176c1.719,15.203,9.671,19.858,29.124,14.938
		C62.423,507.629,60.048,502.691,59.189,495.176z"/>
</g>
<path style="fill:#F4BE8E;" d="M299.871,99.685c31.141-16,216.041,26.234,174.293,395.491c-3.016,26.671-25.203,20.89-95.061-12.172
	c-53.607-25.375-87.576-5.906-99.123-17.812C254.138,438.52,268.716,115.67,299.871,99.685z"/>
<g style="opacity:0.2;">
	<path style="fill:#FFFFFF;" d="M289.074,469.113c4.234,0.562,9.438,0.391,15.594,0.172
		C299.012,468.973,293.809,468.988,289.074,469.113z"/>
	<path style="fill:#FFFFFF;" d="M305.355,97.81c59.936,9.234,182.199,90.014,147.449,397.365
		c-0.859,7.516-3.234,12.453-7.766,14.938c19.453,4.921,27.406,0.266,29.125-14.938C513.913,143.574,348.183,88.467,305.355,97.81z"
		/>
</g>
</svg>