<?xml version="1.0" encoding="iso-8859-1"?>
<!-- Uploaded to: SVG Repo, www.svgrepo.com, Generator: SVG Repo Mixer Tools -->
<svg height="800px" width="800px" version="1.1" id="Layer_1" xmlns="http://www.w3.org/2000/svg" xmlns:xlink="http://www.w3.org/1999/xlink" 
	 viewBox="0 0 512 512" xml:space="preserve">
<g>
	<path style="fill:#CCD1D9;" d="M437.344,181.344H296.188v149.312h141.156c41.219,0,74.656-33.406,74.656-74.641
		C512,214.766,478.562,181.344,437.344,181.344z M437.344,309.344H317.531V202.672h119.812c29.406,0,53.312,23.938,53.312,53.344
		C490.656,285.406,466.75,309.344,437.344,309.344z"/>
	<path style="fill:#CCD1D9;" d="M0,256.016c0,41.234,33.422,74.641,74.672,74.641h141.141V181.344H74.672
		C33.422,181.344,0,214.781,0,256.016z M194.484,309.344H74.672c-29.406,0-53.344-23.938-53.344-53.328
		c0-29.406,23.938-53.344,53.344-53.344h119.812V309.344z"/>
</g>
<path style="fill:#48CFAD;" d="M416,341.344c0,11.781-9.562,21.312-21.344,21.312H117.328c-11.781,0-21.328-9.531-21.328-21.312
	V170.672c0-11.781,9.547-21.328,21.328-21.328h277.328c11.781,0,21.344,9.547,21.344,21.328V341.344z"/>
<g style="opacity:0.2;">
	<path style="fill:#FFFFFF;" d="M394.656,149.344h-21.312c11.781,0,21.312,9.547,21.312,21.328v170.672
		c0,11.781-9.531,21.312-21.312,21.312h21.312c11.781,0,21.344-9.531,21.344-21.312V170.672
		C416,158.891,406.438,149.344,394.656,149.344z"/>
</g>
<g>
	<path style="fill:#37BC9B;" d="M362.859,298.656H149.516v0.031c-0.062,0-0.125-0.031-0.188-0.031
		c-5.875,0-10.656,4.781-10.656,10.688c0,5.875,4.781,10.656,10.656,10.656c0.062,0,0.125,0,0.188,0l0,0H362.86
		c5.891,0,10.672-4.781,10.672-10.656C373.531,303.438,368.75,298.656,362.859,298.656z"/>
	<path style="fill:#37BC9B;" d="M149.234,277.344c0.062,0,0.125-0.031,0.188-0.031v0.031h213.344
		c5.891,0,10.672-4.781,10.672-10.672s-4.781-10.656-10.672-10.656H149.422l0,0c-0.062,0-0.125,0-0.188,0
		c-5.891,0-10.656,4.766-10.656,10.656S143.344,277.344,149.234,277.344z"/>
</g>
</svg>