<?xml version="1.0" encoding="iso-8859-1"?>
<!-- Uploaded to: SVG Repo, www.svgrepo.com, Generator: SVG Repo Mixer Tools -->
<svg height="800px" width="800px" version="1.1" id="Layer_1" xmlns="http://www.w3.org/2000/svg" xmlns:xlink="http://www.w3.org/1999/xlink" 
	 viewBox="0 0 512 512" xml:space="preserve">
<polygon style="fill:#8CC153;" points="405.328,440.842 106.672,440.842 21.328,234.686 490.672,234.686 "/>
<path style="fill:#A0D468;" d="M256,440.842c141.391,0,256-114.609,256-256H0C0,326.232,114.609,440.842,256,440.842z"/>
<path style="fill:#8CC153;" d="M512,184.842c0,23.562-114.609,42.672-256,42.672S0,208.404,0,184.842s114.609-42.672,256-42.672
	S512,161.279,512,184.842z"/>
<path style="fill:#CCD1D9;" d="M416.984,218.014l75.641-82.234l-45.25-45.25L299.094,226.904
	C343.266,225.654,383.594,222.529,416.984,218.014z"/>
<path style="fill:#E6E9ED;" d="M499.703,142.842c-16.406,16.406-43,16.406-59.406,0c-16.391-16.391-16.391-42.984,0-59.391
	c16.406-16.391,43-16.391,59.406,0C516.094,99.857,516.094,126.451,499.703,142.842z"/>
<path id="SVGCleanerId_0" style="fill:#E6E9ED;" d="M213.328,355.514c-11.734,0-21.328-9.609-21.328-21.344v-21.328
	c0-11.734,9.594-21.328,21.328-21.328h85.344c11.734,0,21.328,9.594,21.328,21.328v21.328c0,11.734-9.594,21.344-21.328,21.344
	H213.328z"/>
<g>
	<path id="SVGCleanerId_0_1_" style="fill:#E6E9ED;" d="M213.328,355.514c-11.734,0-21.328-9.609-21.328-21.344v-21.328
		c0-11.734,9.594-21.328,21.328-21.328h85.344c11.734,0,21.328,9.594,21.328,21.328v21.328c0,11.734-9.594,21.344-21.328,21.344
		H213.328z"/>
</g>
<path id="SVGCleanerId_1" style="fill:#F5F7FA;" d="M288,366.17c0,11.734-9.594,21.344-21.328,21.344h-21.344
	c-11.734,0-21.328-9.609-21.328-21.344v-85.328c0-11.734,9.594-21.328,21.328-21.328h21.344c11.734,0,21.328,9.594,21.328,21.328
	V366.17z"/>
<g>
	<path id="SVGCleanerId_1_1_" style="fill:#F5F7FA;" d="M288,366.17c0,11.734-9.594,21.344-21.328,21.344h-21.344
		c-11.734,0-21.328-9.609-21.328-21.344v-85.328c0-11.734,9.594-21.328,21.328-21.328h21.344c11.734,0,21.328,9.594,21.328,21.328
		V366.17z"/>
</g>
</svg>