<?xml version="1.0" encoding="iso-8859-1"?>
<!-- Uploaded to: SVG Repo, www.svgrepo.com, Generator: SVG Repo Mixer Tools -->
<svg height="800px" width="800px" version="1.1" id="Layer_1" xmlns="http://www.w3.org/2000/svg" xmlns:xlink="http://www.w3.org/1999/xlink" 
	 viewBox="0 0 512 512" xml:space="preserve">
<path style="fill:#434A54;" d="M256,0c-29.453,0-53.328,23.875-53.328,53.328v98.329h106.656V53.328C309.328,23.875,285.454,0,256,0
	z"/>
<path style="fill:#AC92EA;" d="M405.328,213.328V96c0-11.781-9.547-21.343-21.328-21.343H128c-11.781,0-21.328,9.562-21.328,21.343
	v117.328c0,11.781,9.547,21.329,21.328,21.329V352c-11.781,0-21.328,9.547-21.328,21.329v117.327
	c0,11.782,9.547,21.344,21.328,21.344h256c11.781,0,21.328-9.562,21.328-21.344V373.329c0-11.782-9.547-21.329-21.328-21.329
	V234.657C395.781,234.657,405.328,225.109,405.328,213.328z"/>
<g>
	<path style="fill:#967ADA;" d="M149.328,234.657H128V256h21.328c5.891,0,10.672-4.781,10.672-10.672
		C160,239.438,155.219,234.657,149.328,234.657z"/>
	<path style="fill:#967ADA;" d="M149.328,330.656H128V352h21.328c5.891,0,10.672-4.78,10.672-10.671
		S155.219,330.656,149.328,330.656z"/>
	<path style="fill:#967ADA;" d="M362.673,352H384v-21.344h-21.327c-5.892,0-10.673,4.782-10.673,10.673S356.781,352,362.673,352z"/>
	<path style="fill:#967ADA;" d="M362.673,256H384v-21.343h-21.327c-5.892,0-10.673,4.781-10.673,10.671
		C352,251.219,356.781,256,362.673,256z"/>
</g>
<path id="SVGCleanerId_0" style="fill:#E6E9ED;" d="M213.328,325.329C201.594,325.329,192,315.734,192,304v-21.344
	c0-11.718,9.594-21.327,21.328-21.327h85.345c11.733,0,21.327,9.609,21.327,21.327V304c0,11.734-9.594,21.329-21.327,21.329H213.328
	z"/>
<g>
	<path id="SVGCleanerId_0_1_" style="fill:#E6E9ED;" d="M213.328,325.329C201.594,325.329,192,315.734,192,304v-21.344
		c0-11.718,9.594-21.327,21.328-21.327h85.345c11.733,0,21.327,9.609,21.327,21.327V304c0,11.734-9.594,21.329-21.327,21.329
		H213.328z"/>
</g>
<path id="SVGCleanerId_1" style="fill:#F4F6F9;" d="M288,336c0,11.734-9.594,21.329-21.327,21.329h-21.345
	C233.594,357.329,224,347.734,224,336v-85.343c0-11.719,9.594-21.329,21.328-21.329h21.345c11.733,0,21.327,9.609,21.327,21.329V336
	z"/>
<g>
	<path id="SVGCleanerId_1_1_" style="fill:#F4F6F9;" d="M288,336c0,11.734-9.594,21.329-21.327,21.329h-21.345
		C233.594,357.329,224,347.734,224,336v-85.343c0-11.719,9.594-21.329,21.328-21.329h21.345c11.733,0,21.327,9.609,21.327,21.329
		V336z"/>
</g>
</svg>