<?xml version="1.0" encoding="iso-8859-1"?>
<!-- Uploaded to: SVG Repo, www.svgrepo.com, Generator: SVG Repo Mixer Tools -->
<svg height="800px" width="800px" version="1.1" id="Layer_1" xmlns="http://www.w3.org/2000/svg" xmlns:xlink="http://www.w3.org/1999/xlink" 
	 viewBox="0 0 511.989 511.989" xml:space="preserve">
<path style="fill:#AC92EB;" d="M319.853,489.536c0,11.75-9.531,21.281-21.297,21.281H64.437c-11.75,0-21.281-9.531-21.281-21.281
	V184.263l74.499-102.155h127.699l74.499,102.154V489.536z"/>
<g style="opacity:0.2;">
	<path style="fill:#FFFFFF;" d="M245.354,82.108l-31.14-11.875l84.342,114.029v305.273c0,11.75-9.516,21.281-21.281,21.281h21.281
		c11.766,0,21.297-9.531,21.297-21.281V184.263L245.354,82.108z"/>
</g>
<path style="fill:#E6E9ED;" d="M255.995,63.858c0,11.75-9.531,21.281-21.28,21.281h-106.42c-11.765,0-21.28-9.531-21.28-21.281
	V21.281c0-11.749,9.516-21.28,21.28-21.28h106.42c11.749,0,21.28,9.531,21.28,21.28V63.858z"/>
<g>
	<path style="fill:#CCD1D9;" d="M160.215,10.641c5.875,0,10.641-4.766,10.641-10.641h-21.28
		C149.576,5.876,154.342,10.641,160.215,10.641z"/>
	<path style="fill:#CCD1D9;" d="M202.777,10.641c5.891,0,10.656-4.766,10.656-10.641h-21.296
		C192.138,5.876,196.903,10.641,202.777,10.641z"/>
	<path style="fill:#CCD1D9;" d="M383.695,162.966v327.742c0,11.75,9.531,21.281,21.281,21.281c11.765,0,21.296-9.531,21.296-21.281
		V162.966H383.695z"/>
</g>
<g>
	<path style="fill:#E6E9ED;" d="M468.833,149.091c0,46.969-28.594,85.029-63.857,85.029c-35.266,0-63.843-38.061-63.843-85.029
		s28.577-85.045,63.843-85.045C440.24,64.046,468.833,102.123,468.833,149.091z"/>
	<path style="fill:#E6E9ED;" d="M128.295,340.54c-11.702,0-21.28-9.578-21.28-21.281v-21.281c0-11.702,9.578-21.279,21.28-21.279
		h106.42c11.702,0,21.28,9.577,21.28,21.279v21.281c0,11.703-9.578,21.281-21.28,21.281H128.295z"/>
</g>
<path style="fill:#F5F7FA;" d="M213.433,361.836c0,11.703-9.578,21.28-21.296,21.28h-21.281c-11.703,0-21.28-9.577-21.28-21.28
	V255.417c0-11.719,9.577-21.297,21.28-21.297h21.281c11.718,0,21.296,9.578,21.296,21.297V361.836z"/>
</svg>