<?xml version="1.0" encoding="iso-8859-1"?>
<!-- Uploaded to: SVG Repo, www.svgrepo.com, Generator: SVG Repo Mixer Tools -->
<svg height="800px" width="800px" version="1.1" id="Layer_1" xmlns="http://www.w3.org/2000/svg" xmlns:xlink="http://www.w3.org/1999/xlink" 
	 viewBox="0 0 511.989 511.989" xml:space="preserve">
<path style="fill:#FFCE54;" d="M364.737,405.006c-2.938,2.328-40.092,33.827-39.154,66.889
	c0.281,24.141,17.437,39.641,39.154,40.094c21.688-0.453,38.844-15.953,39.125-40.094
	C404.8,438.833,367.643,407.334,364.737,405.006z"/>
<path style="fill:#EAC6BB;" d="M365.925,239.932c0,0-35.654-239.932-109.942-239.932c-74.279,0-109.919,239.932-109.919,239.932
	c-30.343,10.719-52.093,39.624-52.093,73.623c0,43.046,34.843,77.951,77.873,78.061c18.734,21.219,49.437,35.047,84.139,35.047
	c34.726,0,65.413-13.828,84.162-35.047c43.03-0.109,77.873-35.015,77.873-78.061C418.017,279.556,396.268,250.65,365.925,239.932z"
	/>
<g style="opacity:0.2;">
	<path style="fill:#FFFFFF;" d="M365.925,239.932c0,0-35.654-239.932-109.942-239.932c-3.641,0-7.203,0.594-10.656,1.688
		C312.365,23,344.583,239.932,344.583,239.932c30.343,10.719,52.093,39.624,52.093,73.623c0,43.046-34.844,77.951-77.873,78.061
		c-16.781,19.016-43.187,32.094-73.476,34.594c3.5,0.297,7.062,0.453,10.656,0.453c34.726,0,65.413-13.828,84.162-35.047
		c43.03-0.109,77.873-35.015,77.873-78.061C418.017,279.556,396.268,250.65,365.925,239.932z"/>
</g>
</svg>