<?xml version="1.0" encoding="iso-8859-1"?>
<!-- Uploaded to: SVG Repo, www.svgrepo.com, Generator: SVG Repo Mixer Tools -->
<svg height="800px" width="800px" version="1.1" id="Layer_1" xmlns="http://www.w3.org/2000/svg" xmlns:xlink="http://www.w3.org/1999/xlink" 
	 viewBox="0 0 511.988 511.988" xml:space="preserve">
<path style="fill:#EAC6BB;" d="M387.913,287.931c0,0-42.765-287.931-131.918-287.931c-89.154,0-131.919,287.931-131.919,287.931
	c-36.405,12.843-62.499,47.53-62.499,88.341c0,51.656,41.812,93.545,93.436,93.654c22.483,25.468,59.342,42.062,100.981,42.062
	s78.499-16.594,100.981-42.062c51.625-0.109,93.436-41.998,93.436-93.654C450.41,335.461,424.318,300.773,387.913,287.931z"/>
<g style="opacity:0.2;">
	<path style="fill:#FFFFFF;" d="M387.913,287.931c0,0-42.765-287.931-131.918-287.931c-7.438,0-14.547,2.016-21.328,5.688
		c74.639,40.343,110.575,282.243,110.575,282.243c36.405,12.843,62.515,47.53,62.515,88.341c0,51.656-41.828,93.545-93.451,93.654
		c-18.562,21.016-46.905,35.984-79.639,40.578c6.921,0.969,14.046,1.484,21.328,1.484c41.639,0,78.499-16.594,100.981-42.062
		c51.625-0.109,93.436-41.998,93.436-93.654C450.41,335.461,424.318,300.773,387.913,287.931z"/>
</g>
</svg>