<?xml version="1.0" encoding="iso-8859-1"?>
<!-- Uploaded to: SVG Repo, www.svgrepo.com, Generator: SVG Repo Mixer Tools -->
<svg version="1.1" id="Layer_1" xmlns="http://www.w3.org/2000/svg" xmlns:xlink="http://www.w3.org/1999/xlink" 
	 viewBox="0 0 511.988 511.988" xml:space="preserve">
<g>
	<rect x="74.66" y="149.344" style="fill:#656D78;" width="63.998" height="85.33"/>
	<rect x="373.33" y="149.294" style="fill:#656D78;" width="63.998" height="85.33"/>
</g>
<path style="fill:#48CFAD;" d="M394.514,298.664c0,11.734-9.062,24.547-20.094,28.453c0,0-40.092,14.219-118.567,14.219
	c-78.482,0-118.56-14.219-118.56-14.219c-11.062-3.906-20.109-16.719-20.109-28.453V127.997c0-11.733,6.421-28.469,14.281-37.187
	l67.451-74.951C206.76,7.14,222.791,0,234.525,0h42.646c11.75,0,27.781,7.141,35.625,15.859l67.436,74.951
	c7.875,8.718,14.281,25.453,14.281,37.187L394.514,298.664L394.514,298.664z"/>
<path style="opacity:0.2;fill:#FFFFFF;enable-background:new    ;" d="M380.233,90.81l-67.436-74.951
	C304.953,7.14,288.922,0,277.172,0h-21.319c11.734,0,27.756,7.141,35.6,15.859L358.92,90.81c7.844,8.718,14.25,25.453,14.25,37.187
	v170.667c0,11.734-9.031,24.547-20.093,28.453c0,0-36.468,12.922-107.896,14.125c3.484,0.062,7.031,0.094,10.672,0.094
	c78.475,0,118.567-14.219,118.567-14.219c11.031-3.906,20.094-16.719,20.094-28.453V127.997
	C394.514,116.264,388.108,99.528,380.233,90.81z"/>
<path style="fill:#CCD1D9;" d="M205.464,511.988c51.077-51.969,82.583-123.232,82.583-201.84v-54.154h-64.006v54.154
	c0,30.266-5.922,59.593-17.578,87.186c-11.281,26.672-27.453,50.624-48.046,71.232c-17.937,17.938-38.437,32.516-61.061,43.422
	H205.464z"/>
<g>
	<path style="fill:#E6E9ED;" d="M159.371,467.566l47.608,42.875c4.953-5.109,9.703-10.406,14.265-15.875l-47.592-42.858
		C169.168,457.191,164.403,462.488,159.371,467.566z"/>
	<path style="fill:#E6E9ED;" d="M188.715,430.99l55.452,32.014c3.766-6.016,7.328-12.187,10.656-18.483l-55.468-32.03
		C196.105,418.834,192.558,425.006,188.715,430.99z"/>
	<path style="fill:#E6E9ED;" d="M216.292,368.772c-1.859,6.859-4.031,13.624-6.547,20.296l60.92,19.797
		c2.414-6.656,4.602-13.422,6.569-20.297L216.292,368.772z"/>
	<path style="fill:#E6E9ED;" d="M221.557,343.726l63.678,6.688c0.969-7,1.719-14.078,2.188-21.219l-63.725-6.703
		C223.307,329.633,222.604,336.711,221.557,343.726z"/>
	<path style="fill:#E6E9ED;" d="M202.527,202.667v53.327c0,29.452,23.875,53.342,53.327,53.342c29.444,0,53.319-23.89,53.319-53.342
		v-53.327H202.527z"/>
</g>
</svg>