<?xml version="1.0" encoding="iso-8859-1"?>
<!-- Uploaded to: SVG Repo, www.svgrepo.com, Generator: SVG Repo Mixer Tools -->
<svg height="800px" width="800px" version="1.1" id="Layer_1" xmlns="http://www.w3.org/2000/svg" xmlns:xlink="http://www.w3.org/1999/xlink" 
	 viewBox="0 0 511.98 511.98" xml:space="preserve">
<path style="fill:#EAC6BB;" d="M372.849,23.6C242.931-43.288,43.326,36.71,82.169,204.127l-19.468,23.562l-34.405,62.968
	l33.476,26.608l-1.391,44.733l13.367,19.171c0,0-15.929,59.843,8.421,68.343c45.413,15.843,98.896,8.046,98.896,8.046l2.656,54.422
	h225.925c0,0-22.359-112.826,11.593-160.762C455.191,303.281,565.939,123.004,372.849,23.6z"/>
<g style="opacity:0.2;">
	<path style="fill:#FFFFFF;" d="M372.849,23.6C338.585,5.945,299.461-1.461,261.141,0.241c31.304,1.391,62.444,8.984,90.365,23.359
		c193.104,99.404,82.357,279.681,48.405,327.618c-33.953,47.936-11.594,160.762-11.594,160.762h21.328
		c0,0-22.359-112.826,11.593-160.762C455.191,303.281,565.939,123.004,372.849,23.6z"/>
</g>
<g>
	<path style="fill:#434A54;" d="M205.565,269.314l22.531-7.828c5.562-1.922,8.508-8,6.578-13.579
		c-1.93-5.562-8.016-8.5-13.578-6.578l-22.531,7.828c-5.562,1.938-8.507,8.016-6.578,13.579c1.531,4.406,5.664,7.172,10.078,7.172
		C203.221,269.908,204.408,269.72,205.565,269.314z"/>
	<path style="fill:#434A54;" d="M148.074,272.924l23.828,1c0.156,0,0.305,0,0.453,0c5.688,0,10.414-4.484,10.648-10.219
		c0.242-5.891-4.328-10.86-10.21-11.094l-23.835-1c-5.875-0.234-10.851,4.328-11.101,10.219
		C137.614,267.72,142.191,272.689,148.074,272.924z"/>
	<path style="fill:#434A54;" d="M120.153,271.33c4.43,0,8.57-2.781,10.086-7.203c1.914-5.578-1.055-11.641-6.625-13.563
		l-22.554-7.734c-5.57-1.922-11.64,1.047-13.554,6.625c-1.906,5.562,1.055,11.641,6.625,13.547l22.562,7.75
		C117.833,271.142,119.004,271.33,120.153,271.33z"/>
	<path style="fill:#434A54;" d="M222.814,329.625c-5.242-2.688-11.671-0.609-14.359,4.625l-10.882,21.234
		c-2.688,5.233-0.617,11.671,4.625,14.358c1.562,0.797,3.227,1.172,4.859,1.172c3.875,0,7.617-2.125,9.5-5.797l10.882-21.233
		C230.127,338.75,228.056,332.312,222.814,329.625z"/>
	<path style="fill:#434A54;" d="M227.463,274.095c-5.883-0.312-10.898,4.218-11.203,10.093l-1.25,23.827
		c-0.305,5.875,4.218,10.891,10.101,11.203c0.188,0,0.375,0.016,0.562,0.016c5.641,0,10.344-4.422,10.648-10.109l1.242-23.827
		C237.868,279.423,233.345,274.408,227.463,274.095z"/>
	<path style="fill:#434A54;" d="M177.667,371.999l-19.789,13.312c-4.891,3.281-6.188,9.922-2.898,14.797
		c2.055,3.078,5.421,4.719,8.859,4.719c2.047,0,4.117-0.578,5.938-1.812l19.796-13.312c4.891-3.281,6.188-9.906,2.898-14.796
		C189.19,370.014,182.557,368.718,177.667,371.999z"/>
	<path style="fill:#434A54;" d="M136.254,398.185l-22.406,8.188c-5.531,2.031-8.375,8.156-6.352,13.688
		c1.578,4.312,5.664,7,10.016,7c1.218,0,2.453-0.203,3.664-0.656l22.398-8.188c5.531-2.016,8.383-8.141,6.359-13.672
		C147.91,398.998,141.777,396.154,136.254,398.185z"/>
</g>
</svg>