<?xml version="1.0" encoding="iso-8859-1"?>
<!-- Uploaded to: SVG Repo, www.svgrepo.com, Generator: SVG Repo Mixer Tools -->
<svg height="800px" width="800px" version="1.1" id="Layer_1" xmlns="http://www.w3.org/2000/svg" xmlns:xlink="http://www.w3.org/1999/xlink" 
	 viewBox="0 0 511.96 511.96" xml:space="preserve">
<polygon style="fill:#FFD2A6;" points="227.481,415.811 215.841,236.543 284.319,236.543 271.54,415.811 "/>
<path style="fill:#F4BE8E;" d="M204.468,225.889l13.029,200.578h63.98l14.279-200.578H204.468z M261.602,405.141H237.48
	L227.216,247.2h45.636L261.602,405.141z"/>
<path style="fill:#FFD2A6;" d="M193.749,501.305c-45.605,0-71.854-1.969-82.244-3.75c0.953-9.687,5.422-16.654,14-22.092
	c10.514-6.656,25.826-10.249,40.637-13.749c20.889-4.921,42.402-9.999,53.793-24.592h63.572c4.281,19.421,7.531,29.372,9.781,36.247
	c2.656,8.047,3.812,11.578,4.094,23.436C282.569,499.133,242.214,501.305,193.749,501.305L193.749,501.305z"/>
<path style="fill:#F4BE8E;" d="M292.131,426.467h-77.962c-18.467,35.935-116.318,13.717-113.459,77.963
	c0.25,5.281,45.105,7.53,93.039,7.53c55.152,0,114.38-2.983,114.38-7.78C308.129,469.12,303.756,482.838,292.131,426.467z
	 M261.571,489.087c-19.888,1-43.98,1.547-67.822,1.547c-31.701,0-53.934-0.953-67.541-2.078c1.373-1.562,3.061-2.844,4.998-4.077
	c9-5.703,23.42-9.109,37.373-12.391c11.498-2.703,23.373-5.5,33.92-9.905c9.248-3.858,16.623-8.624,22.264-14.39h50.246
	c3.469,14.577,6.188,22.889,8.154,28.889c1.406,4.312,2.312,7.062,2.875,10.687C280.415,487.931,272.508,488.525,261.571,489.087z"
	/>
<path style="fill:#FFD2A6;" d="M281.133,237.887c-5.5-0.219-19.375-4.156-35.123-11.28c-16.342-7.421-25.232-13.905-27.826-16.937
	c4.672-35.184,18.576-77.525,37.404-113.741c18.607-35.748,40.761-63.339,63.416-79.291c4.281,14.64,12.531,36.763,26.061,49.824
	c10.406,10.062,35.186,19.967,50.527,25.451C378.032,121.991,327.004,204.953,281.133,237.887z"/>
<path style="fill:#F4BE8E;" d="M352.471,58.807C333.598,40.59,325.817,0,325.817,0c-63.262,32.872-109.742,139.708-118.46,210.358
	c-1.578,12.75,56.371,38.201,74.214,38.201c1.873,0,3.311-0.281,4.186-0.891c59.309-41.31,125.555-161.707,125.555-161.707
	S365.782,71.681,352.471,58.807z M278.258,226.732c-4.844-1.03-13.922-3.718-25.763-8.921c-11.234-4.922-18.812-9.469-22.904-12.421
	c5.17-32.825,18.17-71.308,35.464-104.539c14.641-28.139,31.389-50.887,48.637-66.37c5.219,13.671,12.969,29.029,23.936,39.653
	c4.906,4.718,14.5,12.218,41.373,22.889c0.312,0.125,0.656,0.25,0.969,0.375c-6.906,11.437-16.219,26.357-27.029,42.247
	C325.161,180.423,299.506,210.358,278.258,226.732z"/>
<path style="fill:#656D78;" d="M249.48,458.45c-17.641,0-31.982-14.344-31.982-31.982c0-17.64,14.342-31.982,31.982-31.982
	c17.638,0,31.998,14.343,31.998,31.982C281.477,444.106,267.118,458.45,249.48,458.45z"/>
<g>
	<path style="fill:#434A54;" d="M249.48,383.814c-23.545,0-42.654,19.093-42.654,42.653s19.109,42.652,42.654,42.652
		c23.56,0,42.652-19.092,42.652-42.652S273.04,383.814,249.48,383.814z M249.48,447.793c-11.75,0-21.326-9.577-21.326-21.326
		c0-11.75,9.576-21.326,21.326-21.326c11.763,0,21.326,9.576,21.326,21.326C270.805,438.216,261.243,447.793,249.48,447.793z"/>
	<path style="fill:#434A54;" d="M260.133,426.467c0,5.891-4.763,10.655-10.654,10.655s-10.656-4.765-10.656-10.655
		s4.766-10.656,10.656-10.656S260.133,420.577,260.133,426.467z"/>
</g>
<path style="fill:#656D78;" d="M249.48,268.542c-23.514,0-42.654-19.139-42.654-42.652c0-23.515,19.141-42.654,42.654-42.654
	c23.529,0,42.652,19.14,42.652,42.654C292.131,249.403,273.008,268.542,249.48,268.542z"/>
<g>
	<path style="fill:#434A54;" d="M249.48,172.581c-29.436,0-53.309,23.873-53.309,53.309c0,29.435,23.873,53.308,53.309,53.308
		c29.435,0,53.308-23.873,53.308-53.308C302.788,196.454,278.915,172.581,249.48,172.581z M249.48,257.871
		c-17.641,0-31.982-14.358-31.982-31.981c0-17.641,14.342-31.998,31.982-31.998c17.638,0,31.998,14.357,31.998,31.998
		C281.477,243.512,267.118,257.871,249.48,257.871z"/>
	<path style="fill:#434A54;" d="M260.133,225.889c0,5.89-4.763,10.654-10.654,10.654s-10.656-4.765-10.656-10.654
		c0-5.891,4.766-10.656,10.656-10.656S260.133,219.999,260.133,225.889z"/>
</g>
</svg>