<?xml version="1.0" encoding="iso-8859-1"?>
<!-- Uploaded to: SVG Repo, www.svgrepo.com, Generator: SVG Repo Mixer Tools -->
<svg height="800px" width="800px" version="1.1" id="Layer_1" xmlns="http://www.w3.org/2000/svg" xmlns:xlink="http://www.w3.org/1999/xlink" 
	 viewBox="0 0 512 512" xml:space="preserve">
<path style="fill:#656D78;" d="M483.859,246.078C441.422,201.297,355.312,170.656,256,170.656S70.578,201.297,28.141,246.078H0
	v63.25C0,385.922,114.609,448,256,448s256-62.078,256-138.672v-63.25H483.859z"/>
<g>
	<path style="fill:#434A54;" d="M64.188,401.172c6.688,4.094,13.812,7.969,21.328,11.609v-61H64.188V401.172z"/>
	<path style="fill:#434A54;" d="M128,429.453c6.906,2.156,14.031,4.156,21.328,5.969v-59.203H128V429.453z"/>
	<path style="fill:#434A54;" d="M362.672,435.422c7.297-1.812,14.422-3.812,21.328-5.969v-53.234h-21.328V435.422z"/>
	<path style="fill:#434A54;" d="M426.672,412.688c7.516-3.641,14.641-7.531,21.328-11.641v-51.828h-21.328V412.688z"/>
	<path style="fill:#434A54;" d="M202.672,444.984c7,0.797,14.125,1.453,21.328,1.938v-55.594h-21.328V444.984z"/>
	<path style="fill:#434A54;" d="M288,446.922c7.203-0.484,14.328-1.141,21.328-1.938v-52.312H288V446.922z"/>
</g>
<path style="fill:#F6BB42;" d="M483.156,202.672C440.469,158.297,354.766,128,256,128S71.531,158.297,28.844,202.672H0v64
	c0,76.578,114.609,138.656,256,138.656s256-62.078,256-138.656v-64H483.156z"/>
<path style="fill:#FFCE54;" d="M512,202.672c0,76.578-114.609,138.656-256,138.656S0,279.25,0,202.672C0,126.078,114.609,64,256,64
	S512,126.078,512,202.672z"/>
<path style="fill:#DA4453;" d="M362.672,213.438c0-17.734-19.109-32.094-42.672-32.094c-19.453,0-35.844,9.781-40.984,23.172
	c-7.328-1.016-15.047-1.578-23.031-1.578c-47.141,0-85.344,19.078-85.344,42.625c0,23.531,38.203,42.609,85.344,42.609
	s85.344-19.078,85.344-42.609c0-1.406-0.141-2.781-0.391-4.141C353.906,235.906,362.672,225.453,362.672,213.438z"/>
<path style="fill:#ED5564;" d="M341.328,245.562c0,23.531-38.203,42.609-85.344,42.609s-85.344-19.078-85.344-42.609
	c0-23.547,38.203-42.625,85.344-42.625S341.328,222.016,341.328,245.562z"/>
</svg>