<?xml version="1.0" encoding="iso-8859-1"?>
<!-- Uploaded to: SVG Repo, www.svgrepo.com, Generator: SVG Repo Mixer Tools -->
<svg height="800px" width="800px" version="1.1" id="Layer_1" xmlns="http://www.w3.org/2000/svg" xmlns:xlink="http://www.w3.org/1999/xlink" 
	 viewBox="0 0 511.986 511.986" xml:space="preserve">
<path style="fill:#CCD1D9;" d="M323.879,429.472c-16.594,16.593-43.75,16.593-60.343,0L82.525,248.461
	c-16.593-16.594-16.593-43.749,0-60.342l90.506-90.514c16.593-16.594,43.741-16.594,60.334,0l181.011,181.011
	c16.593,16.594,16.593,43.749,0,60.343L323.879,429.472z"/>
<path style="fill:#E6E9ED;" d="M489.609,207.587c27.889-27.89,41.482-80.576-31.578-153.637S332.301-5.517,304.394,22.388
	c0,0-65.24,82.076-132.582,149.418c-67.35,67.357-149.434,132.59-149.434,132.59c-27.89,27.906-41.483,80.592,31.57,153.637
	c73.061,73.062,125.739,59.468,153.645,31.578c0,0,65.24-82.076,132.582-149.434C407.517,272.836,489.609,207.587,489.609,207.587z"
	/>
<path style="fill:#4FC2E9;" d="M399.299,203.196c24.983-24.983,24.983-65.514,0-90.497c-24.828-24.828-64.982-25-90.014-0.5
	l-106.083,106.09h0.008L97.611,323.881c-25,24.984-25,65.514,0,90.498c24.819,24.827,64.975,24.999,90.005,0.5l106.09-106.092
	h-0.016L399.299,203.196z"/>
</svg>