<?xml version="1.0" encoding="iso-8859-1"?>
<!-- Uploaded to: SVG Repo, www.svgrepo.com, Generator: SVG Repo Mixer Tools -->
<svg height="800px" width="800px" version="1.1" id="Layer_1" xmlns="http://www.w3.org/2000/svg" xmlns:xlink="http://www.w3.org/1999/xlink" 
	 viewBox="0 0 512 512" xml:space="preserve">
<path style="fill:#ED5564;" d="M501.328,475.184H42.656v21.328h458.672c5.891,0,10.672-4.781,10.672-10.672
	S507.219,475.184,501.328,475.184z"/>
<path style="fill:#5D9CEC;" d="M502.625,24.855c-0.469-0.469-0.953-0.914-1.438-1.344c-0.625-0.547-1.266-1.07-1.906-1.562
	c-12.047-9.117-29.062-8.586-40.516,1.602c-0.078,0.055-0.141,0.109-0.203,0.164c-0.25,0.227-0.484,0.461-0.719,0.695
	c-0.156,0.148-0.312,0.289-0.469,0.445l0,0l-276.359,276.36l-44.719,44.719l30.172,60.344l44.719-44.734l0,0l291.438-291.43
	C515.125,57.613,515.125,37.355,502.625,24.855z M172.312,370.246l-10.062-20.109l28.828-28.828l10.047,20.125L172.312,370.246z"/>
<path style="fill:#CCD1D9;" d="M181.016,301.215L0,482.215c72.484,60.453,211.188-90.5,211.188-90.5l-15.094-15.094l15.094-15.078
	L181.016,301.215z"/>
<path style="fill:#E6E9ED;" d="M196.094,376.621c0,0-116.625,126.938-191.891,101.406L0,482.215
	c72.484,60.453,211.188-90.5,211.188-90.5L196.094,376.621L196.094,376.621z"/>
</svg>