<?xml version="1.0" encoding="iso-8859-1"?>
<!-- Uploaded to: SVG Repo, www.svgrepo.com, Generator: SVG Repo Mixer Tools -->
<svg height="800px" width="800px" version="1.1" id="Layer_1" xmlns="http://www.w3.org/2000/svg" xmlns:xlink="http://www.w3.org/1999/xlink" 
	 viewBox="0 0 511.991 511.991" xml:space="preserve">
<path style="fill:#CCD1D9;" d="M125.286,364.096L125.286,364.096L125.286,364.096l-19.562-19.561l-15.092,15.093l19.561,19.562
	c4.156,4.155,10.922,4.155,15.094,0C129.44,375.017,129.44,368.267,125.286,364.096z"/>
<path style="fill:#AAB2BC;" d="M147.909,386.735c-4.156-4.172-10.922-4.172-15.094,0c-4.156,4.155-4.156,10.905,0,15.077
	l22.154,22.139l15.078-15.077L147.909,386.735z"/>
<path style="fill:#CCD1D9;" d="M151.222,416.185c10.092-13.592,25.561-21.436,42.496-21.561l175.721-236.873l-15.248-15.249
	L150.597,416.951l0.062,0.031C150.847,416.717,151.034,416.451,151.222,416.185z"/>
<g>
	<path style="fill:#E6E9ED;" d="M354.19,142.503L117.349,318.24c-0.031,2.484-0.219,4.984-0.594,7.484
		c-2.078,14.092-9.531,26.529-20.967,35.028c-0.266,0.188-0.531,0.375-0.812,0.562l0.047,0.047l274.416-203.61L354.19,142.503z"/>
	<path style="fill:#E6E9ED;" d="M115.411,279.774c-12.562-16.921-31.889-25.857-51.465-25.857c-13.25,0-26.607,4.094-38.076,12.593
		c-28.387,21.061-34.324,61.152-13.264,89.54c12.561,16.921,31.873,25.873,51.449,25.873c13.264,0,26.623-4.108,38.074-12.608
		C130.534,348.254,136.472,308.163,115.411,279.774z M106.224,324.162c-1.688,11.28-7.639,21.232-16.795,28.014
		c-7.422,5.499-16.186,8.405-25.373,8.405c-13.672,0-26.186-6.28-34.326-17.249c-13.998-18.889-10.029-45.668,8.844-59.683
		c7.422-5.499,16.186-8.405,25.373-8.405c13.686,0,26.186,6.28,34.326,17.248C105.067,301.648,107.88,312.896,106.224,324.162z"/>
</g>
<path style="fill:#CCD1D9;" d="M232.183,396.562c-11.451-8.499-24.811-12.608-38.074-12.608c-19.576,0-38.889,8.952-51.449,25.873
	c-21.061,28.389-15.125,68.479,13.264,89.54c11.453,8.5,24.826,12.608,38.076,12.608c19.576,0,38.902-8.952,51.465-25.873
	C266.524,457.715,260.587,417.623,232.183,396.562z M228.325,473.385c-8.141,10.969-20.641,17.249-34.326,17.249
	c-9.188,0-17.951-2.906-25.373-8.405c-9.156-6.797-15.094-16.733-16.779-28.014c-1.656-11.266,1.154-22.514,7.936-31.67
	c8.141-10.968,20.654-17.248,34.326-17.248l0,0c9.188,0,17.951,2.905,25.373,8.405C238.37,427.717,242.339,454.496,228.325,473.385z
	"/>
<path style="fill:#E6E9ED;" d="M511.991,10.67c0-5.89-4.781-10.655-10.656-10.655c-2.969,0-5.625,1.187-7.562,3.125L354.284,142.628
	l15.092,15.093l139.49-139.505l0,0C510.804,16.294,511.991,13.622,511.991,10.67z"/>
</svg>