<?xml version="1.0" encoding="iso-8859-1"?>
<!-- Uploaded to: SVG Repo, www.svgrepo.com, Generator: SVG Repo Mixer Tools -->
<svg height="800px" width="800px" version="1.1" id="Layer_1" xmlns="http://www.w3.org/2000/svg" xmlns:xlink="http://www.w3.org/1999/xlink" 
	 viewBox="0 0 511.988 511.988" xml:space="preserve">
<path style="fill:#ED5564;" d="M255.994,164.371C177.254,94.185,0,175.949,0,175.949s37.476,197.48,255.994,200.119
	c218.525-2.64,255.994-200.119,255.994-200.119S334.742,94.185,255.994,164.371z"/>
<g style="opacity:0.2;">
	<path style="fill:#FFFFFF;" d="M255.994,185.715c70.779-63.093,211.369-7.453,241.088,5.281
		c3.781-11.781,14.906-15.047,14.906-15.047s-177.246-81.764-255.994-11.578C177.254,94.185,0,175.949,0,175.949
		s11.132,3.266,14.906,15.047C44.616,178.262,185.222,122.622,255.994,185.715z"/>
</g>
<path style="fill:#F5F7FA;" d="M248.424,224.088c-55.405-0.906-248.423-48.139-248.423-48.139
	c66.466,67.795,139.847,131.574,255.993,131.574c116.152,0,189.525-63.779,255.994-131.574
	C511.988,175.949,303.836,224.978,248.424,224.088z"/>
<g>
	<path style="fill:#E6E9ED;" d="M53.335,226.494c6.945,5.938,14.046,11.688,21.328,17.203v-50.342
		c-7.453-1.672-14.609-3.297-21.328-4.844V226.494z"/>
	<path style="fill:#E6E9ED;" d="M437.332,243.697c7.281-5.516,14.375-11.266,21.312-17.203v-38.451
		c-6.703,1.484-13.844,3.031-21.312,4.656V243.697z"/>
	<path style="fill:#E6E9ED;" d="M106.661,265.541c6.93,4.188,14.031,8.156,21.335,11.843v-72.498
		c-7.156-1.484-14.289-3-21.335-4.516V265.541z"/>
	<path style="fill:#E6E9ED;" d="M170.66,294.774c6.938,2.187,14.039,4.108,21.335,5.765v-83.356
		c-6.867-1.172-14.007-2.453-21.335-3.828L170.66,294.774L170.66,294.774z"/>
	<path style="fill:#E6E9ED;" d="M383.99,277.384c7.297-3.687,14.406-7.655,21.344-11.843v-66.077
		c-7.031,1.453-14.172,2.906-21.344,4.344V277.384z"/>
	<path style="fill:#E6E9ED;" d="M319.992,300.539c7.297-1.656,14.406-3.578,21.344-5.765V212.01
		c-7.281,1.328-14.406,2.594-21.344,3.766V300.539z"/>
	<path style="fill:#E6E9ED;" d="M245.33,307.351c3.516,0.109,7.07,0.172,10.664,0.172c3.594,0,7.148-0.062,10.664-0.172v-84.154
		c-7.117,0.641-13.289,0.969-18.234,0.891c-0.984-0.016-2.023-0.047-3.094-0.094L245.33,307.351L245.33,307.351z"/>
</g>
</svg>