<?xml version="1.0" encoding="iso-8859-1"?>
<!-- Uploaded to: SVG Repo, www.svgrepo.com, Generator: SVG Repo Mixer Tools -->
<svg height="800px" width="800px" version="1.1" id="Layer_1" xmlns="http://www.w3.org/2000/svg" xmlns:xlink="http://www.w3.org/1999/xlink" 
	 viewBox="0 0 511.988 511.988" xml:space="preserve">
<path style="fill:#AC92EB;" d="M170.313,31.999v394.647c0,47.123,38.21,85.342,85.342,85.342c47.147,0,85.349-38.219,85.349-85.342
	V31.999H170.313z"/>
<path style="fill:#E6E9ED;" d="M248.873,228.885c7.453-8.047,15.898-17.155,20.359-30.405c4.977-14.812,3.883-31.905-3.359-52.218
	c-1.32-4.391-5.391-7.609-10.218-7.609c-5.891,0-10.664,4.781-10.664,10.672c0,1.281,0.234,2.5,0.648,3.641h-0.016
	c12.46,34.594,0.938,47.03-12.398,61.421c-8.758,9.437-18.679,20.155-20.07,36.624c-1.523,18.125,7.046,31.452,15.335,44.327
	c10.437,16.233,21.234,33.015,16.796,64.139l21.117,3.016c5.562-38.999-8.602-61.015-19.976-78.686
	c-7.227-11.233-12.929-20.108-12.015-30.999C235.186,243.65,241.225,237.135,248.873,228.885z"/>
<path style="fill:#F5F7FA;" d="M212.992,411.474c0-31.938,19.101-57.826,42.663-57.826c23.569,0,42.678,25.889,42.678,57.826
	c0,31.952-19.109,57.842-42.678,57.842C232.093,469.316,212.992,443.427,212.992,411.474z"/>
<path style="fill:#967ADC;" d="M362.331,31.999c0,17.672-14.343,31.999-31.998,31.999H181.656
	c-17.671,0-31.999-14.327-31.999-31.999l0,0C149.657,14.328,163.985,0,181.656,0h148.677C347.988,0,362.331,14.328,362.331,31.999
	L362.331,31.999z"/>
</svg>