<?xml version="1.0" encoding="iso-8859-1"?>
<!-- Uploaded to: SVG Repo, www.svgrepo.com, Generator: SVG Repo Mixer Tools -->
<svg height="800px" width="800px" version="1.1" id="Layer_1" xmlns="http://www.w3.org/2000/svg" xmlns:xlink="http://www.w3.org/1999/xlink" 
	 viewBox="0 0 511.987 511.987" xml:space="preserve">
<g>
	<path style="fill:#AAB2BC;" d="M417.834,336.534c-35.171,26.39-38.046,51.311-40.358,71.326
		c-1.516,13.125-2.516,21.812-11.734,29.593c-8.141,6.875-18.218,7.266-30.998,7.75c-12.094,0.453-25.781,0.969-39.516,7.797
		c-15.484,7.687-27.976,21.999-38.217,43.78h0.008c-0.649,1.375-1.024,2.922-1.024,4.547c0,5.891,4.773,10.656,10.664,10.656
		c4.266,0,7.93-2.5,9.648-6.125l0,0c17.765-37.766,36.999-38.5,59.249-39.344c14.155-0.531,30.186-1.141,43.951-12.765
		c15.672-13.234,17.531-29.28,19.172-43.452c2.125-18.422,4.125-35.812,31.952-56.701L417.834,336.534z"/>
	<path style="fill:#AAB2BC;" d="M125.966,179.819c-13.843,5.172-31.077,11.625-41.89,33.515
		c-6.226,12.624-6.085,23.827-5.976,32.827c0.125,9.906,0.195,15.891-6.508,22.86c-9.375,9.749-30.328,19.593-64.053,30.107
		C3.172,300.456,0,304.519,0,309.331c0,5.891,4.773,10.656,10.664,10.656c1.133,0,2.219-0.172,3.242-0.5
		c38.272-11.922,60.811-22.937,73.068-35.687c12.765-13.28,12.593-26.937,12.46-37.906c-0.102-8.094-0.188-15.078,3.773-23.125
		c7.062-14.312,17.289-18.124,30.234-22.968c15.898-5.952,35.679-13.343,44.991-43.593l-20.39-6.281
		C151.825,170.147,140.973,174.209,125.966,179.819z"/>
</g>
<path style="fill:#CCD1D9;" d="M314.243,185.522c-42.218,39.232-45.671,74.811-48.718,106.201
	c-2.617,26.89-4.875,50.124-32.304,73.295c-20.898,17.64-45.601,19.64-74.202,21.937c-24.999,2.016-53.327,4.297-80.716,18.859
	C47.35,422.252,22.07,452.001,1.015,496.781h0.009c-0.648,1.375-1.023,2.922-1.023,4.547c0,5.891,4.773,10.656,10.664,10.656
	c4.266,0,7.938-2.5,9.648-6.125h0.008c19.023-40.453,41.265-67.015,67.991-81.217c23.492-12.469,48.366-14.484,72.42-16.422
	c29.562-2.391,60.131-4.844,86.256-26.906c34.053-28.764,36.959-58.639,39.756-87.513c2.953-30.312,5.75-58.921,42.031-92.655
	L314.243,185.522z"/>
<path style="fill:#E6E9ED;" d="M465.177,171.256c-49.437,49.436-117.372,61.654-151.746,27.296
	c-34.359-34.374-22.125-102.31,27.312-151.746C390.179-2.63,458.114-14.849,492.473,19.51
	C526.831,53.868,514.612,121.82,465.177,171.256z"/>
<g>
	<path style="fill:#CCD1D9;" d="M488.145,343.222c-25.188,25.171-59.78,31.405-77.279,13.89
		c-17.5-17.499-11.281-52.093,13.905-77.279c25.171-25.187,59.78-31.406,77.279-13.905
		C519.55,283.426,513.332,318.034,488.145,343.222z"/>
	<path style="fill:#CCD1D9;" d="M232.151,151.225c-25.179,25.172-59.78,31.406-77.287,13.891
		c-17.5-17.5-11.273-52.092,13.906-77.279s59.78-31.405,77.287-13.906C263.556,91.43,257.338,126.038,232.151,151.225z"/>
</g>
</svg>