<?xml version="1.0" encoding="iso-8859-1"?>
<!-- Uploaded to: SVG Repo, www.svgrepo.com, Generator: SVG Repo Mixer Tools -->
<svg height="800px" width="800px" version="1.1" id="Layer_1" xmlns="http://www.w3.org/2000/svg" xmlns:xlink="http://www.w3.org/1999/xlink" 
	 viewBox="0 0 512 512" xml:space="preserve">
<path style="fill:#434A54;" d="M400,192v197.328c0,27.062-10.531,52.516-29.688,71.656c-19.125,19.141-44.578,29.672-71.656,29.672
	c-27.062,0-52.5-10.531-71.641-29.672s-29.672-44.594-29.672-71.656v-82.672H176v82.672C176,457.078,230.922,512,298.656,512
	c67.75,0,122.688-54.922,122.688-122.672V192H400z"/>
<g>
	<path style="fill:#E6E9ED;" d="M293.344,0v192c0,28.484-11.109,55.266-31.25,75.422c-20.156,20.141-46.938,31.234-75.438,31.234
		c-28.484,0-55.266-11.094-75.406-31.234C91.094,247.266,80,220.484,80,192V0H58.656v192c0,70.688,57.312,128,128,128
		c70.703,0,128-57.312,128-128V0H293.344z"/>
	<path style="fill:#E6E9ED;" d="M410.656,224c-17.625,0-32-14.359-32-32c0-17.656,14.375-32,32-32c17.656,0,32,14.344,32,32
		C442.656,209.641,428.312,224,410.656,224z"/>
</g>
<path style="fill:#CCD1D9;" d="M410.656,149.328C387.094,149.328,368,168.438,368,192s19.094,42.656,42.656,42.656
	c23.578,0,42.688-19.094,42.688-42.656S434.234,149.328,410.656,149.328z M410.656,213.328c-11.75,0-21.312-9.578-21.312-21.328
	c0-11.766,9.562-21.344,21.312-21.344c11.781,0,21.344,9.578,21.344,21.344C432,203.75,422.438,213.328,410.656,213.328z"/>
<g>
	<path style="fill:#5D9CEC;" d="M101.344,10.656C101.344,4.766,96.562,0,90.656,0H80v42.656h10.656
		c5.906,0,10.688-4.766,10.688-10.656l0,0L101.344,10.656L101.344,10.656z"/>
	<path style="fill:#5D9CEC;" d="M272,32c0,5.891,4.781,10.656,10.656,10.656h10.688V0h-10.688C276.781,0,272,4.766,272,10.656l0,0
		V32L272,32z"/>
</g>
</svg>