<?xml version="1.0" encoding="iso-8859-1"?>
<!-- Uploaded to: SVG Repo, www.svgrepo.com, Generator: SVG Repo Mixer Tools -->
<svg version="1.1" id="Layer_1" xmlns="http://www.w3.org/2000/svg" xmlns:xlink="http://www.w3.org/1999/xlink" 
	 viewBox="0 0 511.988 511.988" xml:space="preserve">
<rect x="408.946" y="7.023" transform="matrix(-0.7071 -0.7071 0.7071 -0.7071 702.5621 433.0355)" style="fill:#CCD1D9;" width="64.039" height="127.979"/>
<g>
	<path style="fill:#E6E9ED;" d="M173.194,388.744l-49.937-49.936L52.478,359.65L5.182,406.932c-6.89,6.906-6.89,18.078,0,24.984
		l74.92,74.904c6.891,6.891,18.078,6.891,24.968,0l47.28-47.297L173.194,388.744z"/>
	<path style="fill:#E6E9ED;" d="M358.01,63.486c-4.171,4.172-4.171,10.922,0,15.078L183.678,252.919l6.969,68.436l68.452,6.984
		l174.332-174.355l0,0c4.155,4.172,10.921,4.172,15.077,0c4.172-4.156,4.172-10.922,0-15.078l-75.42-75.419
		C368.932,59.315,362.182,59.315,358.01,63.486z"/>
</g>
<polygon style="fill:#3BAFDA;" points="65.275,431.65 209.849,287.074 224.927,302.168 80.352,446.742 "/>
<g>
	<path style="fill:#434A54;" d="M342.932,153.984l-30.171-30.171l-15.094,15.093l30.172,30.172c4.172,4.156,10.921,4.156,15.093,0
		C347.089,164.906,347.089,158.156,342.932,153.984L342.932,153.984z"/>
	<path style="fill:#434A54;" d="M282.59,153.984l-15.069,15.094l30.147,30.155c4.172,4.172,10.922,4.172,15.094,0
		c4.156-4.155,4.156-10.905,0-15.077c-0.016-0.016-0.016-0.016-0.031-0.031L282.59,153.984z"/>
</g>
<path style="fill:#4FC2E9;" d="M168.319,405.322H6.807l-1.625,1.609c-6.89,6.906-6.89,18.078,0,24.984l74.92,74.904
	c6.891,6.891,18.078,6.891,24.968,0l47.28-47.297L168.319,405.322z"/>
<path style="fill:#656D78;" d="M183.35,404.088c-6.906,6.891-18.078,6.891-24.984,0l-50.452-50.451
	c-6.891-6.891-6.891-18.078,0-24.969l20.281-20.281c6.906-6.891,18.078-6.891,24.984,0l50.436,50.451
	c6.906,6.891,6.906,18.062,0.016,24.969L183.35,404.088z"/>
<polygon style="fill:#4FC2E9;" points="223.255,213.342 183.678,252.919 190.647,321.355 259.098,328.34 374.088,213.342 "/>
<path style="fill:#434A54;" d="M448.492,3.128c-4.172,4.156-4.172,10.922,0,15.078l45.266,45.28c4.171,4.172,10.921,4.172,15.093,0
	c4.156-4.171,4.172-10.921,0-15.078l-45.28-45.28C459.414-1.043,452.648-1.043,448.492,3.128z"/>
</svg>