<?xml version="1.0" encoding="iso-8859-1"?>
<!-- Uploaded to: SVG Repo, www.svgrepo.com, Generator: SVG Repo Mixer Tools -->
<svg height="800px" width="800px" version="1.1" id="Layer_1" xmlns="http://www.w3.org/2000/svg" xmlns:xlink="http://www.w3.org/1999/xlink" 
	 viewBox="0 0 512 512" xml:space="preserve">
<path style="fill:#E6E9ED;" d="M458.656,138.656C458.656,62.078,396.594,0,320,0c-23.094,0-44.844,5.641-64,15.625
	C236.844,5.641,215.094,0,192,0C115.406,0,53.344,62.078,53.344,138.656c0,21.047,4.688,40.984,13.062,58.844l41.781,90.5
	c-10,32,6.281,224,73.125,224c21.062,0,54.062-178.484,74.688-178.625C276.594,333.219,309.625,512,330.656,512
	c66.844,0,83.125-192,73.125-224l41.812-90.5C453.969,179.641,458.656,159.703,458.656,138.656z"/>
<path style="fill:#CCD1D9;" d="M330.656,490.656c-21.031,0-54.062-178.766-74.656-178.625
	c-20.625,0.156-53.625,178.625-74.688,178.625c-52.031,0-73.406-116.281-75.625-182.938C103.25,366.516,123.125,512,181.312,512
	c21.062,0,54.062-178.484,74.688-178.625C276.594,333.219,309.625,512,330.656,512c58.188,0,78.062-145.484,75.656-204.281
	C404.062,374.375,382.688,490.656,330.656,490.656z"/>
<path style="fill:#CBD0D8;" d="M320,0c-23.094,0-44.844,5.641-64,15.625C236.844,5.641,215.094,0,192,0
	C115.406,0,53.344,62.078,53.344,138.656c0,21.047,4.688,40.984,13.062,58.844L88.5,245.328h80.906h10.781h10.781
	c-0.562-3.484-0.875-7.047-0.875-10.672c0-35.281,28.719-64,64-64s64,28.719,64,64c0,3.625-0.312,7.188-0.875,10.672H328h10.75
	h84.75l22.094-47.828c8.375-17.859,13.062-37.797,13.062-58.844C458.656,62.078,396.594,0,320,0z"/>
<g>
	<path style="fill:#A9B1BC;" d="M87.938,47.016L87.938,47.016c0,0,35.188-10.703,104.062-4.359c23,2.125,44.844,5.656,64,15.641
		V15.625C236.844,5.641,215.094,0,192,0C150.562,0,113.344,18.188,87.938,47.016z"/>
	<path style="fill:#A9B1BC;" d="M424.062,47.016L424.062,47.016c0,0-35.188-10.703-104.062-4.359c-23,2.125-44.844,5.656-64,15.641
		V15.625C275.156,5.641,296.906,0,320,0C361.438,0,398.656,18.188,424.062,47.016z"/>
</g>
</svg>