<?xml version="1.0" encoding="iso-8859-1"?>
<!-- Uploaded to: SVG Repo, www.svgrepo.com, Generator: SVG Repo Mixer Tools -->
<svg height="800px" width="800px" version="1.1" id="Layer_1" xmlns="http://www.w3.org/2000/svg" xmlns:xlink="http://www.w3.org/1999/xlink" 
	 viewBox="0 0 511.988 511.988" xml:space="preserve">
<g>
	<path style="fill:#ED5564;" d="M255.994,85.342c5.891,0,10.664-4.781,10.664-10.672V10.672l0,0C266.658,4.781,261.885,0,255.994,0
		c-5.891,0-10.664,4.781-10.664,10.672v63.982c0,0.016,0,0.016,0,0.016C245.33,80.56,250.103,85.342,255.994,85.342z"/>
	<path style="fill:#ED5564;" d="M314.367,95.623c5.531,2.016,11.656-0.828,13.672-6.375l21.891-60.14
		c2-5.531-0.844-11.655-6.375-13.671s-11.656,0.844-13.688,6.374l-21.875,60.14l0,0C305.976,87.498,308.836,93.607,314.367,95.623z"
		/>
	<path style="fill:#ED5564;" d="M183.949,89.248c2.016,5.547,8.141,8.391,13.672,6.375c5.539-2.016,8.39-8.125,6.375-13.672
		l-21.882-60.124c0,0,0,0,0-0.016c-2.016-5.53-8.14-8.39-13.671-6.374c-5.539,2.016-8.391,8.14-6.375,13.671L183.949,89.248z"/>
</g>
<path style="fill:#E6E9ED;" d="M408.303,228.635c0-57.545-46.656-104.2-104.217-104.2c-17.344,0-33.701,4.25-48.092,11.75
	c-14.391-7.5-30.75-11.75-48.093-11.75c-57.553,0-104.208,46.655-104.208,104.2c0,15.812,3.523,30.797,9.828,44.219l31.39,68.014
	c-7.515,24.046,4.727,168.324,54.967,168.324c15.805,0,40.616-134.122,56.108-134.231c15.484-0.109,40.287,134.231,56.1,134.231
	c50.248,0,62.482-144.278,54.967-168.324l31.422-68.014C404.771,259.432,408.303,244.447,408.303,228.635z"/>
<path style="fill:#EC87C0;" d="M255.994,351.992L255.994,351.992L255.994,351.992c-118.614,0-72.186-103.998-255.994-95.998v255.994
	h511.988V255.994C328.18,247.994,374.615,351.992,255.994,351.992z"/>
<g style="opacity:0.2;">
	<path style="fill:#FFFFFF;" d="M255.994,351.992L255.994,351.992L255.994,351.992c-118.614,0-72.186-103.998-255.994-95.998v21.343
		c183.808-7.999,137.379,95.998,255.994,95.998l0,0l0,0c118.621,0,72.186-103.997,255.994-95.998v-21.343
		C328.18,247.994,374.615,351.992,255.994,351.992z"/>
</g>
</svg>