<?xml version="1.0" encoding="iso-8859-1"?>
<!-- Uploaded to: SVG Repo, www.svgrepo.com, Generator: SVG Repo Mixer Tools -->
<svg height="800px" width="800px" version="1.1" id="Layer_1" xmlns="http://www.w3.org/2000/svg" xmlns:xlink="http://www.w3.org/1999/xlink" 
	 viewBox="0 0 512.004 512.004" xml:space="preserve">
<path style="fill:#E6E9ED;" d="M448.596,0c-16.219,0-32.422,6.172-44.781,18.547L58.096,364.266l-2.188,76.656L71.002,456
	l76.641-2.188l345.719-345.719c24.734-24.734,24.734-64.828,0-89.547C481.002,6.188,464.799,0,448.596,0z"/>
<g>
	<path style="fill:#434A54;" d="M289.221,312.25c-4.172-4.125-10.891-4.109-15.047,0.047c-4.141,4.141-4.156,10.859-0.031,15.031
		L289.221,312.25z"/>
	<path style="fill:#434A54;" d="M243.971,357.5c-4.172-4.125-10.891-4.109-15.031,0.031c-4.156,4.156-4.172,10.875-0.047,15.047
		L243.971,357.5z"/>
	<path style="fill:#434A54;" d="M334.424,266.953c-4.172-4.172-10.922-4.172-15.094,0c-4.156,4.172-4.156,10.922,0,15.078
		c0.016,0.016,0.031,0.031,0.062,0.047L334.454,267C334.44,266.984,334.44,266.969,334.424,266.953z"/>
	<path style="fill:#434A54;" d="M409.877,176.5c-4.172,4.172-4.172,10.922,0,15.078l0,0l15.078-15.078
		C420.799,172.344,414.033,172.344,409.877,176.5z"/>
	<path style="fill:#434A54;" d="M379.705,221.75L379.705,221.75c-4.156-4.156-10.906-4.156-15.078,0
		c-4.156,4.172-4.156,10.922,0,15.078L379.705,221.75z"/>
	<path style="fill:#434A54;" d="M154.486,283.094c4.172-4.172,4.172-10.922,0-15.078c-0.016-0.031-0.047-0.047-0.062-0.078
		l-15.078,15.078c0.016,0.031,0.031,0.047,0.062,0.078C143.564,287.25,150.33,287.25,154.486,283.094z"/>
	<path style="fill:#434A54;" d="M199.658,222.688l-15.078,15.094c4.172,4.141,10.906,4.125,15.062-0.031
		S203.799,226.859,199.658,222.688z"/>
	<path style="fill:#434A54;" d="M244.986,192.594c4.156-4.172,4.156-10.922,0-15.078c-0.031-0.031-0.047-0.047-0.078-0.062
		l-15.078,15.062c0.031,0.031,0.047,0.062,0.062,0.078C234.064,196.766,240.814,196.766,244.986,192.594z"/>
	<path style="fill:#434A54;" d="M290.19,147.297c4.156-4.156,4.156-10.906,0-15.078c-0.016,0-0.016-0.016-0.031-0.016
		l-15.078,15.078l0.016,0.016C279.268,151.469,286.018,151.469,290.19,147.297z"/>
	<path style="fill:#434A54;" d="M335.408,86.953l-15.078,15.078c4.172,4.094,10.859,4.078,15-0.062
		C339.486,97.828,339.502,91.125,335.408,86.953z"/>
</g>
<path style="opacity:0.1;enable-background:new    ;" d="M478.283,93.016L132.564,438.734l-76.656,2.188L71.002,456l76.641-2.188
	l345.719-345.719c24.734-24.734,24.734-64.828,0-89.547c-2.562-2.578-5.312-4.875-8.172-6.906
	C502.736,36.359,500.44,70.859,478.283,93.016z"/>
<path style="fill:#ED5564;" d="M289.783,222.313c-4.172-4.156-10.922-4.156-15.078,0L3.221,493.797
	c-4.172,4.156-4.172,10.922,0,15.078c4.156,4.172,10.922,4.172,15.078,0l271.484-271.469v-0.016
	C293.94,233.234,293.94,226.484,289.783,222.313z"/>
</svg>