<?xml version="1.0" encoding="iso-8859-1"?>
<!-- Uploaded to: SVG Repo, www.svgrepo.com, Generator: SVG Repo Mixer Tools -->
<svg height="800px" width="800px" version="1.1" id="Layer_1" xmlns="http://www.w3.org/2000/svg" xmlns:xlink="http://www.w3.org/1999/xlink" 
	 viewBox="0 0 511.987 511.987" xml:space="preserve">
<g>
	<path style="fill:#656D78;" d="M483.505,19.903L483.505,19.903c5.109-2.937,6.859-9.468,3.906-14.562
		c-2.938-5.109-9.469-6.859-14.562-3.906L389.71,49.434l10.656,18.468L483.505,19.903L483.505,19.903z"/>
	<path style="fill:#656D78;" d="M506.66,24.575c-5.109-2.938-11.625-1.203-14.577,3.906l0,0l0,0l-48,83.14l18.469,10.655
		l47.999-83.123l0,0C513.504,34.044,511.754,27.528,506.66,24.575z"/>
</g>
<path style="fill:#CCD1D9;" d="M435.692,126.917l-54.107-16.858c-60.092,129.059-287.82,401.928-287.82,401.928
	S338.445,384.722,435.692,126.917z"/>
<path style="fill:#E6E9ED;" d="M385.069,76.293l16.859,54.108C272.885,190.51,0.001,418.238,0.001,418.238
	S127.271,173.541,385.069,76.293z"/>
<path style="fill:#656D78;" d="M416.428,138.292c-15.233,0-29.405-8.172-36.999-21.343c-5.703-9.875-7.219-21.359-4.266-32.375
	s10-20.203,19.875-25.905c6.484-3.75,13.844-5.719,21.28-5.719c15.219,0,29.405,8.171,36.999,21.327
	c11.766,20.375,4.766,46.53-15.609,58.296C431.224,136.307,423.865,138.292,416.428,138.292z"/>
<g>
	<path style="fill:#434A54;" d="M462.552,68.949c-9.875-17.108-27.796-26.671-46.233-26.671c-9.046,0-18.218,2.297-26.608,7.156
		c-25.516,14.718-34.249,47.343-19.531,72.842c9.891,17.124,27.812,26.687,46.249,26.687c9.047,0,18.219-2.312,26.608-7.156
		C468.552,127.073,477.286,94.465,462.552,68.949z M432.365,123.323c-4.859,2.812-10.375,4.297-15.938,4.297
		c-11.421,0-22.062-6.125-27.765-15.999c-4.281-7.407-5.406-16.031-3.203-24.281c2.219-8.266,7.516-15.156,14.906-19.438
		c4.875-2.812,10.391-4.297,15.952-4.297l0,0c11.422,0,22.062,6.141,27.765,16.016C452.911,94.902,447.645,114.512,432.365,123.323z
		"/>
	<path style="fill:#434A54;" d="M423.912,103.151c-4.156,4.173-10.921,4.173-15.077,0c-4.172-4.156-4.172-10.905,0-15.077
		c4.156-4.172,10.921-4.172,15.077,0C428.084,92.246,428.084,98.995,423.912,103.151z"/>
</g>
</svg>