<?xml version="1.0" encoding="iso-8859-1"?>
<!-- Uploaded to: SVG Repo, www.svgrepo.com, Generator: SVG Repo Mixer Tools -->
<svg version="1.1" id="Layer_1" xmlns="http://www.w3.org/2000/svg" xmlns:xlink="http://www.w3.org/1999/xlink" 
	 viewBox="0 0 512 512" xml:space="preserve">
<g>
	<path style="fill:#E6E9ED;" d="M282.664,106.672c-35.328,0-63.984,28.641-63.984,64l0,0v76.719h21.328v-76.719l0,0
		c0-23.531,19.141-42.672,42.656-42.672c23.531,0,42.688,19.141,42.688,42.672l0,0v228h21.312v-228l0,0
		C346.664,135.312,318.023,106.672,282.664,106.672z"/>
	<path style="fill:#E6E9ED;" d="M282.664,0c-94.25,0-170.656,76.406-170.656,170.672l0,0v76.719h21.328v-76.719l0,0
		c0-20.172,3.953-39.734,11.734-58.125c7.516-17.781,18.297-33.75,32.016-47.469c13.719-13.734,29.688-24.5,47.469-32.016
		c18.406-7.781,37.953-11.734,58.109-11.734c20.188,0,39.734,3.953,58.125,11.734c17.781,7.516,33.75,18.281,47.484,32.016
		c13.719,13.719,24.484,29.688,32.016,47.469c7.781,18.391,11.719,37.953,11.719,58.125l0,0V224h21.344v-53.328l0,0
		C453.352,76.406,376.93,0,282.664,0z"/>
</g>
<path style="fill:#48CFAD;" d="M261.336,490.656c0,11.781-9.547,21.344-21.328,21.344H26.68c-11.781,0-21.344-9.562-21.344-21.344
	V234.672c0-11.781,9.562-21.344,21.344-21.344h213.328c11.781,0,21.328,9.562,21.328,21.344V490.656z"/>
<path style="fill:#37BC9B;" d="M240.008,213.328H218.68V512h21.5c11.703-0.094,21.156-9.594,21.156-21.344V234.672
	C261.336,222.891,251.789,213.328,240.008,213.328z"/>
<path style="fill:#434A54;" d="M336.008,362.672L336.008,362.672c-35.828,0-44.812,79.797-44.812,104.516
	c0,24.75,20.062,44.812,44.812,44.812l0,0c24.75,0,44.812-20.062,44.812-44.812C380.82,442.469,371.836,362.672,336.008,362.672z"/>
<path style="fill:#E6E9ED;" d="M442.664,330.672c-29.406,0-53.312-23.938-53.312-53.344S413.258,224,442.664,224
	c29.422,0,53.344,23.922,53.344,53.328S472.086,330.672,442.664,330.672z"/>
<path style="fill:#CCD1D9;" d="M442.664,213.328c-35.344,0-64,28.656-64,64s28.656,64,64,64c35.359,0,64-28.656,64-64
	S478.023,213.328,442.664,213.328z M442.664,320.016c-23.516,0-42.656-19.156-42.656-42.688c0-23.516,19.141-42.656,42.656-42.656
	c23.531,0,42.688,19.141,42.688,42.656C485.352,300.859,466.195,320.016,442.664,320.016z"/>
<path style="fill:#656D78;" d="M468.43,262.25c-0.016-5.891-4.781-10.672-10.672-10.672c-2.938,0-5.609,1.203-7.531,3.125l0,0
	l-15.094,15.094l0,0c-1.938,1.922-3.125,4.594-3.125,7.531c0,5.906,4.781,10.688,10.656,10.688c2.953,0,5.625-1.203,7.562-3.125l0,0
	l15.078-15.094l0,0C467.227,267.859,468.43,265.188,468.43,262.25z"/>
<path style="fill:#F5F7FA;" d="M151.867,335.406c-10.359-5.016-21.516-2.891-29.188,6.078c-7.688-8.969-18.844-11.094-29.188-6.078
	c-13.172,7.141-19.438,23.438-13,40.5c8.188,22.656,37.875,33.266,42.188,34.656c4.312-1.391,33.984-12,42.156-34.656
	C171.305,358.844,165.023,342.547,151.867,335.406z"/>
<g>
	<rect x="112.01" y="192" style="fill:#CCD1D9;" width="21.328" height="21.328"/>
	<rect x="218.68" y="192" style="fill:#CCD1D9;" width="21.328" height="21.328"/>
</g>
</svg>