<?xml version="1.0" encoding="iso-8859-1"?>
<!-- Uploaded to: SVG Repo, www.svgrepo.com, Generator: SVG Repo Mixer Tools -->
<svg height="800px" width="800px" version="1.1" id="Layer_1" xmlns="http://www.w3.org/2000/svg" xmlns:xlink="http://www.w3.org/1999/xlink" 
	 viewBox="0 0 512 512" xml:space="preserve">
<path style="fill:#E6E9ED;" d="M458.672,138.656C458.672,62.078,396.578,0,320,0c-23.094,0-44.844,5.641-64,15.625
	C236.859,5.641,215.094,0,192,0C115.422,0,53.328,62.078,53.328,138.656c0,21.047,4.703,40.984,13.078,58.844l41.781,90.5
	c-10,32,6.281,224,73.141,224c21.031,0,54.047-178.484,74.656-178.625C276.594,333.219,309.609,512,330.641,512
	c66.859,0,83.156-192,73.156-224l41.797-90.5C453.969,179.641,458.672,159.703,458.672,138.656z"/>
<g>
	<path style="fill:#CCD1D9;" d="M330.641,490.656c-21.031,0-54.047-178.766-74.656-178.625
		c-20.609,0.156-53.625,178.625-74.656,178.625c-52.031,0-73.438-116.281-75.656-182.938C103.25,366.516,123.125,512,181.328,512
		c21.031,0,54.047-178.484,74.656-178.625C276.594,333.219,309.609,512,330.641,512c58.203,0,78.078-145.484,75.656-204.281
		C404.078,374.375,382.672,490.656,330.641,490.656z"/>
	<path style="fill:#CCD1D9;" d="M424.047,47.016C398.641,18.188,361.453,0,320,0c-23.078,0-44.844,5.641-64,15.625
		C236.859,5.641,215.094,0,192,0c-41.453,0-78.641,18.188-104.047,47.016l0,0c0,0,35.172-10.703,104.047-4.359
		c22.984,2.125,44.859,5.656,64,15.641c19.156-9.984,41.016-13.516,64-15.641C388.875,36.312,424.047,47.016,424.047,47.016
		L424.047,47.016z"/>
</g>
<path style="fill:#FB6D51;" d="M133.094,13.094c23.703,43.062,69.5,72.234,122.125,72.234c52.859,0,98.828-29.438,122.438-72.797
	C360.109,4.484,340.578,0,320,0c-23.094,0-44.844,5.641-64,15.625C236.859,5.641,215.094,0,192,0
	C170.938,0,150.984,4.703,133.094,13.094z"/>
<path style="fill:#E8563F;" d="M187.031,0.094c-0.953,0.031-1.891,0.062-2.828,0.125c-0.391,0.016-0.766,0.047-1.156,0.078
	c-0.906,0.047-1.812,0.109-2.703,0.188c-0.375,0.031-0.75,0.062-1.125,0.109c-0.906,0.078-1.812,0.156-2.719,0.266
	c-0.344,0.031-0.688,0.078-1.031,0.125c-0.922,0.109-1.859,0.219-2.781,0.344c-0.312,0.047-0.625,0.094-0.938,0.141
	c-0.953,0.141-1.891,0.281-2.844,0.438c-0.266,0.047-0.547,0.109-0.828,0.156c-0.969,0.172-1.953,0.344-2.922,0.531
	c-0.234,0.047-0.484,0.109-0.734,0.156c-1,0.203-1.984,0.406-2.969,0.625c-0.219,0.047-0.438,0.109-0.656,0.156
	c-1.016,0.234-2.031,0.469-3.031,0.734c-0.188,0.047-0.391,0.094-0.594,0.156c-1.016,0.266-2.031,0.531-3.047,0.812
	c-0.172,0.047-0.344,0.109-0.531,0.156c-1.031,0.297-2.047,0.609-3.062,0.922c-0.172,0.047-0.328,0.109-0.5,0.156
	c-1.016,0.328-2.031,0.656-3.047,1c-0.172,0.062-0.328,0.125-0.5,0.188c-1,0.344-2,0.703-3,1.078
	c-0.172,0.062-0.344,0.125-0.516,0.188c-0.984,0.375-1.969,0.766-2.938,1.156c-0.188,0.078-0.375,0.156-0.547,0.219
	c-0.953,0.391-1.906,0.797-2.859,1.203c-0.203,0.094-0.406,0.188-0.609,0.281c-0.906,0.406-1.828,0.812-2.734,1.234
	c-0.062,0.031-0.125,0.062-0.188,0.094c5.516,10,12.219,19.234,19.906,27.547c11.5,0.094,24.5,0.672,39,2
	c22.984,2.125,44.859,5.656,64,15.641c19.156-9.984,41.016-13.516,64-15.641c13.844-1.266,26.328-1.859,37.438-1.984
	c7.844-8.469,14.656-17.922,20.219-28.141c-0.219-0.109-0.453-0.203-0.672-0.312c-0.859-0.375-1.703-0.766-2.562-1.125
	c-0.219-0.094-0.438-0.188-0.641-0.266c-0.906-0.391-1.828-0.766-2.734-1.125c-0.188-0.078-0.359-0.141-0.531-0.203
	c-0.969-0.375-1.922-0.75-2.891-1.109c-0.141-0.047-0.297-0.094-0.438-0.141c-1-0.375-2-0.719-3.016-1.062
	c-0.125-0.047-0.266-0.078-0.391-0.125c-1.031-0.344-2.062-0.688-3.109-1c-0.109-0.031-0.234-0.062-0.344-0.109
	c-1.062-0.312-2.109-0.625-3.172-0.922c-0.141-0.031-0.266-0.062-0.406-0.109c-1.047-0.281-2.094-0.562-3.156-0.828
	c-0.156-0.031-0.297-0.062-0.453-0.109c-1.047-0.25-2.094-0.5-3.156-0.734c-0.172-0.031-0.344-0.078-0.531-0.109
	c-1.031-0.219-2.062-0.438-3.094-0.641c-0.219-0.047-0.438-0.078-0.656-0.125c-1-0.188-2-0.359-3.016-0.531
	c-0.281-0.047-0.562-0.078-0.844-0.125c-0.953-0.156-1.906-0.297-2.859-0.438c-0.344-0.047-0.703-0.078-1.047-0.125
	c-0.891-0.109-1.781-0.234-2.688-0.328c-0.438-0.047-0.875-0.078-1.312-0.125c-0.812-0.078-1.641-0.172-2.453-0.234
	c-0.547-0.047-1.094-0.078-1.641-0.109c-0.719-0.062-1.438-0.109-2.156-0.156c-0.719-0.031-1.438-0.062-2.156-0.078
	c-0.547-0.031-1.109-0.062-1.672-0.078C322.578,0.016,321.297,0,320,0c-23.078,0-44.844,5.641-64,15.625
	C236.859,5.641,215.094,0,192,0c-1.312,0-2.609,0.016-3.906,0.047C187.734,0.062,187.375,0.078,187.031,0.094z"/>
</svg>