<?xml version="1.0" encoding="iso-8859-1"?>
<!-- Uploaded to: SVG Repo, www.svgrepo.com, Generator: SVG Repo Mixer Tools -->
<svg height="800px" width="800px" version="1.1" id="Layer_1" xmlns="http://www.w3.org/2000/svg" xmlns:xlink="http://www.w3.org/1999/xlink" 
	 viewBox="0 0 512 512" xml:space="preserve">
<path style="fill:#FFCE54;" d="M458.672,138.656C458.672,62.078,396.578,0,320,0c-23.094,0-44.859,5.641-64,15.625
	C236.859,5.641,215.078,0,192,0C115.422,0,53.328,62.078,53.328,138.656c0,21.047,4.703,40.984,13.078,58.844l41.781,90.5
	c-10,32,6.281,224,73.141,224c21.031,0,54.047-178.484,74.656-178.625C276.594,333.219,309.609,512,330.641,512
	c66.859,0,83.156-192,73.156-224l41.797-90.5C453.969,179.641,458.672,159.703,458.672,138.656z"/>
<g>
	<path style="fill:#F6BB42;" d="M330.641,490.656c-21.031,0-54.047-178.766-74.656-178.625
		c-20.609,0.156-53.625,178.625-74.656,178.625c-52.031,0-73.438-116.281-75.656-182.938C103.25,366.516,123.125,512,181.328,512
		c21.031,0,54.047-178.484,74.656-178.625C276.594,333.219,309.609,512,330.641,512c58.203,0,78.078-145.484,75.656-204.281
		C404.078,374.375,382.672,490.656,330.641,490.656z"/>
	<path style="fill:#F6BB42;" d="M424.047,47.016C398.641,18.188,361.453,0,320,0c-23.078,0-44.859,5.641-64,15.625
		C236.859,5.641,215.078,0,192,0c-41.453,0-78.641,18.188-104.047,47.016l0,0c0,0,35.172-10.703,104.047-4.359
		c22.984,2.125,44.859,5.656,64,15.641c19.141-9.984,41.016-13.516,64-15.641C388.875,36.312,424.047,47.016,424.047,47.016
		L424.047,47.016z"/>
</g>
<path style="fill:#656D78;" d="M323.016,100.469c-1.984-2.375-4.891-3.75-7.984-3.812l-30.281-0.5l-2.047-19.375
	c0-0.031,0-0.047-0.016-0.062L275.36,7.361c-6.703,2.281-13.172,5.047-19.359,8.266c-0.422-0.219-0.859-0.422-1.297-0.641
	l5.844,55.156L209.5,85.797c-3.625,1.109-6.391,4.078-7.25,7.766l-9.969,42.672c-1.344,5.734,2.219,11.469,7.953,12.812
	c0.828,0.188,1.641,0.281,2.438,0.281c4.844,0,9.234-3.312,10.375-8.234l8.578-36.703l41.203-12.641l1.422,13.375
	c0.016,0.141,0.031,0.281,0.047,0.422l4.891,33.328l-22.844,48.578c-2.5,5.344-0.219,11.688,5.125,14.203
	c1.453,0.688,3,1.016,4.531,1.016c4-0.016,7.844-2.281,9.656-6.141l24.203-51.484c0.891-1.906,1.203-4.016,0.891-6.094
	l-3.125-21.422l22.203,0.375l23.359,27.797c2.109,2.5,5.141,3.797,8.172,3.797c2.422,0,4.859-0.828,6.859-2.516
	c4.516-3.781,5.094-10.516,1.297-15.016L323.016,100.469z"/>
<path style="fill:#434A54;" d="M259.125,56.734c6.609-3.156,13.516-5.594,20.656-7.531l-4.422-41.844
	c-0.641,0.219-1.281,0.438-1.922,0.672C273,8.188,272.562,8.344,272.125,8.5c-0.75,0.281-1.5,0.562-2.234,0.844
	c-0.75,0.297-1.484,0.594-2.234,0.891c-0.469,0.188-0.953,0.391-1.438,0.594c-0.734,0.312-1.453,0.625-2.188,0.953
	c-0.312,0.125-0.625,0.266-0.922,0.406c-1.031,0.453-2.047,0.938-3.062,1.422c-0.297,0.141-0.578,0.281-0.875,0.422
	c-1.062,0.516-2.125,1.047-3.172,1.594c-0.422-0.219-0.859-0.422-1.297-0.641L259.125,56.734z"/>
</svg>