<?xml version="1.0" encoding="iso-8859-1"?>
<!-- Uploaded to: SVG Repo, www.svgrepo.com, Generator: SVG Repo Mixer Tools -->
<svg height="800px" width="800px" version="1.1" id="Layer_1" xmlns="http://www.w3.org/2000/svg" xmlns:xlink="http://www.w3.org/1999/xlink" 
	 viewBox="0 0 511.996 511.996" xml:space="preserve">
<path style="fill:#EC87C0;" d="M256.01,437.556L256.01,437.556h-0.016c-118.606,0-72.186-103.997-255.979-95.997L0,511.992h511.996
	V341.559C328.187,333.559,374.623,437.556,256.01,437.556z"/>
<g style="opacity:0.2;">
	<path style="fill:#FFFFFF;" d="M256.01,437.556L256.01,437.556h-0.016c-118.606,0-72.186-103.997-255.979-95.997L0,511.992l0,0
		l0.015-149.106c183.792-7.999,137.372,95.997,255.979,95.997h0.016l0,0c118.613,0,72.178-103.996,255.986-95.997v-21.327
		C328.187,333.559,374.623,437.556,256.01,437.556z"/>
</g>
<path style="fill:#FFCE54;" d="M469.902,180.875c22-53.171-3.25-114.123-56.436-136.138c-16.031-6.625-32.75-8.968-48.938-7.531
	c-10.404-12.438-23.904-22.609-39.936-29.25c-53.178-22.015-114.13,3.25-136.145,56.436c-6.031,14.609-8.516,29.796-7.828,44.609
	l3,74.842c-16.14,19.343-59.999,157.339-13.578,176.557c14.609,6.047,88.826-108.403,103.178-102.575
	c14.342,5.828-14.102,139.449,0.5,145.48c46.436,19.219,112.902-109.419,115.152-134.512l55.061-50.828
	C454.871,207.984,463.871,195.485,469.902,180.875z"/>
</svg>