<?xml version="1.0" encoding="iso-8859-1"?>
<!-- Uploaded to: SVG Repo, www.svgrepo.com, Generator: SVG Repo Mixer Tools -->
<svg height="800px" width="800px" version="1.1" id="Layer_1" xmlns="http://www.w3.org/2000/svg" xmlns:xlink="http://www.w3.org/1999/xlink" 
	 viewBox="0 0 512 512" xml:space="preserve">
<path style="fill:#E6E9ED;" d="M106.219,283.719H405.75l39.844-86.219c8.375-17.859,13.062-37.797,13.062-58.844
	C458.656,62.078,396.594,0,320,0c-23.094,0-44.844,5.641-64,15.625C236.844,5.641,215.094,0,192,0
	C115.406,0,53.344,62.078,53.344,138.656c0,21.047,4.688,40.984,13.062,58.844L106.219,283.719z"/>
<g>
	<path style="fill:#CCD1D9;" d="M87.938,47.016L87.938,47.016c0,0,35.188-10.703,104.062-4.359c23,2.125,44.844,5.656,64,15.641
		V15.625C236.844,5.641,215.094,0,192,0C150.562,0,113.344,18.188,87.938,47.016z"/>
	<path style="fill:#CCD1D9;" d="M424.062,47.016L424.062,47.016c0,0-35.188-10.703-104.062-4.359c-23,2.125-44.844,5.656-64,15.641
		V15.625C275.156,5.641,296.906,0,320,0C361.438,0,398.656,18.188,424.062,47.016z"/>
</g>
<path style="fill:#F6BB42;" d="M288,480c0,17.672-14.312,32-32,32s-32-14.328-32-32s14.312-32,32-32S288,462.328,288,480z"/>
<g>
	<path style="fill:#FFCE54;" d="M202.656,497.047c-11.75,0-21.312-9.562-21.312-21.328s9.562-21.328,21.312-21.328h106.688
		c11.75,0,21.312,9.562,21.312,21.328s-9.562,21.328-21.312,21.328H202.656z"/>
	<path style="fill:#FFCE54;" d="M160,411.719c-11.75,0-21.344-9.578-21.344-21.328c0-11.766,9.594-21.344,21.344-21.344h192
		c11.75,0,21.344,9.578,21.344,21.344c0,11.75-9.594,21.328-21.344,21.328H160z"/>
</g>
<path style="fill:#F6BB42;" d="M138.656,369.047c-11.75,0-21.312-9.562-21.312-21.328s9.562-21.328,21.312-21.328h234.688
	c11.75,0,21.312,9.562,21.312,21.328s-9.562,21.328-21.312,21.328H138.656z"/>
<path style="fill:#FFCE54;" d="M117.344,326.391c-11.781,0-21.344-9.578-21.344-21.344s9.562-21.328,21.344-21.328h277.312
	c11.781,0,21.344,9.562,21.344,21.328s-9.562,21.344-21.344,21.344H117.344z"/>
<path style="fill:#F6BB42;" d="M181.344,454.391c-11.781,0-21.344-9.578-21.344-21.344s9.562-21.328,21.344-21.328h149.312
	c11.781,0,21.344,9.562,21.344,21.328s-9.562,21.344-21.344,21.344H181.344z"/>
</svg>