<?xml version="1.0" encoding="iso-8859-1"?>
<!-- Uploaded to: SVG Repo, www.svgrepo.com, Generator: SVG Repo Mixer Tools -->
<svg version="1.1" id="Layer_1" xmlns="http://www.w3.org/2000/svg" xmlns:xlink="http://www.w3.org/1999/xlink" 
	 viewBox="0 0 511.967 511.967" xml:space="preserve">
<path style="fill:#E6E9ED;" d="M288.325,153.981c-8.343,8.328-21.842,8.328-30.17,0l-30.186-30.17
	c-8.327-8.327-8.327-21.842,0-30.17l75.434-75.433c8.343-8.327,21.842-8.327,30.17,0l30.17,30.17c8.343,8.328,8.343,21.843,0,30.17
	L288.325,153.981z"/>
<path style="fill:#5D9CEC;" d="M333.573,3.116c-4.156-4.155-10.922-4.155-15.078,0L19.278,302.332
	c-4.171,4.171-4.155,10.921,0,15.093c4.172,4.156,10.922,4.156,15.094,0L333.573,18.209C337.744,14.038,337.744,7.288,333.573,3.116
	z"/>
<g>
	<path style="fill:#CCD1D9;" d="M356.212,86.095L356.212,86.095c-4.172-4.172-10.922-4.172-15.093,0
		c-4.172,4.172-4.156,10.921,0,15.093L356.212,86.095z"/>
	<path style="fill:#CCD1D9;" d="M318.495,123.811l15.078-15.092l0,0c-4.156-4.156-10.922-4.156-15.078,0
		C314.323,112.89,314.323,119.639,318.495,123.811L318.495,123.811z"/>
	<path style="fill:#CCD1D9;" d="M295.872,146.435l15.077-15.077l0,0c-4.172-4.172-10.921-4.172-15.093,0
		c-4.156,4.156-4.156,10.921,0,15.077C295.856,146.435,295.856,146.435,295.872,146.435z"/>
</g>
<polygon style="fill:#E6E9ED;" points="427.926,248.335 374.991,195.401 457.971,127.514 495.812,165.356 "/>
<path style="fill:#AC92EB;" d="M447.643,267.99c7.781-8.765,7.375-22.733-0.922-31.045l-60.34-60.34
	c-8.297-8.296-22.264-8.702-31.045-0.922L118.21,386.233c-8.781,7.78-9.171,20.951-0.875,29.248l90.51,90.51
	c8.312,8.297,21.468,7.906,29.264-0.875L447.643,267.99z"/>
<path style="fill:#967ADC;" d="M118.21,386.233c-8.781,7.78-9.171,20.951-0.875,29.248l90.51,90.51
	c8.312,8.297,21.468,7.906,29.264-0.875l7.109-8.016L126.226,379.108L118.21,386.233z"/>
<g>
	<path style="fill:#AC92EB;" d="M139.975,423.011c-4.172-4.155-10.921-4.155-15.093,0v0.016l15.093,15.077l0,0
		C144.13,433.932,144.13,427.183,139.975,423.011z"/>
	<path style="fill:#AC92EB;" d="M170.145,453.197c-4.172-4.171-10.921-4.171-15.093,0l0,0l15.093,15.077
		C174.3,464.102,174.3,457.353,170.145,453.197z"/>
</g>
<path style="fill:#CCD1D9;" d="M469.344,153.981c4.172,4.172,10.922,4.172,15.094,0l0,0l-15.094-15.092
	C465.189,143.06,465.189,149.809,469.344,153.981z"/>
<path style="fill:#AC92EB;" d="M200.315,483.368c-4.172-4.172-10.921-4.172-15.093,0l15.093,15.076
	C204.47,494.288,204.47,487.523,200.315,483.368z"/>
<rect x="279.206" y="0.115" transform="matrix(-0.7071 -0.7072 0.7072 -0.7071 432.8386 328.8944)" style="fill:#CCD1D9;" width="10.673" height="149.359"/>
</svg>