<?xml version="1.0" encoding="iso-8859-1"?>
<!-- Uploaded to: SVG Repo, www.svgrepo.com, Generator: SVG Repo Mixer Tools -->
<svg height="800px" width="800px" version="1.1" id="Layer_1" xmlns="http://www.w3.org/2000/svg" xmlns:xlink="http://www.w3.org/1999/xlink" 
	 viewBox="0 0 511.959 511.959" xml:space="preserve">
<path style="fill:#CCD1D9;" d="M410.815,96.74c-8.343,8.328-21.842,8.328-30.186,0l-15.06-15.093
	c-8.344-8.328-8.344-21.827,0-30.154l45.246-45.247c8.312-8.328,21.812-8.328,30.154,0l15.078,15.077
	c8.327,8.328,8.327,21.842,0,30.17L410.815,96.74z"/>
<g>
	<path style="fill:#A9B1BC;" d="M407.034,10.011l-15.092,15.077c4.172,4.172,10.937,4.172,15.092,0
		C411.19,20.932,411.19,14.183,407.034,10.011z"/>
	<path style="fill:#A9B1BC;" d="M384.411,32.634l-15.093,15.077c4.188,4.172,10.937,4.172,15.093,0
		C388.567,43.556,388.567,36.806,384.411,32.634z"/>
</g>
<path style="fill:#434A54;" d="M131.279,331.022c-4.156,4.156-10.906,4.156-15.078,0c-4.172-4.171-4.172-10.921,0-15.093
	c4.172-4.156,10.922-4.156,15.078,0C135.434,320.101,135.45,326.851,131.279,331.022z"/>
<polygon style="fill:#E6E9ED;" points="116.779,451.109 71.532,405.861 456.047,21.323 501.293,66.57 "/>
<path style="fill:#46CEAD;" d="M305.291,292.744c8.312-8.328,8.312-21.843,0-30.154l-45.239-45.248
	c-8.343-8.343-21.843-8.343-30.17,0L26.285,420.939l0,0l0,0c-20.826,20.826-20.826,54.59,0,75.4
	c20.811,20.827,54.59,20.827,75.401,0L305.291,292.744z"/>
<polygon style="fill:#35BB9B;" points="275.121,322.898 199.711,247.496 214.804,232.419 290.198,307.82 "/>
</svg>