<?xml version="1.0" encoding="iso-8859-1"?>
<!-- Uploaded to: SVG Repo, www.svgrepo.com, Generator: SVG Repo Mixer Tools -->
<svg height="800px" width="800px" version="1.1" id="Layer_1" xmlns="http://www.w3.org/2000/svg" xmlns:xlink="http://www.w3.org/1999/xlink" 
	 viewBox="0 0 511.988 511.988" xml:space="preserve">
<path style="fill:#4A89DC;" d="M511.988,447.99c0,11.779-9.547,21.342-21.344,21.342H21.335C9.554,469.332,0,459.77,0,447.99V85.342
	c0-11.781,9.554-21.343,21.335-21.343h469.309c11.797,0,21.344,9.562,21.344,21.343V447.99z"/>
<path style="fill:#5D9CEC;" d="M511.988,426.646c0,11.781-9.547,21.344-21.344,21.344H21.335C9.554,447.99,0,438.428,0,426.646
	V63.999c0-11.781,9.554-21.343,21.335-21.343h469.309c11.797,0,21.344,9.562,21.344,21.343V426.646z"/>
<g>
	<path style="fill:#434A54;" d="M223.994,85.342H53.335c-5.891,0-10.672,4.75-10.672,10.656c0,5.875,4.781,10.656,10.672,10.656
		h170.659c5.891,0,10.664-4.781,10.664-10.656C234.659,90.092,229.885,85.342,223.994,85.342z"/>
	<path style="fill:#434A54;" d="M127.997,117.342H53.335c-5.891,0-10.672,4.749-10.672,10.655c0,5.875,4.781,10.655,10.672,10.655
		h74.662c5.891,0,10.664-4.78,10.664-10.655C138.661,122.091,133.888,117.342,127.997,117.342z"/>
</g>
<path style="fill:#DBADA2;" d="M319.523,282.338l-30-49.093c-0.375-0.688-0.781-1.312-1.219-1.906l-17.553,11.875l-0.062,0.031
	c-0.312-0.625-0.359-1.031-0.359-1.031c0.266,2.688-3.281,12.219-11.016,20.75c-5.867,6.5-12.18,10.219-17.305,10.219
	c-0.086,0-0.172,0-0.25,0l-32.593-12.656l-16.648,28.781l21.906,20.998c-2.234,2.625-4.227,5.531-5.961,8.656
	c-2.766,4.969-4.43,9.75-5.57,13.25c-2.516-1.125-6.382-2.594-12.468-3.281c-0.773-0.062-1.562-0.125-2.352-0.125
	c-17.351,0-31.812,20.781-34.53,24.938l-4.562,6.969l27.031,29.217l13.718-5.969c12.773,12.688,28.437,19.344,45.718,19.344h0.008
	c30.71,0,64.349-22.031,81.771-53.561C330.492,325.742,331.336,301.18,319.523,282.338z"/>
<path style="fill:#EAC6BB;" d="M290.789,161.246c-38.654,0-70.099,31.438-70.099,70.092c0,38.656,31.445,70.091,70.099,70.091
	c38.656,0,70.107-31.436,70.107-70.091C360.896,192.684,329.445,161.246,290.789,161.246z"/>
<path style="fill:#4A89DC;" d="M341.289,149.371c-11.203,7.875-61.234,12.25-76.443,12.25c-15.195,0-61.64-4.438-72.85-12.312
	L42.6,326.648c58.803,48.906,136.747,78.686,222.245,78.686c77.193,0,148.223-24.281,204.58-64.967L341.289,149.371z
	 M264.846,383.99c-39.328,0-77.647-6.656-113.88-19.717c-28.031-10.125-54.092-23.844-77.732-40.875l125.284-148.714
	c6.289,1.656,14.508,3.312,25.445,4.844c16.679,2.344,32.89,3.406,40.882,3.406c8.445,0,25.74-1.125,42.49-3.344
	c10.828-1.406,19.094-2.938,25.5-4.5l106.996,159.496c-22.154,13.875-46.123,25.031-71.451,33.219
	C335.211,378.553,300.367,383.99,264.846,383.99z"/>
</svg>