<?xml version="1.0" encoding="iso-8859-1"?>
<!-- Uploaded to: SVG Repo, www.svgrepo.com, Generator: SVG Repo Mixer Tools -->
<svg height="800px" width="800px" version="1.1" id="Layer_1" xmlns="http://www.w3.org/2000/svg" xmlns:xlink="http://www.w3.org/1999/xlink" 
	 viewBox="0 0 511.989 511.989" xml:space="preserve">
<polygon style="fill:#F5F7FA;" points="105.998,501.332 75.39,31.999 436.598,31.999 405.991,501.332 "/>
<path style="fill:#FFCE54;" d="M105.998,501.332h299.993l16.937-259.557c-11.093,14.219-26.202,26.625-44.718,35.687
	c-17.844,8.75-34.702,12.625-50.904,12.625c-35.844,0-68.437-18.843-101.42-45.124c-30.265-24.156-65.062-44.374-103.029-44.374
	c-11.733,0-23.765,1.938-36.077,6.281L105.998,501.332z"/>
<path style="opacity:0.2;fill:#FFFFFF;enable-background:new    ;" d="M122.856,221.9c37.968,0,72.765,20.25,103.029,44.375
	c32.983,26.28,65.576,45.123,101.42,45.123c16.202,0,33.061-3.844,50.904-12.594c17.703-8.655,32.266-20.405,43.202-33.811
	l1.516-23.219c-11.093,14.219-26.202,26.625-44.718,35.687c-17.844,8.75-34.702,12.625-50.904,12.625
	c-35.844,0-68.437-18.843-101.42-45.124c-30.265-24.156-65.062-44.374-103.029-44.374c-11.733,0-23.765,1.938-36.077,6.281
	l1.375,20.874C99.967,223.713,111.56,221.9,122.856,221.9z"/>
<path style="fill:#E6E9ED;" d="M63.999,21.343l31.999,490.646H415.99l31.999-490.646C447.989,21.343,63.999,21.343,63.999,21.343z
	 M396.007,490.644H115.982L86.764,42.655h338.46L396.007,490.644z"/>
<path style="fill:#656D78;" d="M458.661,0H53.327c-5.859,0-10.656,4.812-10.656,10.656v63.998c0,5.875,4.797,10.688,10.656,10.688
	h405.334c5.859,0,10.656-4.812,10.656-10.688V10.656C469.317,4.812,464.52,0,458.661,0z"/>
<g>
	<path style="fill:#434A54;" d="M95.998,10.656c5.891,0,10.672-4.75,10.672-10.656H85.326C85.326,5.906,90.107,10.656,95.998,10.656
		z"/>
	<path style="fill:#434A54;" d="M159.996,10.656c5.891,0,10.672-4.75,10.672-10.656h-21.343
		C149.325,5.906,154.106,10.656,159.996,10.656z"/>
	<path style="fill:#434A54;" d="M223.995,10.656c5.891,0,10.672-4.75,10.672-10.656h-21.344
		C213.323,5.906,218.104,10.656,223.995,10.656z"/>
	<path style="fill:#434A54;" d="M287.993,10.656c5.891,0,10.672-4.75,10.672-10.656h-21.344
		C277.321,5.906,282.102,10.656,287.993,10.656z"/>
	<path style="fill:#434A54;" d="M351.992,10.656c5.89,0,10.671-4.75,10.671-10.656H341.32
		C341.32,5.906,346.101,10.656,351.992,10.656z"/>
	<path style="fill:#434A54;" d="M415.99,10.656c5.891,0,10.672-4.75,10.672-10.656h-21.343
		C405.319,5.906,410.1,10.656,415.99,10.656z"/>
</g>
</svg>