<?xml version="1.0" encoding="iso-8859-1"?>
<!-- Uploaded to: SVG Repo, www.svgrepo.com, Generator: SVG Repo Mixer Tools -->
<svg height="800px" width="800px" version="1.1" id="Layer_1" xmlns="http://www.w3.org/2000/svg" xmlns:xlink="http://www.w3.org/1999/xlink" 
	 viewBox="0 0 511.997 511.997" xml:space="preserve">
<path style="fill:#EC87C0;" d="M336.543,141.328c0,0-11.999-13.327-14.671-14.671c-2.656-1.328-47.999-17.327-47.999-17.327h-33.328
	l-33.327,7.344l-24,16.655l-4.672,22.421l9.344,23.312c0,0,10.656,32.921,10,34.89c-0.671,1.969,24.656,34.905,24.656,34.905
	l-5.328,20.469c0,0-14,57.326-14.672,60.654c-0.656,3.328,31.343,76.654,31.343,76.654h46.654l20-51.326l8-63.327l-7.328-60.655
	l24-32.671L336.543,141.328z"/>
<path style="fill:#D770AD;" d="M511.148,158.578c-3.547-13.219-11.734-23.249-24.343-29.812
	c-20.797-10.827-53.593-11.749-97.482-2.75c-18.562,3.812-35.062,8.594-45.733,11.953c-0.484-1.078-1.016-2.156-1.594-3.234
	c-7.202-13.141-21.812-23.905-42.265-31.14c-17.156-6.062-34.28-8.218-43.733-8.218c-9.453,0-26.578,2.156-43.733,8.218
	c-20.453,7.235-35.062,18-42.265,31.14c-0.578,1.078-1.109,2.156-1.594,3.234c-10.671-3.359-27.171-8.141-45.733-11.953
	c-43.889-8.999-76.686-8.077-97.482,2.75c-12.609,6.563-20.796,16.593-24.343,29.812c-7.843,29.312,40.39,55.858,74.733,66.545
	c16.109,5.016,31.233,7.547,45.108,7.547c4.281,0,8.453-0.234,12.5-0.719c14.25-1.703,26.983-6.359,37.843-13.844
	c5.859-4.062,10.531-8.515,14.203-12.749c11.625,22.265,20.171,46.405,20.109,52.28c-0.625,3.719-2.734,8.531-4.953,13.625
	c-5.093,11.671-11.421,26.201-7.921,43.545c9.109,44.952,29.702,93.311,30.577,95.342l2.766,6.469h60.373l2.766-6.469
	c0.875-2.031,21.469-50.39,30.578-95.357c3.5-17.328-2.828-31.858-7.922-43.529c-2.219-5.094-4.328-9.906-4.953-13.625
	c-0.062-5.875,8.484-30.016,20.109-52.28c3.672,4.234,8.344,8.688,14.202,12.749c10.859,7.484,23.593,12.141,37.843,13.844
	c4.047,0.484,8.219,0.719,12.5,0.719c13.875,0,28.999-2.531,45.107-7.547C470.759,214.436,518.991,187.891,511.148,158.578z
	 M255.889,227.17c-5.984-17.437-14.359-32.873-24.953-45.982c-0.266-0.328-0.547-0.641-0.812-0.969
	c9.781,1.359,19.468,2.047,28.983,2.047c7.438,0,14.781-0.422,21.983-1.25c-0.047,0.047-0.094,0.109-0.141,0.156
	C270.326,194.281,261.92,209.733,255.889,227.17z M255.998,116.705c18.593,0,56.967,9.452,67.28,28.279
	c0.406,0.734,0.75,1.484,1.062,2.234c-27.906,12.906-59.452,16.781-93.811,11.5c-20.984-3.234-36.874-9.109-42.858-11.547
	c0.312-0.734,0.656-1.469,1.047-2.188C199.031,126.157,237.405,116.705,255.998,116.705z M158.907,200.546
	c-18.406,12.719-45.03,14.172-76.982,4.219c-16.39-5.109-33.249-13.249-45.108-21.78c-11.766-8.469-16.203-15.734-15.359-18.891
	c1.953-7.297,6.391-12.672,13.578-16.406c30.171-15.718,97.263,0.891,129.84,11.516c0.797,9.656,4.484,18.688,8.766,26.188
	C170.954,189.578,166.282,195.453,158.907,200.546z M219.936,279.794c2.828-6.483,5.516-12.608,6.516-19.093
	c0.391-2.5,1.578-10.109-9.546-37.516c-6.703-16.515-15.047-33.045-22.906-45.326c-0.922-1.453-1.766-2.875-2.531-4.266
	c7.031,4.656,15.718,11.891,23.734,22.078c9.953,12.64,17.593,27.889,22.733,45.342c3.828,13.062,6.25,27.391,7.25,42.812
	c-0.672,11.203-0.672,22.89,0.031,35.03v28.172c-6.672,0.703-13.671,2.266-20.75,5.109c-4.203-13.203-8.265-27.656-11.093-41.562
	C211.203,299.824,215.64,289.638,219.936,279.794z M239.998,395.291c-2.078-5.203-5.218-13.219-8.671-22.905
	c10.406-4.406,21.937-5.547,34.374-3.359c6.094,1.078,11.203,2.766,14.702,4.141c-3.359,9.327-6.374,17.062-8.405,22.124
	L239.998,395.291L239.998,395.291z M285.544,260.701c1,6.484,3.688,12.609,6.516,19.093c4.297,9.844,8.734,20.03,6.562,30.78
	c-2.875,14.188-7.047,28.953-11.344,42.359c-5.125-1.938-12.28-4.156-20.718-5.391v-29.266h-0.016
	c0.672-11.938,0.672-23.421,0.016-34.437c1.016-15.437,3.438-29.765,7.297-42.827c5.14-17.438,12.812-32.702,22.796-45.326
	c8.078-10.219,16.828-17.469,23.906-22.141c-0.781,1.406-1.625,2.844-2.562,4.312c-7.859,12.281-16.203,28.812-22.906,45.326
	C292.341,229.967,283.966,250.592,285.544,260.701z M475.181,182.984c-11.859,8.531-28.719,16.671-45.108,21.78
	c-31.858,9.922-57.452,8.719-76.061-3.594c-7.859-5.202-12.812-11.421-15.641-15.812c4.266-7.484,7.953-16.516,8.75-26.172
	c32.562-10.625,99.606-27.249,129.825-11.5c7.203,3.734,11.641,9.109,13.594,16.406C491.384,167.25,486.946,174.516,475.181,182.984
	z"/>
<g>
	<path style="fill:#EC87C0;" d="M449.993,206.89c-2.609-12.796-20.546-20.015-40.045-16.108
		c-19.516,3.906-33.203,17.452-30.578,30.232c2.609,12.812,20.547,20.016,40.046,16.109
		C438.931,233.217,452.618,219.686,449.993,206.89z"/>
	<path style="fill:#EC87C0;" d="M408.901,248.857L408.901,248.857c-20.781,0-36.844-10.328-39.984-25.703
		c-1.516-7.374,0.125-14.937,4.734-21.89c6.75-10.171,19.531-17.999,34.203-20.937c4.203-0.844,8.452-1.266,12.608-1.266
		c20.78,0,36.843,10.328,39.983,25.687c1.516,7.375-0.125,14.952-4.734,21.89c-6.75,10.188-19.547,18.016-34.202,20.938
		C417.307,248.42,413.058,248.857,408.901,248.857z M420.463,200.39c-2.766,0-5.593,0.281-8.421,0.859
		c-10.859,2.172-17.766,7.531-20.609,11.812c-0.984,1.484-2.062,3.688-1.625,5.827c1.109,5.406,10.578,8.625,19.094,8.625l0,0
		c2.766,0,5.594-0.281,8.421-0.844c10.859-2.172,17.766-7.531,20.608-11.827c0.984-1.469,2.062-3.672,1.625-5.812
		C438.446,203.624,428.978,200.39,420.463,200.39z"/>
	<path style="fill:#EC87C0;" d="M62.003,206.89c2.609-12.796,20.546-20.015,40.046-16.108c19.515,3.906,33.203,17.452,30.593,30.232
		c-2.625,12.812-20.562,20.016-40.062,16.109C73.065,233.217,59.378,219.686,62.003,206.89z"/>
	<path style="fill:#EC87C0;" d="M103.096,248.857c-4.156,0-8.406-0.438-12.609-1.281c-14.656-2.922-27.453-10.75-34.202-20.938
		c-4.609-6.938-6.25-14.515-4.734-21.89c3.141-15.358,19.203-25.687,39.983-25.687c4.156,0,8.406,0.422,12.609,1.266
		c14.656,2.938,27.453,10.766,34.203,20.937c4.609,6.953,6.25,14.516,4.734,21.89C139.938,238.529,123.876,248.857,103.096,248.857z
		 M91.534,200.39c-8.516,0-17.984,3.234-19.093,8.641c-0.438,2.141,0.641,4.344,1.625,5.812c2.844,4.296,9.75,9.655,20.609,11.827
		c2.828,0.562,5.656,0.844,8.421,0.844c8.516,0,17.984-3.219,19.093-8.625c0.438-2.14-0.641-4.343-1.625-5.827
		c-2.843-4.281-9.75-9.641-20.609-11.812C97.127,200.671,94.299,200.39,91.534,200.39z"/>
</g>
</svg>