<?xml version="1.0" encoding="iso-8859-1"?>
<!-- Uploaded to: SVG Repo, www.svgrepo.com, Generator: SVG Repo Mixer Tools -->
<svg version="1.1" id="Layer_1" xmlns="http://www.w3.org/2000/svg" xmlns:xlink="http://www.w3.org/1999/xlink" 
	 viewBox="0 0 512 512" xml:space="preserve">
<path style="fill:#F6BB42;" d="M122.812,475.875l37.781-452.766l0.062-0.922v-0.859h213.219v0.891l0.094,0.891l37.75,452.766h21.406
	L395.203,21.328C395.203,9.547,385.656,0,373.875,0H160.656c-11.781,0-21.312,9.547-21.312,21.328l-37.922,454.547H122.812z"/>
<path d="M86.922,501.344c0,5.891-4.766,10.656-10.672,10.656c-5.875,0-10.656-4.766-10.656-10.656s4.781-10.656,10.656-10.656
	C82.156,490.688,86.922,495.453,86.922,501.344z"/>
<rect x="131.06" y="234.56" style="fill:#F6BB42;" width="271.25" height="21.312"/>
<path style="fill:#FFCE54;" d="M81.938,498.984L118.032,66.39l0.062-0.922v-0.859h213.234V65.5l0.078,0.891l36.078,432.594h21.391
	L352.656,64.609c0-11.766-9.562-21.312-21.328-21.312H118.094c-11.766,0-21.312,9.547-21.312,21.312L60.547,498.984H81.938z"/>
<path style="fill:#656D78;" d="M81.703,490.422H60.375c-5.875,0-10.656,4.781-10.656,10.656c0,5.891,4.781,10.672,10.656,10.672
	h21.328c5.891,0,10.656-4.781,10.656-10.672C92.359,495.203,87.594,490.422,81.703,490.422z"/>
<path style="fill:#434A54;" d="M419.641,405.141c-23.547,0-42.641,19.094-42.641,42.641s19.094,42.641,42.641,42.641
	s42.641-19.094,42.641-42.641S443.188,405.141,419.641,405.141z"/>
<path style="fill:#CCD1D9;" d="M430.297,447.781c0,5.891-4.766,10.656-10.656,10.656s-10.672-4.766-10.672-10.656
	s4.781-10.656,10.672-10.656S430.297,441.891,430.297,447.781z"/>
<path style="fill:#656D78;" d="M377.656,426.453c-23.547,0-42.641,19.094-42.641,42.641c0,23.562,19.094,42.656,42.641,42.656
	c23.562,0,42.656-19.094,42.656-42.656C420.312,445.547,401.219,426.453,377.656,426.453z"/>
<path style="fill:#FFFFFF;" d="M388.312,469.094c0,5.891-4.766,10.672-10.656,10.672c-5.875,0-10.656-4.781-10.656-10.672
	c0-5.875,4.781-10.656,10.656-10.656C383.547,458.438,388.312,463.219,388.312,469.094z"/>
<path style="fill:#434A54;" d="M121.688,469.094H100.36c-5.891,0-10.672,4.781-10.672,10.672s4.781,10.656,10.672,10.656h21.328
	c5.875,0,10.656-4.766,10.656-10.656S127.562,469.094,121.688,469.094z"/>
<g>
	<polygon style="fill:#FFCE54;" points="358.984,202.797 353.344,176.25 403.328,118.656 405.812,148.422 	"/>
	<path style="fill:#FFCE54;" d="M376.281,0.141l-40.656,46.797l16.109,13.984l41.734-48.047C390.484,6,384,1,376.281,0.141z"/>
	<rect x="89.09" y="277.2" style="fill:#FFCE54;" width="271.25" height="21.312"/>
</g>
</svg>