<?xml version="1.0" encoding="iso-8859-1"?>
<!-- Uploaded to: SVG Repo, www.svgrepo.com, Generator: SVG Repo Mixer Tools -->
<svg version="1.1" id="Layer_1" xmlns="http://www.w3.org/2000/svg" xmlns:xlink="http://www.w3.org/1999/xlink" 
	 viewBox="0 0 511.987 511.987" xml:space="preserve">
<path style="fill:#E6E9ED;" d="M511.987,415.989c0-5.906-4.781-10.656-10.672-10.656c-0.703,0-1.406,0.062-2.094,0.188l0,0h-0.016
	c-0.016,0.031-0.047,0.031-0.062,0.031l-44.016,8.812l-28.951-86.873c0,0,0-0.031-0.016-0.031l-0.047-0.188h-0.016
	c-1.406-4.219-5.391-7.281-10.109-7.281H206.713v21.344h201.589l29.561,88.686c1.484,4.438,5.609,7.312,10.125,7.312
	c0.688,0,1.391-0.062,2.094-0.219l53.328-10.655l0,0C508.3,425.489,511.987,421.177,511.987,415.989z"/>
<path style="fill:#CCD1D9;" d="M95.997,21.343H31.842c-5.891,0-10.656,4.75-10.656,10.656s4.766,10.655,10.656,10.655h53.483
	v234.963h21.343V31.999C106.668,26.093,101.887,21.343,95.997,21.343z"/>
<path style="fill:#434A54;" d="M383.989,277.336L383.989,277.336L383.989,277.336H110.715v21.312h273.274l0,0l0,0
	c5.891,0,10.672-4.749,10.672-10.655S389.88,277.336,383.989,277.336z"/>
<g>
	<rect x="191.993" y="383.993" style="fill:#CCD1D9;" width="170.4" height="21.344"/>
	<rect x="362.663" y="341.333" style="fill:#CCD1D9;" width="21.328" height="63.998"/>
</g>
<path style="fill:#E6E9ED;" d="M341.319,149.495H127.996c-11.781,0-21.328,9.531-21.328,21.312v106.528
	c0,11.781,9.547,21.312,21.328,21.312h213.323c11.781,0,21.342-9.53,21.342-21.312V170.807
	C362.661,159.026,353.1,149.495,341.319,149.495z M341.319,277.336H127.996V170.807h213.323V277.336z"/>
<path style="fill:#656D78;" d="M373.317,479.987c-23.514,0-42.654-19.125-42.654-42.655s19.141-42.687,42.654-42.687
	c23.531,0,42.672,19.156,42.672,42.687S396.848,479.987,373.317,479.987z"/>
<path style="fill:#434A54;" d="M373.317,383.989c-29.451,0-53.326,23.875-53.326,53.343c0,29.437,23.875,53.312,53.326,53.312
	c29.453,0,53.344-23.875,53.344-53.312C426.661,407.864,402.77,383.989,373.317,383.989z M373.317,469.331
	c-17.639,0-31.998-14.374-31.998-31.999c0-17.655,14.359-31.999,31.998-31.999c17.656,0,32,14.344,32,31.999
	C405.317,454.957,390.973,469.331,373.317,469.331z"/>
<path style="fill:#48CFAD;" d="M362.661,277.336v-63.998H215.572v85.31h125.747C353.1,298.647,362.661,289.117,362.661,277.336z"/>
<rect x="257.353" y="245.333" style="fill:#37BC9B;" width="105.31" height="21.312"/>
<path style="fill:#656D78;" d="M149.324,479.987c-76.451,0-138.653-62.217-138.653-138.652c0-76.467,62.202-138.685,138.653-138.685
	c76.467,0,138.667,62.218,138.667,138.685C287.991,417.77,225.79,479.987,149.324,479.987z"/>
<path style="fill:#434A54;" d="M149.324,191.995C66.857,191.995,0,258.837,0,341.335c0,82.467,66.857,149.309,149.324,149.309
	c82.482,0,149.339-66.842,149.339-149.309C298.663,258.837,231.806,191.995,149.324,191.995z M239.837,431.833
	c-24.171,24.186-56.311,37.498-90.513,37.498c-34.187,0-66.327-13.312-90.498-37.498c-24.187-24.188-37.5-56.312-37.5-90.498
	c0-34.188,13.312-66.342,37.5-90.529c24.171-24.156,56.311-37.468,90.498-37.468c34.202,0,66.342,13.312,90.513,37.468
	c24.172,24.188,37.482,56.342,37.482,90.529C277.319,375.521,264.009,407.645,239.837,431.833z"/>
<path style="fill:#E6E9ED;" d="M383.989,437.332c0,5.875-4.781,10.656-10.672,10.656s-10.656-4.781-10.656-10.656
	c0-5.905,4.766-10.687,10.656-10.687S383.989,431.427,383.989,437.332z"/>
<g>
	<rect x="138.663" y="206.653" style="fill:#434A54;" width="21.328" height="269.34"/>
	<polygon style="fill:#434A54;" points="207.431,463.268 72.763,230.024 91.231,219.368 225.9,452.613 	"/>
	<polygon style="fill:#434A54;" points="260.618,417.895 27.373,283.242 38.045,264.743 271.29,399.427 	"/>
	<rect x="14.671" y="330.643" style="fill:#434A54;" width="269.32" height="21.344"/>
	<polygon style="fill:#434A54;" points="271.29,283.242 38.045,417.895 27.373,399.427 260.618,264.743 	"/>
	<polygon style="fill:#434A54;" points="225.9,230.024 91.231,463.268 72.763,452.613 207.431,219.368 	"/>
</g>
<path style="fill:#E6E9ED;" d="M149.324,373.334c-17.64,0-31.999-14.375-31.999-31.999c0-17.656,14.359-32,31.999-32
	c17.656,0,31.999,14.344,31.999,32C181.323,358.959,166.979,373.334,149.324,373.334z"/>
<g>
	<path style="fill:#CCD1D9;" d="M149.324,298.647c-23.562,0-42.655,19.125-42.655,42.688c0,23.562,19.093,42.654,42.655,42.654
		s42.671-19.093,42.671-42.654C191.994,317.772,172.886,298.647,149.324,298.647z M149.324,362.646
		c-11.765,0-21.328-9.562-21.328-21.312c0-11.781,9.562-21.344,21.328-21.344s21.343,9.562,21.343,21.344
		C170.667,353.085,161.089,362.646,149.324,362.646z"/>
	<path style="fill:#CCD1D9;" d="M159.995,341.335c0,5.875-4.781,10.656-10.671,10.656s-10.656-4.781-10.656-10.656
		c0-5.906,4.766-10.688,10.656-10.688S159.995,335.429,159.995,341.335z"/>
</g>
</svg>