<?xml version="1.0" encoding="iso-8859-1"?>
<!-- Uploaded to: SVG Repo, www.svgrepo.com, Generator: SVG Repo Mixer Tools -->
<svg version="1.1" id="Layer_1" xmlns="http://www.w3.org/2000/svg" xmlns:xlink="http://www.w3.org/1999/xlink" 
	 viewBox="0 0 511.967 511.967" xml:space="preserve">
<g>
	<path style="fill:#DBADA2;" d="M319.792,106.556c0,17.623-14.28,31.904-31.904,31.904c-17.615,0-31.903-14.281-31.903-31.904
		c0-17.624,14.288-31.904,31.903-31.904C305.511,74.652,319.792,88.932,319.792,106.556z"/>
	<polygon style="fill:#DBADA2;" points="255.984,159.99 298.653,136.617 277.326,76.464 89.509,159.99 	"/>
</g>
<path style="fill:#DA4453;" d="M401.912,120.523c-4.155-4.155-10.905-4.155-15.077,0l-13.515,13.531l-13.53-13.531
	c-4.156-4.155-10.922-4.155-15.094,0c-4.155,4.156-4.155,10.938,0,15.094l13.531,13.529l-1.562,1.562l15.093,15.062l1.562-1.562
	l1.562,1.562l15.078-15.062l-1.562-1.562l13.515-13.529C406.083,131.461,406.083,124.679,401.912,120.523z"/>
<path style="fill:#EAC6BB;" d="M282.653,287.982h197.316c17.687,0,31.998-14.312,31.998-31.998
	c0-17.687-14.312-31.998-31.998-31.998H282.653l0,0c-2.952,0-5.327-2.375-5.327-5.344c0-2.938,2.375-5.312,5.327-5.312h165.318
	c17.687,0,31.998-14.342,31.998-31.998c0-17.686-14.312-31.998-31.998-31.998H277.326h-64.004c0,0-67.598,0-69.332,0
	C64.472,149.334,0,213.799,0,293.326c0,79.463,64.371,143.865,143.803,143.99h-0.062h240.235c28.342,0,42.67-14.343,42.67-31.998
	c0-17.686-14.328-31.998-31.998-31.998H282.653c-2.952,0-5.327-2.406-5.327-5.344c0-2.937,2.375-5.343,5.327-5.343h165.318
	c17.687,0,31.998-14.312,31.998-31.998c0-17.655-14.312-31.998-31.998-31.998H282.653c-2.952,0-5.327-2.374-5.327-5.312
	C277.326,290.357,279.701,287.982,282.653,287.982z"/>
<rect x="341.323" y="149.334" style="fill:#ED5564;" width="63.996" height="63.996"/>
</svg>