<?xml version="1.0" encoding="iso-8859-1"?>
<!-- Uploaded to: SVG Repo, www.svgrepo.com, Generator: SVG Repo Mixer Tools -->
<svg height="800px" width="800px" version="1.1" id="Layer_1" xmlns="http://www.w3.org/2000/svg" xmlns:xlink="http://www.w3.org/1999/xlink" 
	 viewBox="0 0 511.988 511.988" xml:space="preserve">
<path style="fill:#4A89DC;" d="M511.988,447.99c0,11.779-9.547,21.342-21.344,21.342H21.335C9.554,469.332,0,459.77,0,447.99V85.342
	c0-11.781,9.554-21.343,21.335-21.343h469.309c11.797,0,21.344,9.562,21.344,21.343V447.99z"/>
<path style="fill:#5D9CEC;" d="M511.988,426.646c0,11.781-9.547,21.344-21.344,21.344H21.335C9.554,447.99,0,438.428,0,426.646
	V63.999c0-11.781,9.554-21.343,21.335-21.343h469.309c11.797,0,21.344,9.562,21.344,21.343V426.646z"/>
<g>
	<path style="fill:#434A54;" d="M53.335,106.654h170.659c5.891,0,10.664-4.75,10.664-10.656c0-5.875-4.773-10.656-10.664-10.656
		H53.335c-5.891,0-10.672,4.781-10.672,10.656C42.663,101.904,47.444,106.654,53.335,106.654z"/>
	<path style="fill:#434A54;" d="M127.997,117.342H53.335c-5.891,0-10.672,4.78-10.672,10.655c0,5.906,4.781,10.655,10.672,10.655
		h74.662c5.891,0,10.664-4.749,10.664-10.655C138.661,122.122,133.888,117.342,127.997,117.342z"/>
</g>
<g>
	<path style="fill:#CCD1D9;" d="M266.658,277.338c5.898,0,10.678-4.781,10.678-10.688c0-5.875-4.779-10.656-10.678-10.656
		c-5.891,0-10.664,4.781-10.664,10.656C255.994,272.556,260.767,277.338,266.658,277.338z"/>
	<path style="fill:#CCD1D9;" d="M245.33,277.338c5.891,0,10.664-4.781,10.664-10.688c0-5.875-4.773-10.656-10.664-10.656
		s-10.671,4.781-10.671,10.656C234.659,272.556,239.439,277.338,245.33,277.338z"/>
	<path style="fill:#CCD1D9;" d="M267.752,298.648c-5.891,0-10.672,4.781-10.672,10.688c0,5.875,4.781,10.656,10.672,10.656
		c5.898,0,10.662-4.781,10.662-10.656C278.414,303.43,273.65,298.648,267.752,298.648z"/>
	<path style="fill:#CCD1D9;" d="M246.416,298.648c-5.891,0-10.664,4.781-10.664,10.688c0,5.875,4.773,10.656,10.664,10.656
		s10.664-4.781,10.664-10.656C257.08,303.43,252.306,298.648,246.416,298.648z"/>
	<path style="fill:#CCD1D9;" d="M176.129,139.528L176.129,139.528c-0.18,0-0.352-0.031-0.531-0.031
		c-5.891,0-10.672,4.781-10.672,10.688c0,5.688,4.484,10.344,10.125,10.625v0.031c0.328,0,1.852,0.062,4.328,0.062
		c12.32,0,48.171-1.75,76.694-20.531c28.514,18.781,64.357,20.531,76.701,20.531c2.469,0,3.984-0.062,4.312-0.062v-0.031
		c5.641-0.281,10.125-4.938,10.125-10.625c0-5.906-4.781-10.688-10.656-10.688c-0.188,0-0.375,0.031-0.562,0.031l0,0
		c-0.438,0.031-43.844,1.969-72.404-19.999l-7.516,9.781l-7.516-9.781C220.151,141.371,176.566,139.528,176.129,139.528z"/>
	<path style="fill:#CCD1D9;" d="M345.617,212.839v-0.031c-0.156-0.031-16.562-2.844-34.875-10
		c-12.125-4.75-27.062-12.218-37.217-22.78c30.717,15.938,67.998,17.312,69.998,17.375l0,0c0.125,0,0.219,0.031,0.344,0.031
		c5.875,0,10.656-4.781,10.656-10.688c0-5.75-4.594-10.469-10.312-10.656l0,0c-0.531,0-53.859-2.094-78.279-27.594l-9.859,9.469
		l-9.859-9.469c-24.421,25.5-77.748,27.594-78.279,27.594v0.031c-5.727,0.156-10.32,4.875-10.32,10.625
		c0,5.906,4.773,10.688,10.664,10.688c0.117,0,0.227-0.031,0.336-0.031l0,0c1.992-0.062,39.296-1.438,70.006-17.375
		c-10.171,10.562-25.093,18.03-37.226,22.78c-18.312,7.156-34.718,9.969-34.882,10v0.031c-5.047,0.844-8.898,5.218-8.898,10.499
		c0,5.875,4.773,10.656,10.664,10.656c0.602,0,1.188-0.062,1.758-0.156v0.031c2.273-0.406,43.405-7.531,72.646-29.249
		c-5.421,12.031-21.593,32.749-69.709,44.968l0,0c-4.617,1.156-8.047,5.344-8.047,10.312c0,5.906,4.781,10.688,10.672,10.688
		c0.906,0,1.781-0.125,2.617-0.344l0,0c44.804-11.375,66.928-30.187,77.858-46.156c10.93,15.969,33.045,34.781,77.857,46.156l0,0
		c0.844,0.219,1.719,0.344,2.625,0.344c5.875,0,10.656-4.781,10.656-10.688c0-4.968-3.422-9.156-8.047-10.312h0.016
		c-20.609-5.25-48.344-15.5-63.404-34.624c-3.016-3.844-5.016-7.375-6.359-10.375c29.248,21.749,70.42,28.874,72.686,29.28
		l0.016-0.031c0.562,0.094,1.156,0.156,1.75,0.156c5.875,0,10.656-4.781,10.656-10.656
		C354.523,218.057,350.68,213.683,345.617,212.839z M256.072,192.528c0.812,0.906,1.648,1.812,2.516,2.688h-5.031
		C254.416,194.34,255.252,193.434,256.072,192.528z M256.072,168.465c1.359,1.156,2.766,2.281,4.203,3.344l-4.203,2.156
		l-4.203-2.156C253.306,170.746,254.705,169.621,256.072,168.465z"/>
</g>
<path style="fill:#E6E9ED;" d="M346.758,316.648c-1.109-4.094-5.547-5.719-11.891-5.719c-17.797,0-50.719,12.781-68.209,20.156
	V106.654H245.33v225.213c-16.898-7.188-51.624-20.938-70.084-20.938c-6.359,0-10.781,1.625-11.891,5.719
	c-5.468,20.156,20.914,62.842,41.218,78.967c9.688,7.688,21.632,9.719,31.46,9.719c10.773,0,19.023-2.438,19.023-2.438
	s8.25,2.438,19.031,2.438c9.826,0,21.764-2.031,31.451-9.719C325.851,379.49,352.226,336.805,346.758,316.648z M217.838,378.928
	c-7.617-6.061-17.101-17.967-24.171-30.373c-3.305-5.781-5.531-10.656-7.008-14.625c6.602,1.5,16.265,4.312,30.14,9.5
	c13.695,5.125,25.405,10.312,28.53,11.719v28.061c-2.367,0.375-5.633,0.781-9.296,0.781
	C230.651,383.99,223.119,383.115,217.838,378.928z M316.445,348.555c-7.078,12.406-16.547,24.312-24.172,30.373
	c-5.281,4.188-12.812,5.062-18.186,5.062c-2.781,0-5.328-0.219-7.43-0.5v-29.186c4.633-2.062,14.74-6.438,26.412-10.781
	c14-5.25,23.75-8.062,30.391-9.594C321.976,337.898,319.742,342.773,316.445,348.555z"/>
</svg>