<?xml version="1.0" encoding="iso-8859-1"?>
<!-- Uploaded to: SVG Repo, www.svgrepo.com, Generator: SVG Repo Mixer Tools -->
<svg height="800px" width="800px" version="1.1" id="Layer_1" xmlns="http://www.w3.org/2000/svg" xmlns:xlink="http://www.w3.org/1999/xlink" 
	 viewBox="0 0 511.988 511.988" xml:space="preserve">
<path style="fill:#4A89DC;" d="M511.988,447.99c0,11.779-9.547,21.342-21.344,21.342H21.335C9.554,469.332,0,459.77,0,447.99V85.342
	c0-11.781,9.554-21.343,21.335-21.343h469.309c11.797,0,21.344,9.562,21.344,21.343V447.99z"/>
<path style="fill:#5D9CEC;" d="M511.988,426.646c0,11.781-9.547,21.344-21.344,21.344H21.335C9.554,447.99,0,438.428,0,426.646
	V63.999c0-11.781,9.554-21.343,21.335-21.343h469.309c11.797,0,21.344,9.562,21.344,21.343V426.646z"/>
<path style="fill:#E6E9ED;" d="M348.461,213.652c0-34.937-28.312-63.28-63.266-63.28c-10.529,0-20.467,2.594-29.201,7.156
	c-8.734-4.562-18.671-7.156-29.203-7.156c-34.944,0-63.272,28.344-63.272,63.28c0,9.593,2.141,18.687,5.969,26.843l19.062,41.312
	c-4.562,14.594,2.867,102.184,33.374,102.184c9.594,0,24.664-81.436,34.062-81.498c9.406-0.062,24.475,81.498,34.068,81.498
	c30.5,0,37.938-87.59,33.375-102.184l19.062-41.312C346.336,232.338,348.461,223.244,348.461,213.652z"/>
<path style="fill:#CCD1D9;" d="M290.055,394.646c-10.578,0-15.092-11.875-18.061-19.717c-3.055-8.062-6.25-18.656-9.344-28.906
	c-1.828-6.062-4.289-14.25-6.648-21.25c-2.367,7-4.828,15.156-6.656,21.219c-3.094,10.281-6.289,20.875-9.352,28.938
	c-2.984,7.842-7.5,19.717-18.07,19.717c-6.5,0-16.039-2.438-24.577-14.031c-5.961-8.123-14-24.311-18.422-55.436
	c-2.023-14.25-3.109-31.654-1.531-42.123l-17.578-38.063c-4.617-9.844-6.96-20.406-6.96-31.343c0-40.78,33.171-73.937,73.936-73.937
	c10.031,0,20.023,2.062,29.203,6c9.18-3.938,19.172-6,29.201-6c40.766,0,73.936,33.156,73.936,73.937
	c0,10.968-2.344,21.499-6.982,31.374l-17.562,38.062c1.578,10.438,0.5,27.842-1.531,42.092
	c-4.422,31.125-12.469,47.312-18.422,55.436C306.086,392.209,296.555,394.646,290.055,394.646z M226.791,161.059
	c-29.007,0-52.6,23.594-52.6,52.593c0,7.812,1.664,15.312,4.953,22.312l0.031,0.062l20.781,45.031l-1.227,3.906
	c-0.976,3.156-1.375,18.311,1.32,37.248c2.922,20.562,8.211,37.219,14.5,45.781c1.258,1.719,2.492,3,3.687,3.906
	c3.219-7.312,7.758-22.344,10.68-32.062c3.055-10.094,6.211-20.562,9.203-28.5c2.938-7.719,7.367-19.436,17.797-19.498h0.086
	c10.484,0,14.93,11.717,17.867,19.498c3,7.938,6.154,18.406,9.217,28.531c2.906,9.719,7.438,24.719,10.656,32.031
	c1.188-0.906,2.422-2.188,3.688-3.906c6.281-8.562,11.562-25.219,14.5-45.781c2.688-18.938,2.297-34.092,1.312-37.248l-1.219-3.906
	l1.719-3.75l19.078-41.281c3.312-7.062,4.984-14.562,4.984-22.374c0-28.999-23.594-52.593-52.609-52.593
	c-8.561,0-16.732,2-24.271,5.906l-4.93,2.594l-4.93-2.594C243.525,163.059,235.354,161.059,226.791,161.059z"/>
<g>
	<path style="fill:#434A54;" d="M223.994,85.342H53.335c-5.891,0-10.672,4.781-10.672,10.656c0,5.906,4.781,10.656,10.672,10.656
		h170.659c5.891,0,10.664-4.75,10.664-10.656C234.659,90.123,229.885,85.342,223.994,85.342z"/>
	<path style="fill:#434A54;" d="M127.997,117.342H53.335c-5.891,0-10.672,4.78-10.672,10.655c0,5.906,4.781,10.655,10.672,10.655
		h74.662c5.891,0,10.664-4.749,10.664-10.655C138.661,122.122,133.888,117.342,127.997,117.342z"/>
</g>
</svg>